{"glyphs":{"0":{"ha":840,"x_min":94,"x_max":765,"o":"m 492 976 q 740 857 678 976 q 765 474 803 738 q 638 96 729 210 q 368 -18 547 -18 q 120 100 183 -18 q 94 485 57 218 q 222 863 132 750 q 492 976 311 976 m 489 856 q 315 770 372 856 q 229 474 257 685 q 228 185 199 268 q 368 103 258 103 q 543 188 485 103 q 632 485 601 274 q 631 774 661 692 q 489 856 600 856 z "},"1":{"ha":554,"x_min":88,"x_max":482,"o":"m 347 0 l 208 0 l 311 743 q 329 831 319 800 l 90 757 l 88 861 l 342 958 l 482 958 l 347 0 z "},"2":{"ha":775,"x_min":17,"x_max":724,"o":"m 151 832 l 151 940 q 449 975 311 975 q 666 929 594 975 q 724 760 738 883 q 667 598 713 672 q 513 419 621 524 l 211 129 q 357 135 272 135 l 669 135 l 651 0 l 17 0 l 29 90 q 53 149 36 132 l 364 449 q 524 624 471 550 q 583 763 578 697 q 556 836 590 819 q 435 853 521 853 q 151 832 306 853 z "},"3":{"ha":765,"x_min":17,"x_max":704,"o":"m 161 843 l 160 951 q 431 976 314 976 q 652 920 589 976 q 704 749 715 864 q 681 643 699 693 q 626 552 664 593 q 535 506 588 511 l 532 500 q 667 261 699 472 q 299 -18 625 -6 q 17 7 178 -22 l 35 115 q 126 109 54 114 q 209 104 197 104 q 290 106 221 104 q 529 288 500 121 q 508 405 542 363 q 375 449 474 447 l 196 453 l 210 557 l 383 557 q 522 603 482 558 q 571 726 563 649 q 547 829 579 804 q 399 854 515 854 q 161 843 300 854 z "},"4":{"ha":853,"x_min":53,"x_max":788,"o":"m 774 242 l 647 228 l 615 0 l 483 0 l 515 228 l 158 228 q 53 283 83 228 q 60 397 22 338 l 400 958 l 539 958 l 201 393 q 222 340 169 340 l 531 340 l 569 618 l 617 774 l 724 774 l 663 340 l 788 340 l 774 242 z "},"5":{"ha":743,"x_min":19,"x_max":721,"o":"m 697 839 l 300 839 l 253 600 l 356 590 q 594 508 519 576 q 653 294 669 440 q 627 191 646 239 q 571 96 608 143 q 465 19 533 49 q 304 -17 397 -11 q 19 18 167 -24 l 43 131 q 274 107 167 100 q 518 306 494 119 q 480 434 531 399 q 283 478 429 469 l 179 488 q 137 508 153 489 q 126 556 121 528 l 204 958 l 721 958 l 697 839 z "},"6":{"ha":793,"x_min":81,"x_max":733,"o":"m 733 953 l 717 853 q 532 857 653 857 q 335 794 392 857 q 240 525 278 731 q 486 628 347 628 q 674 557 615 629 q 708 311 733 485 q 606 63 683 143 q 351 -17 528 -17 q 156 33 219 -17 q 81 192 93 83 q 96 474 69 301 q 142 694 114 604 q 203 839 169 783 q 287 924 236 894 q 391 965 338 954 q 524 975 444 975 q 733 953 614 975 m 576 319 q 569 474 593 431 q 450 515 546 517 q 221 400 342 515 q 222 164 196 225 q 360 103 249 103 q 515 154 469 103 q 576 319 560 206 z "},"7":{"ha":711,"x_min":113,"x_max":731,"o":"m 124 958 l 671 958 q 731 933 715 958 q 726 867 746 907 l 308 0 l 169 0 l 542 769 q 583 840 561 811 l 113 840 l 124 958 z "},"8":{"ha":840,"x_min":65,"x_max":769,"o":"m 258 499 l 260 504 q 156 725 129 519 q 245 917 175 860 q 490 974 315 974 q 730 913 671 972 q 769 714 789 853 q 603 499 742 514 l 601 493 q 724 233 758 476 q 631 42 706 99 q 367 -15 557 -14 q 119 47 190 -17 q 65 244 47 110 q 126 426 82 361 q 258 499 169 490 m 479 861 q 328 828 367 861 q 278 701 290 796 q 297 581 265 610 q 446 553 329 553 q 592 585 554 553 q 642 711 631 617 q 625 831 656 800 q 479 861 594 861 m 422 442 q 258 408 301 440 q 200 264 215 375 q 222 137 188 169 q 382 104 257 104 q 542 141 497 104 q 597 275 586 178 q 580 410 613 378 q 422 442 547 442 z "},"9":{"ha":792,"x_min":63,"x_max":717,"o":"m 63 6 l 82 107 q 278 103 174 100 q 478 174 421 107 q 574 439 536 242 q 464 355 518 379 q 339 331 410 331 q 212 354 263 331 q 138 421 161 378 q 106 522 114 464 q 107 647 97 581 q 214 900 128 825 q 464 975 300 975 q 705 869 650 975 q 717 485 760 764 q 660 231 693 328 q 573 78 626 133 q 453 3 519 24 q 285 -17 388 -17 q 63 6 171 -17 m 367 442 q 477 467 428 442 q 594 560 526 493 q 594 794 622 732 q 454 857 567 857 q 298 808 344 857 q 236 639 251 758 q 251 486 224 532 q 367 442 279 440 z "}," ":{"ha":308,"x_min":0,"x_max":0,"o":""},"!":{"ha":382,"x_min":74,"x_max":336,"o":"m 276 550 l 229 296 l 122 296 l 144 550 l 203 965 l 336 965 l 276 550 m 138 172 l 172 172 q 217 121 225 172 l 207 47 q 156 0 203 0 l 121 0 q 74 51 68 0 l 86 126 q 138 172 90 172 z "},"\"":{"ha":494,"x_min":133,"x_max":481,"o":"m 225 658 l 133 658 l 168 958 l 276 958 l 225 658 m 431 658 l 338 658 l 372 958 l 481 958 l 431 658 z "},"#":{"ha":953,"x_min":39,"x_max":939,"o":"m 757 617 l 682 376 l 835 376 l 806 292 l 654 292 l 563 0 l 457 0 l 549 292 l 306 292 l 214 0 l 108 0 l 200 292 l 39 292 l 67 376 l 228 376 l 303 617 l 142 617 l 171 701 l 329 701 l 410 958 l 515 958 l 435 701 l 678 701 l 758 958 l 864 958 l 783 701 l 939 701 l 910 617 l 757 617 m 651 617 l 408 617 l 333 376 l 576 376 l 651 617 z "},"$":{"ha":785,"x_min":36,"x_max":753,"o":"m 753 944 l 738 844 q 531 850 604 850 l 461 536 l 535 510 q 674 410 640 472 q 693 238 708 349 q 594 33 672 83 q 333 -17 517 -17 l 331 -17 l 294 -174 l 231 -174 l 267 -15 q 36 11 138 -10 l 54 114 q 207 109 132 111 q 293 107 282 107 l 364 429 l 276 460 q 142 560 178 496 q 121 731 107 625 q 158 860 132 810 q 232 934 185 910 q 331 967 279 958 q 464 975 382 975 l 493 975 l 522 1108 l 586 1108 l 557 972 q 753 944 665 965 m 467 851 l 464 851 q 395 851 417 851 q 344 844 374 850 q 303 824 315 838 q 278 783 290 810 q 260 717 265 757 q 269 624 251 649 q 351 575 286 599 l 403 557 l 467 851 m 424 408 l 357 107 q 503 137 463 110 q 554 251 543 164 q 544 345 563 319 q 464 393 526 371 l 424 408 z "},"%":{"ha":1246,"x_min":99,"x_max":1167,"o":"m 354 976 q 527 910 483 976 q 549 686 571 843 q 469 469 526 532 q 290 407 413 407 q 121 474 164 407 q 99 697 78 540 q 177 914 121 851 q 354 976 233 976 m 310 0 l 206 0 l 953 958 l 1057 958 l 310 0 m 358 893 q 248 849 279 893 q 200 686 217 806 q 202 532 185 574 q 286 490 219 490 q 399 534 368 490 q 447 697 431 578 q 446 851 464 808 q 358 893 428 893 m 972 554 q 1145 488 1101 554 q 1167 265 1189 421 q 1088 49 1144 111 q 908 -14 1031 -14 q 739 53 782 -14 q 718 275 696 119 q 795 492 739 429 q 972 554 851 554 m 976 471 q 866 427 897 471 q 818 265 835 383 q 821 110 803 153 q 906 68 839 68 q 1017 112 986 68 q 1065 275 1049 156 q 1064 428 1082 386 q 976 471 1046 471 z "},"&":{"ha":1038,"x_min":58,"x_max":1004,"o":"m 989 443 l 849 443 q 765 193 828 293 q 331 -15 636 -14 q 106 45 169 -17 q 58 249 42 107 q 289 494 86 482 l 290 501 q 158 729 124 514 q 268 925 183 876 q 525 974 353 974 q 764 943 643 974 l 740 840 q 531 858 658 858 q 358 828 407 858 q 294 700 310 799 q 313 580 281 611 q 447 549 346 549 l 738 549 q 740 722 740 603 l 863 722 q 860 549 864 639 l 1004 549 l 989 443 m 726 443 l 433 443 q 272 405 322 443 q 206 263 222 367 q 222 139 192 172 q 346 106 251 106 q 653 244 554 106 q 726 443 707 319 z "},"'":{"ha":290,"x_min":133,"x_max":276,"o":"m 225 658 l 133 658 l 168 958 l 276 958 l 225 658 z "},"(":{"ha":496,"x_min":74,"x_max":549,"o":"m 533 1099 l 549 1033 q 321 822 404 968 q 204 429 238 675 q 210 48 171 196 q 374 -168 250 -100 l 356 -228 q 74 439 -1 -87 q 222 868 111 708 q 533 1099 333 1028 z "},")":{"ha":496,"x_min":-44,"x_max":432,"o":"m 131 1036 l 149 1096 q 401 861 331 1025 q 432 428 471 697 q 283 0 393 160 q -29 -231 172 -160 l -44 -165 q 301 440 233 -32 q 294 825 335 678 q 131 1036 254 972 z "},"*":{"ha":622,"x_min":117,"x_max":603,"o":"m 383 735 l 501 556 l 435 508 l 353 681 l 224 510 l 163 557 l 329 735 l 349 960 l 429 960 l 383 735 m 311 774 l 306 739 l 286 717 l 117 764 l 149 838 l 311 774 m 603 757 l 426 717 l 414 739 l 414 774 l 588 838 l 603 757 z "},"+":{"ha":760,"x_min":67,"x_max":694,"o":"m 681 365 l 425 365 l 392 124 l 289 124 l 324 365 l 67 365 l 82 465 l 336 465 l 371 708 l 474 708 l 439 465 l 694 465 l 681 365 z "},",":{"ha":321,"x_min":33,"x_max":193,"o":"m 111 172 l 150 172 q 193 121 201 172 l 181 32 q 99 -189 169 -65 l 33 -167 q 79 3 68 -58 q 47 13 58 1 q 39 46 36 25 l 50 126 q 68 163 56 154 q 111 172 81 172 z "},"-":{"ha":611,"x_min":81,"x_max":515,"o":"m 501 300 l 81 300 l 94 403 l 515 403 l 501 300 z "},".":{"ha":318,"x_min":39,"x_max":192,"o":"m 101 172 l 146 172 q 192 121 197 172 l 182 47 q 129 0 176 0 l 85 0 q 39 51 31 0 l 50 126 q 101 172 56 172 z "},"/":{"ha":735,"x_min":-32,"x_max":775,"o":"m 82 -93 l -32 -93 l 661 958 l 775 958 l 82 -93 z "},":":{"ha":335,"x_min":38,"x_max":251,"o":"m 163 614 l 207 614 q 251 563 260 614 l 242 489 q 190 442 236 442 l 146 442 q 99 493 93 442 l 110 568 q 163 614 115 614 m 100 172 l 144 172 q 190 121 196 172 l 179 47 q 128 0 175 0 l 83 0 q 38 51 29 0 l 49 126 q 100 172 54 172 z "},";":{"ha":340,"x_min":43,"x_max":263,"o":"m 172 614 l 217 614 q 263 563 268 614 l 251 489 q 200 442 247 442 l 156 442 q 110 493 101 442 l 121 568 q 172 614 125 614 m 121 172 l 161 172 q 204 121 213 172 l 192 32 q 110 -189 181 -65 l 43 -167 q 90 3 81 -47 q 58 13 69 1 q 50 46 47 25 l 61 126 q 78 163 67 154 q 121 172 90 172 z "},"<":{"ha":728,"x_min":61,"x_max":676,"o":"m 663 593 l 183 411 l 610 226 l 594 124 l 61 361 l 76 467 l 676 704 l 663 593 z "},"=":{"ha":813,"x_min":72,"x_max":740,"o":"m 726 504 l 113 504 l 126 604 l 740 604 l 726 504 m 686 211 l 72 211 l 86 311 l 700 311 l 686 211 z "},">":{"ha":729,"x_min":53,"x_max":669,"o":"m 669 467 l 654 361 l 53 125 l 68 238 l 546 421 l 121 604 l 135 707 l 669 467 z "},"?":{"ha":694,"x_min":119,"x_max":689,"o":"m 119 863 l 119 960 q 164 967 129 961 q 208 975 199 974 q 249 981 218 976 q 300 985 279 985 q 355 988 321 986 q 429 989 389 989 q 636 933 568 989 q 689 768 704 878 q 650 663 682 711 q 577 579 618 615 q 494 505 536 543 q 417 413 451 467 q 371 293 383 358 l 257 293 q 296 422 265 363 q 365 523 326 482 q 442 600 404 564 q 510 675 481 636 q 544 754 539 714 q 522 850 554 825 q 399 875 489 875 q 119 863 261 875 m 276 172 l 311 172 q 356 121 364 172 l 346 47 q 294 0 340 0 l 260 0 q 213 51 207 0 l 225 126 q 276 172 229 172 z "},"@":{"ha":1081,"x_min":75,"x_max":1006,"o":"m 150 788 l 161 888 q 601 900 372 897 q 763 896 700 901 q 876 872 825 890 q 953 824 928 854 q 993 740 979 793 q 1005 615 1007 686 q 988 440 1003 544 q 930 161 965 257 q 838 27 894 65 q 682 -11 781 -11 q 518 125 532 -11 q 253 -17 404 -17 q 90 62 135 -17 q 75 319 46 140 q 119 482 92 419 q 190 576 146 544 q 281 619 233 608 q 403 629 328 629 q 715 593 518 629 l 650 167 q 693 103 642 103 q 802 176 769 103 q 861 451 835 249 q 873 541 868 504 q 878 613 878 578 q 878 669 879 647 q 869 712 878 692 q 853 743 860 732 q 824 764 846 754 q 788 778 803 774 q 737 785 772 782 q 674 788 701 788 q 597 788 647 788 l 150 788 m 528 246 l 572 518 q 449 521 450 521 q 338 515 376 521 q 272 483 300 508 q 231 421 243 458 q 206 310 218 383 q 201 138 185 179 q 282 97 217 97 q 400 132 344 97 q 528 246 456 167 z "},"A":{"ha":865,"x_min":-44,"x_max":801,"o":"m 614 289 l 231 289 l 103 0 l -44 0 l 386 924 q 440 958 400 958 l 582 958 q 613 947 600 958 q 628 918 626 935 l 801 0 l 663 0 l 614 289 m 594 411 l 535 771 q 524 854 529 799 l 482 854 l 446 771 l 285 411 l 594 411 z "},"B":{"ha":861,"x_min":58,"x_max":799,"o":"m 58 0 l 193 958 q 507 969 306 969 q 751 914 683 969 q 799 714 819 858 q 739 558 783 610 q 607 499 694 507 l 606 492 q 761 233 797 476 q 667 39 739 89 q 428 -11 594 -11 q 58 0 185 -11 m 272 550 l 464 550 q 608 583 564 550 q 665 708 651 617 q 643 824 678 796 q 500 851 608 851 l 314 851 l 272 550 m 210 108 l 407 107 q 567 140 521 107 q 626 268 613 172 q 605 406 640 371 q 457 443 569 442 l 257 443 l 210 108 z "},"C":{"ha":789,"x_min":92,"x_max":797,"o":"m 686 122 l 693 15 q 407 -17 578 -17 q 126 102 200 -17 q 92 485 53 221 q 226 866 129 757 q 532 975 324 975 q 797 946 681 975 l 775 840 q 529 851 665 851 q 383 821 436 851 q 293 708 329 790 q 236 474 257 626 q 243 187 206 265 q 410 107 281 108 q 686 122 565 106 z "},"D":{"ha":921,"x_min":58,"x_max":850,"o":"m 58 0 l 193 958 q 506 971 363 971 q 811 861 733 971 q 850 474 889 751 q 815 290 835 367 q 765 160 794 214 q 700 72 735 106 q 614 19 665 39 q 508 -6 563 0 q 376 -12 454 -12 q 58 0 243 -12 m 317 849 l 213 111 q 375 108 332 108 q 547 136 488 108 q 644 243 607 164 q 706 485 682 322 q 721 641 719 579 q 712 746 722 703 q 674 810 701 789 q 606 841 646 832 q 503 850 567 850 q 419 849 486 850 q 317 849 353 849 z "},"E":{"ha":778,"x_min":78,"x_max":783,"o":"m 765 842 l 388 842 q 322 822 343 842 q 294 751 300 801 l 268 557 l 672 557 l 658 450 l 253 450 l 219 203 q 230 136 214 156 q 292 117 246 117 l 663 117 l 660 8 q 275 -3 540 -3 q 115 51 164 -3 q 78 199 65 104 l 160 792 q 225 917 171 872 q 371 961 279 961 q 783 950 658 961 l 765 842 z "},"F":{"ha":749,"x_min":56,"x_max":776,"o":"m 756 842 l 404 842 q 329 823 351 842 q 300 751 307 804 l 269 540 l 663 540 l 647 433 l 256 433 l 194 0 l 56 0 l 164 785 q 376 961 192 961 q 776 949 656 961 l 756 842 z "},"G":{"ha":867,"x_min":90,"x_max":826,"o":"m 826 946 l 806 842 q 568 853 689 853 q 430 839 482 853 q 337 783 378 825 q 274 667 296 740 q 236 474 251 594 q 242 186 213 268 q 372 104 272 104 q 493 136 439 104 q 622 242 547 168 l 667 556 l 800 556 l 722 0 l 622 0 l 622 129 q 324 -18 497 -18 q 120 103 178 -18 q 90 485 63 224 q 147 733 110 635 q 244 883 183 831 q 376 956 304 936 q 551 976 449 976 q 826 946 708 976 z "},"H":{"ha":928,"x_min":58,"x_max":890,"o":"m 890 958 l 756 0 l 617 0 l 681 450 l 261 450 l 199 0 l 58 0 l 193 958 l 333 958 l 278 571 l 697 571 l 751 958 l 890 958 z "},"I":{"ha":371,"x_min":58,"x_max":333,"o":"m 199 0 l 58 0 l 193 958 l 333 958 l 199 0 z "},"J":{"ha":475,"x_min":-14,"x_max":442,"o":"m 442 958 l 336 207 q 266 42 321 99 q 124 -12 211 -14 q -14 7 39 -12 l 13 106 l 76 106 q 197 206 182 106 l 301 958 l 442 958 z "},"K":{"ha":832,"x_min":58,"x_max":871,"o":"m 478 500 l 476 494 q 525 418 503 461 l 754 0 l 597 0 l 358 443 l 250 443 q 244 342 250 386 l 197 0 l 58 0 l 193 958 l 332 958 l 289 663 q 268 556 283 610 l 371 556 l 703 958 l 871 958 l 546 564 q 478 500 514 525 z "},"L":{"ha":710,"x_min":86,"x_max":638,"o":"m 329 958 l 224 203 q 296 117 213 117 l 638 117 l 635 8 q 267 -3 515 -3 q 121 51 169 -3 q 86 207 72 104 l 189 958 l 329 958 z "},"M":{"ha":1222,"x_min":40,"x_max":1156,"o":"m 951 958 l 1103 958 q 1144 942 1131 958 q 1156 899 1158 926 l 1068 0 l 931 0 l 1018 843 l 992 843 l 701 158 q 638 114 683 114 l 517 114 q 461 164 468 114 l 354 843 l 326 843 l 179 0 l 40 0 l 204 904 q 265 958 213 958 l 414 958 q 465 908 458 958 l 556 347 q 571 217 561 315 l 596 217 q 626 290 607 244 q 647 344 644 336 l 888 913 q 951 958 906 957 z "},"N":{"ha":981,"x_min":58,"x_max":943,"o":"m 943 958 l 815 51 q 760 0 807 0 l 639 0 q 585 46 600 0 l 361 699 q 324 829 335 774 l 303 829 q 292 699 301 771 l 197 0 l 58 0 l 185 907 q 243 958 193 958 l 361 958 q 417 913 399 958 l 632 278 q 676 133 675 140 l 700 133 q 714 278 704 213 l 806 958 l 943 958 z "},"O":{"ha":926,"x_min":92,"x_max":856,"o":"m 538 976 q 818 862 742 976 q 856 474 894 747 q 720 90 818 197 q 415 -18 622 -18 q 133 95 211 -18 q 92 485 54 208 q 226 867 128 757 q 538 976 325 976 m 531 853 q 330 773 392 853 q 236 474 268 693 q 245 184 207 263 q 418 106 283 106 q 617 187 554 106 q 711 485 681 268 q 703 776 742 700 q 531 853 665 853 z "},"P":{"ha":819,"x_min":58,"x_max":799,"o":"m 58 0 l 193 958 q 522 971 313 971 q 758 900 693 971 q 799 663 822 829 q 761 510 785 568 q 695 420 738 453 q 597 376 653 388 q 454 364 542 364 q 250 378 369 364 l 197 0 l 58 0 m 265 483 l 449 483 q 601 522 558 483 q 661 674 644 561 q 644 815 676 779 q 517 851 613 851 q 317 850 371 851 l 265 483 z "},"Q":{"ha":926,"x_min":92,"x_max":856,"o":"m 538 976 q 818 862 742 976 q 856 474 894 747 q 720 90 818 197 q 415 -18 622 -18 q 133 95 211 -18 q 92 485 54 208 q 226 867 128 757 q 538 976 325 976 m 531 853 q 330 773 392 853 q 236 474 268 693 q 245 184 207 263 q 418 106 283 106 q 617 187 554 106 q 711 485 681 268 q 703 776 742 700 q 531 853 665 853 m 282 -142 l 335 -58 q 704 -165 493 -132 l 649 -303 q 282 -142 449 -254 z "},"R":{"ha":863,"x_min":58,"x_max":806,"o":"m 58 0 l 193 958 q 522 971 313 971 q 753 908 681 971 q 806 688 826 844 q 740 519 790 578 q 592 449 690 461 l 590 440 q 694 300 674 417 l 756 0 l 614 0 l 557 301 q 524 374 547 353 q 454 394 500 394 l 250 396 l 194 0 l 58 0 m 267 514 l 458 514 q 606 553 560 515 q 665 690 651 590 q 648 817 679 783 q 518 851 617 851 q 314 850 368 851 l 267 514 z "},"S":{"ha":781,"x_min":33,"x_max":749,"o":"m 461 393 l 274 460 q 139 561 175 496 q 118 731 103 626 q 156 860 129 810 q 228 934 182 910 q 327 967 275 958 q 461 975 379 975 q 749 944 628 975 l 733 844 q 461 851 590 851 q 392 851 414 851 q 342 844 371 850 q 299 824 313 838 q 274 783 286 810 q 257 717 263 757 q 266 624 249 649 q 349 575 283 599 l 532 510 q 672 410 638 472 q 690 238 706 349 q 591 34 669 85 q 329 -17 513 -17 q 33 11 178 -17 l 51 114 q 328 107 268 107 q 494 134 450 108 q 551 251 539 160 q 542 345 560 319 q 461 393 524 371 z "},"T":{"ha":800,"x_min":88,"x_max":850,"o":"m 833 835 l 529 835 l 411 0 l 272 0 l 390 835 l 88 835 l 106 958 l 850 958 l 833 835 z "},"U":{"ha":922,"x_min":104,"x_max":892,"o":"m 892 958 l 807 367 q 688 69 778 157 q 415 -18 597 -18 q 151 74 228 -18 q 104 374 75 165 l 185 958 l 325 958 l 242 367 q 258 163 221 219 q 411 106 294 106 q 590 165 532 106 q 669 374 649 225 l 751 958 l 892 958 z "},"V":{"ha":846,"x_min":93,"x_max":903,"o":"m 903 958 l 486 36 q 433 0 471 0 l 299 0 q 268 13 281 0 q 253 42 256 25 l 93 958 l 233 958 l 346 210 q 358 104 358 108 l 394 104 q 436 215 414 164 l 756 958 l 903 958 z "},"W":{"ha":1314,"x_min":115,"x_max":1351,"o":"m 1351 958 l 1038 38 q 981 0 1022 0 l 829 0 q 796 13 810 0 q 781 44 782 25 l 738 749 q 733 802 736 767 q 731 856 731 838 l 701 856 l 667 743 l 431 39 q 375 0 418 0 l 225 0 q 190 13 204 0 q 174 43 175 25 l 115 958 l 257 958 l 290 225 q 292 165 292 206 q 293 103 293 124 l 325 103 q 365 231 331 122 l 596 915 q 653 958 610 958 l 799 958 q 831 944 818 958 q 846 910 844 931 l 896 224 q 900 103 901 143 l 933 103 q 971 228 949 156 l 1206 958 l 1351 958 z "},"X":{"ha":851,"x_min":-29,"x_max":883,"o":"m 571 496 l 765 0 l 624 0 l 456 444 l 421 444 l 132 0 l -29 0 l 307 496 l 128 958 l 269 958 l 421 550 l 457 550 l 731 958 l 883 958 l 571 496 z "},"Y":{"ha":793,"x_min":88,"x_max":857,"o":"m 451 331 l 406 0 l 265 0 l 314 338 l 88 958 l 228 958 l 365 563 q 390 451 385 501 l 403 451 q 458 567 421 508 l 706 958 l 857 958 l 451 331 z "},"Z":{"ha":783,"x_min":7,"x_max":790,"o":"m 790 958 l 772 840 l 176 118 l 682 118 l 665 0 l 7 0 l 24 118 l 619 840 l 132 840 l 150 958 l 790 958 z "},"[":{"ha":456,"x_min":42,"x_max":496,"o":"m 483 979 l 353 979 q 335 972 343 979 q 324 954 326 964 l 172 -122 q 188 -142 169 -142 l 326 -142 l 314 -229 l 114 -229 q 57 -208 78 -229 q 42 -146 36 -187 l 201 989 q 231 1046 207 1025 q 290 1067 254 1067 l 496 1067 l 483 979 z "},"\\":{"ha":713,"x_min":108,"x_max":613,"o":"m 613 -93 l 510 -93 l 108 958 l 211 958 l 613 -93 z "},"]":{"ha":456,"x_min":-37,"x_max":417,"o":"m 144 1067 l 343 1067 q 401 1042 379 1067 q 417 983 422 1018 l 257 -151 q 227 -208 251 -187 q 168 -229 203 -229 l -37 -229 l -25 -142 l 104 -142 q 123 -134 114 -142 q 135 -117 132 -126 l 286 960 q 271 979 289 979 l 132 979 l 144 1067 z "},"^":{"ha":600,"x_min":71,"x_max":589,"o":"m 589 544 l 532 513 l 371 751 l 360 751 l 122 513 l 71 544 l 321 840 l 419 840 l 589 544 z "},"_":{"ha":801,"x_min":25,"x_max":650,"o":"m 635 -101 l 25 -101 l 40 0 l 650 0 l 635 -101 z "},"`":{"ha":446,"x_min":100,"x_max":418,"o":"m 418 804 l 371 743 l 100 913 l 172 1008 l 418 804 z "},"a":{"ha":797,"x_min":65,"x_max":733,"o":"m 639 0 l 533 0 l 539 125 q 247 -17 417 -17 q 81 64 124 -17 q 65 347 38 144 q 108 531 81 460 q 182 638 136 603 q 276 684 228 672 q 401 696 325 696 q 733 660 567 696 l 639 0 m 538 244 l 586 581 q 443 583 458 583 q 333 576 371 583 q 267 541 296 569 q 226 468 239 513 q 200 338 213 424 q 195 143 181 186 q 275 100 210 100 q 400 135 339 100 q 538 244 461 171 z "},"b":{"ha":799,"x_min":47,"x_max":718,"o":"m 313 972 l 275 692 q 239 536 263 600 q 385 649 306 603 q 533 694 465 694 q 657 665 614 694 q 718 553 700 635 q 713 331 736 472 q 669 145 697 217 q 597 39 642 74 q 507 -7 553 4 q 389 -18 461 -18 q 47 32 219 -18 l 179 972 l 313 972 m 236 431 l 190 97 q 339 93 290 93 q 513 135 471 93 q 576 340 554 178 q 581 535 596 492 q 501 578 565 578 q 236 431 403 578 z "},"c":{"ha":675,"x_min":61,"x_max":649,"o":"m 569 111 l 579 19 q 340 -17 475 -17 q 97 67 161 -17 q 61 344 33 150 q 169 617 88 539 q 426 696 251 696 q 649 660 563 696 l 628 576 q 447 582 544 582 q 272 533 325 582 q 200 335 218 483 q 216 141 182 186 q 365 96 250 96 q 569 111 483 96 z "},"d":{"ha":797,"x_min":65,"x_max":775,"o":"m 775 972 l 639 0 l 533 0 l 540 142 q 233 -17 396 -17 q 82 66 126 -17 q 65 347 38 149 q 109 531 82 460 q 180 638 136 603 q 269 684 224 672 q 386 696 315 696 q 607 678 490 696 q 617 807 607 725 l 640 972 l 775 972 m 539 247 l 585 582 q 439 585 522 585 q 333 578 369 585 q 267 543 296 571 q 226 469 239 515 q 201 338 214 424 q 196 147 182 193 q 272 100 210 100 q 394 134 335 100 q 539 247 454 168 z "},"e":{"ha":749,"x_min":63,"x_max":694,"o":"m 615 113 l 624 22 q 344 -17 525 -17 q 104 74 171 -17 q 63 357 38 165 q 170 624 89 553 q 438 696 251 696 q 653 640 596 696 q 694 476 710 585 q 617 334 678 378 q 429 281 556 290 l 194 260 q 235 130 193 164 q 365 96 276 96 q 615 113 460 96 m 203 360 l 429 381 q 522 408 493 385 q 560 488 551 431 q 538 568 568 553 q 417 583 508 583 q 267 540 311 583 q 203 360 224 496 z "},"f":{"ha":531,"x_min":-164,"x_max":633,"o":"m 611 886 l 478 886 q 384 865 413 886 q 346 778 356 843 l 331 678 l 540 678 l 526 574 l 317 574 l 225 -78 q 4 -276 197 -276 q -164 -265 -71 -276 l -143 -165 l -39 -165 q 54 -144 26 -165 q 92 -57 82 -122 l 181 574 l 60 574 l 72 671 l 196 678 l 213 799 q 435 996 240 996 q 633 986 569 996 l 611 886 z "},"g":{"ha":800,"x_min":18,"x_max":736,"o":"m 736 660 l 644 17 q 243 -290 608 -286 q 18 -264 101 -290 l 32 -175 q 247 -176 142 -178 q 508 -11 476 -174 q 567 158 532 107 q 426 32 510 81 q 243 -17 342 -17 q 83 64 129 -17 q 67 347 38 144 q 111 533 83 461 q 183 639 139 604 q 273 685 228 674 q 389 696 318 696 q 733 660 567 696 l 736 660 m 540 244 l 589 581 q 442 583 461 583 q 267 541 310 583 q 203 338 225 499 q 198 144 183 189 q 276 100 213 100 q 403 135 342 100 q 540 244 464 169 z "},"h":{"ha":806,"x_min":44,"x_max":722,"o":"m 315 972 l 281 706 q 247 539 267 613 q 561 696 425 696 q 692 647 647 696 q 722 506 736 597 l 650 0 l 517 0 l 582 472 q 577 559 590 536 q 519 582 564 582 q 401 547 463 582 q 239 433 339 513 l 179 0 l 44 0 l 182 972 l 315 972 z "},"i":{"ha":349,"x_min":51,"x_max":318,"o":"m 218 967 l 282 967 q 311 956 301 967 q 318 925 321 944 l 308 847 q 267 810 303 810 l 203 810 q 165 853 161 810 l 178 931 q 218 967 181 967 m 185 0 l 51 0 l 146 678 l 279 678 l 185 0 z "},"j":{"ha":349,"x_min":-61,"x_max":318,"o":"m 218 967 l 282 967 q 311 956 301 967 q 318 925 321 944 l 308 847 q 267 810 303 810 l 203 810 q 165 853 161 810 l 178 931 q 218 967 181 967 m 279 678 l 182 -11 q 127 -166 172 -94 q 13 -282 82 -237 l -61 -219 q 49 -4 32 -125 l 146 678 l 279 678 z "},"k":{"ha":732,"x_min":46,"x_max":701,"o":"m 564 678 l 701 678 q 476 376 643 496 q 518 296 497 344 l 650 0 l 506 0 l 375 313 q 214 235 313 279 l 179 0 l 46 0 l 182 972 l 317 972 l 256 517 q 211 350 243 433 q 440 497 343 413 q 564 678 536 581 z "},"l":{"ha":414,"x_min":69,"x_max":350,"o":"m 317 972 l 207 193 q 217 128 200 147 q 281 110 233 110 l 344 110 l 350 4 q 221 -12 313 -12 q 99 35 140 -12 q 69 168 58 82 l 183 972 l 317 972 z "},"m":{"ha":1211,"x_min":44,"x_max":1128,"o":"m 243 678 l 236 533 q 529 696 397 696 q 649 656 607 696 q 689 543 690 615 q 835 660 768 624 q 969 696 901 696 q 1099 645 1058 696 q 1128 506 1140 594 l 1057 0 l 922 0 l 989 472 q 979 558 997 533 q 917 582 961 582 q 819 551 868 582 q 676 431 769 519 l 615 0 l 486 0 l 551 472 q 544 556 560 531 q 479 582 529 582 q 381 551 429 582 q 239 435 332 521 l 178 0 l 44 0 l 140 678 l 243 678 z "},"n":{"ha":806,"x_min":44,"x_max":722,"o":"m 247 678 l 240 532 q 561 696 424 696 q 692 647 647 696 q 722 506 736 597 l 650 0 l 517 0 l 582 472 q 577 559 590 536 q 519 582 564 582 q 401 547 463 582 q 239 433 339 513 l 179 0 l 44 0 l 140 678 l 247 678 z "},"o":{"ha":786,"x_min":61,"x_max":707,"o":"m 426 696 q 668 612 601 696 q 707 333 735 528 q 597 62 681 142 q 343 -18 514 -18 q 102 66 169 -18 q 61 343 35 150 q 170 615 88 535 q 426 696 253 696 m 426 582 q 270 531 319 582 q 200 333 221 479 q 210 144 181 193 q 343 94 240 94 q 500 148 451 94 q 568 343 549 201 q 559 533 589 483 q 426 582 529 582 z "},"p":{"ha":801,"x_min":6,"x_max":715,"o":"m 247 678 l 240 533 q 388 647 306 600 q 538 694 469 694 q 701 617 660 694 q 715 331 743 539 q 672 146 700 217 q 600 40 644 75 q 508 -7 556 4 q 388 -18 461 -18 q 174 0 292 -18 q 164 -129 174 -62 l 140 -278 l 6 -278 l 142 678 l 247 678 m 242 431 l 194 94 q 338 93 260 93 q 447 100 410 93 q 513 135 485 107 q 554 208 542 163 q 579 340 567 254 q 584 535 599 492 q 507 578 569 578 q 389 539 461 578 q 242 431 317 500 z "},"q":{"ha":793,"x_min":65,"x_max":729,"o":"m 729 646 l 596 -278 l 463 -278 l 501 -18 q 543 143 514 69 q 235 -17 397 -17 q 83 65 128 -17 q 65 347 38 146 q 108 531 81 460 q 179 638 136 603 q 268 684 222 672 q 382 696 314 696 q 729 646 563 696 m 539 247 l 585 581 q 435 585 489 585 q 348 579 381 585 q 288 560 315 574 q 247 518 261 547 q 222 447 232 489 q 201 338 211 406 q 196 146 182 192 q 275 100 210 100 q 394 133 338 100 q 539 247 451 167 z "},"r":{"ha":557,"x_min":44,"x_max":578,"o":"m 578 696 l 544 569 l 507 569 q 399 538 454 569 q 239 432 343 507 l 179 0 l 44 0 l 140 678 l 243 678 l 236 522 q 542 696 406 696 l 578 696 z "},"s":{"ha":706,"x_min":26,"x_max":657,"o":"m 393 253 l 211 336 q 103 417 135 372 q 81 533 71 463 q 160 663 92 626 q 367 696 228 699 q 657 672 524 693 l 640 576 q 371 583 464 582 q 248 574 279 583 q 211 524 217 564 q 224 472 207 489 q 292 433 242 456 l 475 350 q 589 270 558 311 q 610 154 619 229 q 586 77 604 108 q 544 28 568 46 q 477 0 519 10 q 394 -12 435 -10 q 289 -15 353 -15 q 184 -13 222 -15 q 99 -5 146 -11 q 26 4 53 1 l 42 104 q 254 97 119 97 q 426 111 382 97 q 478 167 471 125 q 479 181 479 174 q 478 192 479 188 q 474 202 478 197 q 469 210 471 207 q 461 218 467 214 q 451 225 456 222 q 439 232 447 228 q 426 238 431 236 q 410 245 421 240 q 393 253 400 250 z "},"t":{"ha":535,"x_min":56,"x_max":536,"o":"m 313 574 l 258 193 q 267 127 251 144 q 332 110 283 110 l 433 110 l 439 6 q 281 -12 378 -12 q 151 38 190 -12 q 124 181 111 88 l 179 574 l 56 574 l 68 671 l 194 678 l 224 876 l 356 876 l 328 678 l 536 678 l 522 574 l 313 574 z "},"u":{"ha":790,"x_min":65,"x_max":726,"o":"m 726 678 l 632 0 l 528 0 l 536 142 q 228 -18 371 -18 q 94 33 136 -18 q 65 171 53 83 l 136 678 l 271 678 l 203 206 q 211 122 194 146 q 275 97 228 97 q 386 131 332 97 q 535 247 440 164 l 593 678 l 726 678 z "},"v":{"ha":744,"x_min":58,"x_max":726,"o":"m 588 678 l 726 678 q 606 289 689 482 q 493 79 547 153 q 433 19 464 38 q 349 0 403 0 l 233 0 q 189 36 196 0 l 58 678 l 199 678 l 297 106 l 318 106 q 363 114 346 106 q 397 147 379 122 q 494 343 438 200 q 588 678 556 490 z "},"w":{"ha":1190,"x_min":58,"x_max":1172,"o":"m 289 106 l 308 106 q 376 158 349 106 q 444 343 408 218 q 504 644 476 460 q 542 678 508 678 l 689 678 q 722 647 718 678 l 785 106 l 801 106 q 858 150 831 106 q 951 343 914 236 q 1032 678 1004 488 l 1172 678 q 1054 289 1128 467 q 939 74 990 139 q 811 0 883 0 l 722 0 q 694 10 706 0 q 681 36 683 21 l 622 590 l 604 590 q 553 310 593 465 q 468 99 515 185 q 303 0 414 0 l 226 0 q 183 36 190 0 l 58 678 l 199 678 l 289 106 z "},"x":{"ha":738,"x_min":-31,"x_max":733,"o":"m 482 350 l 653 0 l 518 0 l 376 300 l 346 300 l 119 0 l -31 0 l 242 351 l 83 678 l 218 678 l 343 404 l 381 404 l 588 678 l 733 678 l 482 350 z "},"y":{"ha":757,"x_min":49,"x_max":738,"o":"m 597 678 l 738 678 q 542 118 663 347 q 327 -174 433 -87 q 74 -285 221 -260 l 49 -189 q 204 -126 138 -168 q 332 0 271 -85 l 269 0 q 215 17 238 0 q 188 65 193 35 l 57 678 l 199 678 l 301 129 q 329 106 306 106 l 397 106 q 413 134 403 115 q 425 158 422 153 q 597 678 547 413 z "},"z":{"ha":706,"x_min":8,"x_max":674,"o":"m 660 568 l 176 110 l 600 110 l 585 0 l 8 0 l 22 110 l 506 568 l 93 568 l 108 678 l 674 678 l 660 568 z "},"{":{"ha":447,"x_min":58,"x_max":479,"o":"m 479 1067 l 475 982 q 374 956 406 982 q 332 867 342 929 l 299 626 q 258 503 288 538 q 149 454 228 468 q 244 394 221 431 q 256 285 267 358 l 211 -36 q 223 -122 201 -99 q 314 -144 244 -144 l 308 -229 q 124 -190 181 -239 q 83 -40 68 -140 l 132 311 q 125 375 139 360 q 58 410 111 390 l 71 504 q 126 522 113 515 q 152 549 140 529 q 169 613 164 569 l 207 883 q 284 1032 221 986 q 479 1067 347 1078 z "},"|":{"ha":343,"x_min":33,"x_max":315,"o":"m 129 -235 l 33 -235 l 218 1085 l 315 1085 l 129 -235 z "},"}":{"ha":449,"x_min":-35,"x_max":403,"o":"m 142 982 l 146 1067 q 331 1027 276 1079 q 372 878 386 975 l 335 606 q 337 532 326 546 q 403 501 347 518 l 390 407 q 347 391 358 396 q 320 375 336 386 q 298 347 304 364 q 288 304 292 331 l 238 -46 q 162 -194 224 -149 q -35 -229 100 -240 l -29 -144 q 72 -119 40 -144 q 111 -31 103 -93 l 157 290 q 199 399 168 365 q 313 457 229 432 q 219 508 242 471 q 210 632 196 546 l 244 872 q 232 958 253 935 q 142 982 211 982 z "},"~":{"ha":722,"x_min":88,"x_max":631,"o":"m 157 310 l 88 315 q 124 447 89 403 q 213 488 160 490 q 360 449 265 485 q 486 408 456 413 q 540 422 524 404 q 564 483 557 440 l 631 478 q 596 349 631 393 q 508 310 561 306 q 353 349 447 313 q 233 388 260 385 q 179 374 196 392 q 157 310 163 356 z "}," ":{"ha":308,"x_min":0,"x_max":0,"o":""},"¡":{"ha":361,"x_min":19,"x_max":279,"o":"m 201 689 l 236 689 q 279 636 289 689 l 269 563 q 218 515 264 515 l 183 515 q 138 567 132 515 l 147 642 q 201 689 156 689 m 210 139 l 153 -269 l 19 -269 l 76 139 l 126 393 l 232 393 l 210 139 z "},"¢":{"ha":701,"x_min":81,"x_max":668,"o":"m 668 803 l 649 719 q 501 725 582 725 l 392 239 q 589 254 519 243 l 599 163 q 363 126 494 126 l 333 0 l 269 0 l 300 129 q 106 226 157 142 q 81 488 56 310 q 190 760 108 682 q 446 839 272 839 l 465 839 l 494 958 l 558 958 l 528 835 q 668 803 617 825 m 328 242 l 436 725 q 285 669 333 721 q 221 478 238 618 q 228 299 204 349 q 328 242 251 250 z "},"£":{"ha":792,"x_min":24,"x_max":768,"o":"m 768 961 l 751 850 q 513 854 647 854 q 392 825 429 854 q 350 717 356 796 l 338 546 l 622 546 l 607 465 l 331 465 l 324 368 q 285 215 315 272 q 188 111 254 158 q 281 119 217 119 l 685 119 l 668 0 l 24 0 l 40 119 q 188 372 171 178 l 194 465 l 86 465 l 97 546 l 201 546 l 217 725 q 245 855 224 804 q 307 931 267 906 q 393 966 347 957 q 510 975 439 975 q 768 961 625 975 z "},"¤":{"ha":826,"x_min":68,"x_max":779,"o":"m 779 746 l 671 650 q 697 483 710 579 q 629 317 685 385 l 725 211 l 663 154 l 568 263 q 394 215 493 215 q 231 267 297 215 l 124 171 l 68 235 l 176 332 q 150 494 140 399 q 221 664 165 597 l 128 769 l 190 828 l 285 719 q 451 764 354 764 q 617 714 551 764 l 724 810 l 779 746 m 396 292 q 547 346 488 290 q 617 496 607 401 q 581 635 626 583 q 450 688 536 688 q 300 633 358 688 q 231 483 242 578 q 265 344 221 396 q 396 292 310 292 z "},"¥":{"ha":858,"x_min":92,"x_max":889,"o":"m 560 453 l 742 453 l 731 374 l 508 374 l 483 336 l 478 296 l 719 296 l 708 217 l 467 217 l 438 0 l 297 0 l 328 217 l 92 217 l 101 296 l 339 296 l 346 343 l 335 374 l 114 374 l 124 453 l 306 453 l 118 958 l 260 958 l 396 568 q 422 457 417 511 l 435 457 q 490 572 453 514 l 736 958 l 889 958 l 560 453 z "},"¦":{"ha":344,"x_min":33,"x_max":315,"o":"m 238 529 l 140 529 l 218 1085 l 315 1085 l 238 529 m 131 -235 l 33 -235 l 111 321 l 208 321 l 131 -235 z "},"§":{"ha":757,"x_min":8,"x_max":739,"o":"m 465 444 l 250 579 q 154 669 183 621 q 138 799 125 717 q 222 940 153 904 q 433 976 290 976 q 739 960 611 974 l 722 854 q 469 863 629 861 q 328 850 369 864 q 279 785 288 836 q 290 717 272 743 q 344 668 307 692 l 550 543 q 656 408 640 488 q 625 214 671 328 l 528 214 q 536 355 549 301 q 465 444 524 408 m 122 528 l 219 528 q 210 392 199 442 q 281 306 222 342 l 497 171 q 592 83 563 132 q 611 -50 622 35 q 524 -195 594 -161 q 313 -229 454 -229 q 8 -212 135 -226 l 25 -107 q 279 -117 151 -115 q 353 -115 326 -117 q 408 -105 381 -112 q 450 -80 436 -97 q 468 -35 464 -62 q 458 33 475 7 q 403 83 442 60 l 201 204 q 93 335 110 257 q 122 528 76 413 z "},"¨":{"ha":574,"x_min":185,"x_max":547,"o":"m 474 968 l 514 968 q 543 960 536 968 q 547 931 550 951 l 535 856 q 496 819 533 819 l 451 819 q 418 854 414 819 l 429 931 q 474 968 435 968 m 240 968 l 281 968 q 310 960 303 968 q 315 931 318 951 l 303 856 q 263 819 299 819 l 218 819 q 185 854 181 819 l 197 931 q 240 968 203 968 z "},"©":{"ha":1153,"x_min":88,"x_max":1086,"o":"m 265 837 q 340 907 265 837 q 639 976 415 976 q 988 836 863 976 q 1086 474 1114 696 q 906 120 1058 258 q 531 -18 754 -18 q 183 124 306 -18 q 88 485 60 267 q 265 837 115 697 m 644 908 q 317 786 450 908 q 160 474 183 664 q 240 167 136 283 q 529 50 344 50 q 856 172 722 50 q 1014 485 990 294 q 935 789 1038 669 q 644 908 833 908 m 753 278 l 758 201 q 571 179 674 179 q 353 247 407 179 q 324 488 300 314 q 416 721 346 657 q 643 785 486 785 q 817 765 732 785 l 803 690 q 653 694 715 694 q 490 654 535 694 q 426 476 446 614 q 437 313 410 357 q 554 269 464 269 q 753 278 685 269 z "},"ª":{"ha":621,"x_min":107,"x_max":576,"o":"m 515 378 l 433 378 l 433 451 q 240 368 356 368 q 124 424 158 368 q 107 613 89 479 q 138 740 117 690 q 191 810 158 789 q 255 839 224 832 q 335 846 286 846 q 576 819 461 846 l 515 378 m 468 760 l 371 761 q 251 735 279 761 q 210 606 222 710 q 208 483 199 508 q 261 458 218 458 q 438 546 335 458 l 468 760 z "},"«":{"ha":669,"x_min":49,"x_max":622,"o":"m 364 590 l 158 349 l 306 97 l 239 53 l 49 340 l 51 371 l 310 639 l 364 590 m 622 590 l 417 349 l 564 97 l 497 53 l 307 340 l 310 371 l 568 639 l 622 590 z "},"¬":{"ha":814,"x_min":90,"x_max":718,"o":"m 718 464 l 679 185 l 576 185 l 601 363 l 90 363 l 104 464 l 718 464 z "},"­":{"ha":611,"x_min":79,"x_max":514,"o":"m 500 300 l 79 300 l 93 403 l 514 403 l 500 300 z "},"®":{"ha":764,"x_min":108,"x_max":725,"o":"m 444 975 q 660 892 579 975 q 725 661 742 810 q 622 438 711 519 q 394 357 532 357 q 172 444 250 357 q 108 672 93 532 q 215 893 124 811 q 444 975 306 975 m 682 672 q 627 865 692 796 q 443 933 563 933 q 242 860 318 933 q 154 667 167 786 q 208 469 142 539 q 394 399 275 399 q 594 472 518 399 q 682 672 671 546 m 254 492 l 303 844 q 456 849 353 849 q 556 828 522 849 q 582 740 590 807 q 560 684 578 704 q 501 654 542 664 l 500 651 q 535 600 521 643 l 561 492 l 497 492 l 472 601 q 426 636 463 636 l 335 636 l 315 492 l 254 492 m 342 681 l 426 681 q 495 694 475 682 q 521 744 515 706 q 510 791 525 781 q 451 801 496 801 l 358 800 l 342 681 z "},"¯":{"ha":556,"x_min":151,"x_max":558,"o":"m 544 842 l 151 842 l 165 940 l 558 940 l 544 842 z "},"°":{"ha":500,"x_min":124,"x_max":486,"o":"m 315 976 q 447 924 400 976 q 486 793 493 871 q 424 667 478 715 q 292 619 371 619 q 162 674 207 619 q 124 804 117 728 q 183 928 131 881 q 315 976 236 976 m 313 897 q 240 871 268 897 q 207 801 211 844 q 228 728 203 756 q 297 700 253 700 q 369 726 342 700 q 401 797 397 753 q 381 869 404 842 q 313 897 358 897 z "},"±":{"ha":810,"x_min":53,"x_max":732,"o":"m 732 551 l 718 451 l 463 451 l 436 269 l 335 269 l 360 451 l 104 451 l 118 551 l 374 551 l 399 733 l 503 733 l 476 551 l 732 551 m 67 190 l 682 190 l 668 90 l 53 90 l 67 190 z "},"²":{"ha":564,"x_min":94,"x_max":540,"o":"m 175 983 l 175 1065 q 364 1085 274 1085 q 501 1056 454 1085 q 540 951 549 1028 q 507 857 533 900 q 414 756 481 814 l 235 593 q 324 600 268 600 l 510 600 l 494 500 l 94 500 l 103 567 q 119 610 108 600 l 301 774 q 436 950 431 888 q 419 986 439 978 q 351 994 400 994 q 175 983 263 994 z "},"³":{"ha":542,"x_min":93,"x_max":525,"o":"m 178 990 l 178 1071 q 351 1086 282 1086 q 525 949 539 1086 q 495 850 521 896 q 422 801 469 804 l 422 799 q 504 656 524 781 q 269 489 478 494 q 93 504 200 488 l 104 585 q 162 583 126 585 q 213 580 197 581 q 264 581 229 579 q 403 676 386 589 q 390 740 411 718 q 314 761 369 761 l 201 761 l 211 842 l 319 842 q 400 864 378 842 q 428 931 422 886 q 414 983 432 971 q 328 996 396 996 q 178 990 267 996 z "},"´":{"ha":446,"x_min":140,"x_max":475,"o":"m 475 906 l 179 743 l 140 806 l 413 1010 l 475 906 z "},"¶":{"ha":818,"x_min":79,"x_max":765,"o":"m 632 0 l 531 0 l 654 885 q 533 889 589 889 l 368 -292 l 267 -292 l 347 279 q 119 380 183 296 q 79 633 56 464 q 211 899 106 824 q 544 975 317 975 q 765 951 672 975 l 632 0 z "},"·":{"ha":332,"x_min":82,"x_max":235,"o":"m 146 444 l 190 444 q 235 393 243 444 l 225 318 q 174 272 219 272 l 129 272 q 82 324 76 272 l 94 399 q 146 444 99 444 z "},"¸":{"ha":328,"x_min":-44,"x_max":215,"o":"m 46 -121 l 61 -58 q 191 -69 154 -50 q 215 -154 228 -89 q 129 -289 201 -243 q -44 -321 57 -335 l -19 -250 q 72 -225 32 -251 q 119 -154 111 -199 q 110 -128 124 -135 q 46 -121 97 -122 z "},"¹":{"ha":397,"x_min":128,"x_max":392,"o":"m 311 500 l 207 500 l 268 924 q 279 982 272 957 l 129 940 l 128 1018 l 288 1075 l 392 1075 l 311 500 z "},"º":{"ha":611,"x_min":103,"x_max":560,"o":"m 357 846 q 532 790 485 846 q 560 600 579 733 q 485 420 542 472 q 306 368 428 368 q 133 424 181 368 q 103 611 85 479 q 177 794 121 742 q 357 846 233 846 m 357 763 q 250 729 279 763 q 206 600 221 696 q 215 481 194 511 q 308 451 236 451 q 411 485 379 451 q 457 611 443 519 q 448 732 468 701 q 357 763 428 763 z "},"»":{"ha":672,"x_min":31,"x_max":604,"o":"m 31 97 l 238 339 l 89 590 l 156 635 l 346 347 l 343 317 l 85 49 l 31 97 m 289 97 l 494 339 l 347 590 l 414 635 l 604 347 l 601 317 l 343 49 l 289 97 z "},"¼":{"ha":1199,"x_min":114,"x_max":1124,"o":"m 200 383 l 260 810 q 272 868 265 846 l 115 826 l 114 900 l 282 958 l 386 958 l 306 383 l 200 383 m 975 958 l 228 0 l 131 0 l 878 958 l 975 958 m 1113 140 l 1039 132 l 1019 0 l 922 0 l 939 131 l 681 131 q 625 157 642 131 q 632 228 608 183 l 853 575 l 956 575 l 746 239 q 761 213 732 213 l 950 213 l 972 372 l 1004 464 l 1085 464 l 1050 213 l 1124 213 l 1113 140 z "},"½":{"ha":1225,"x_min":114,"x_max":1147,"o":"m 306 383 l 200 383 l 260 810 q 272 868 265 846 l 115 826 l 114 900 l 282 958 l 386 958 l 306 383 m 217 0 l 119 0 l 867 958 l 964 958 l 217 0 m 753 486 l 751 565 q 947 585 850 585 q 1111 556 1063 585 q 1147 444 1160 528 q 1013 253 1135 360 l 813 90 q 906 93 854 96 l 1121 93 l 1108 0 l 669 0 l 679 61 q 697 106 682 90 l 892 269 q 1033 444 1021 376 q 1017 486 1039 476 q 943 496 996 496 q 753 486 849 496 z "},"¾":{"ha":1331,"x_min":74,"x_max":1253,"o":"m 417 688 l 408 683 q 495 638 472 674 q 511 533 518 601 q 449 408 500 446 q 283 369 397 369 q 74 385 193 369 l 82 463 q 256 457 172 457 q 366 480 332 457 q 407 558 400 503 q 394 619 413 599 q 308 640 375 640 l 186 640 l 197 719 l 313 719 q 401 745 376 719 q 432 811 426 771 q 417 866 438 853 q 331 879 397 879 q 158 875 228 879 l 157 951 q 343 965 253 965 q 505 935 463 965 q 536 826 547 904 q 502 731 528 765 q 417 688 476 696 m 1117 958 l 369 0 l 272 0 l 1019 958 l 1117 958 m 1242 140 l 1167 132 l 1149 0 l 1050 0 l 1068 131 l 811 131 q 756 157 772 131 q 763 228 739 183 l 983 575 l 1086 575 l 876 239 q 892 213 863 213 l 1079 213 l 1100 372 l 1132 464 l 1214 464 l 1178 213 l 1253 213 l 1242 140 z "},"¿":{"ha":685,"x_min":-18,"x_max":550,"o":"m 378 696 l 411 696 q 458 644 464 696 l 447 569 q 394 522 442 522 l 361 522 q 317 575 308 522 l 326 650 q 378 696 333 696 m 300 399 l 413 399 q 374 269 404 328 q 305 169 343 210 q 228 94 267 129 q 161 19 190 58 q 125 -60 132 -19 q 149 -151 114 -122 q 271 -179 183 -179 q 550 -167 425 -179 l 550 -262 q 516 -269 540 -264 q 483 -275 492 -274 q 452 -280 474 -276 q 419 -285 431 -283 q 385 -288 407 -286 q 343 -291 363 -290 q 297 -292 324 -292 q 240 -293 271 -293 q 34 -233 100 -293 q -18 -72 -32 -172 q 21 32 -11 -17 q 94 117 53 81 q 178 192 136 154 q 254 283 219 231 q 300 399 289 336 z "},"À":{"ha":865,"x_min":-44,"x_max":801,"o":"m 553 1008 l 282 1178 l 354 1274 l 600 1069 l 553 1008 m 614 289 l 231 289 l 103 0 l -44 0 l 386 924 q 440 958 400 958 l 582 958 q 613 947 600 958 q 628 918 626 935 l 801 0 l 663 0 l 614 289 m 594 411 l 535 771 q 524 854 529 799 l 482 854 l 446 771 l 285 411 l 594 411 z "},"Á":{"ha":865,"x_min":-44,"x_max":801,"o":"m 474 1008 l 435 1071 l 707 1275 l 769 1171 l 474 1008 m 614 289 l 231 289 l 103 0 l -44 0 l 386 924 q 440 958 400 958 l 582 958 q 613 947 600 958 q 628 918 626 935 l 801 0 l 663 0 l 614 289 m 594 411 l 535 771 q 524 854 529 799 l 482 854 l 446 771 l 285 411 l 594 411 z "},"Â":{"ha":865,"x_min":-44,"x_max":801,"o":"m 338 1011 l 300 1069 l 506 1249 l 600 1249 l 774 1061 l 724 1008 l 557 1149 l 546 1149 l 338 1011 m 614 289 l 231 289 l 103 0 l -44 0 l 386 924 q 440 958 400 958 l 582 958 q 613 947 600 958 q 628 918 626 935 l 801 0 l 663 0 l 614 289 m 594 411 l 535 771 q 524 854 529 799 l 482 854 l 446 771 l 285 411 l 594 411 z "},"Ã":{"ha":865,"x_min":-44,"x_max":801,"o":"m 713 1221 l 774 1217 q 738 1094 772 1136 q 650 1056 704 1051 q 535 1094 596 1060 q 449 1132 474 1129 q 392 1117 410 1136 q 368 1057 374 1099 l 307 1063 q 344 1188 308 1146 q 432 1226 381 1231 q 538 1189 479 1222 q 631 1151 597 1156 q 688 1165 669 1147 q 713 1221 707 1182 m 614 289 l 231 289 l 103 0 l -44 0 l 386 924 q 440 958 400 958 l 582 958 q 613 947 600 958 q 628 918 626 935 l 801 0 l 663 0 l 614 289 m 594 411 l 535 771 q 524 854 529 799 l 482 854 l 446 771 l 285 411 l 594 411 z "},"Ä":{"ha":865,"x_min":-44,"x_max":801,"o":"m 438 1063 l 392 1063 q 358 1097 357 1063 l 371 1175 q 414 1213 378 1213 l 454 1213 q 489 1175 494 1213 l 476 1099 q 438 1063 472 1063 m 669 1063 l 625 1063 q 592 1097 588 1063 l 604 1175 q 647 1213 608 1213 l 688 1213 q 722 1175 726 1213 l 710 1099 q 669 1063 706 1063 m 614 289 l 231 289 l 103 0 l -44 0 l 386 924 q 440 958 400 958 l 582 958 q 613 947 600 958 q 628 918 626 935 l 801 0 l 663 0 l 614 289 m 594 411 l 535 771 q 524 854 529 799 l 482 854 l 446 771 l 285 411 l 594 411 z "},"Å":{"ha":865,"x_min":-44,"x_max":801,"o":"m 533 992 q 424 1035 464 992 q 392 1144 385 1078 q 440 1247 399 1206 q 547 1288 482 1288 q 658 1244 617 1288 q 692 1133 700 1201 q 642 1033 683 1074 q 533 992 600 992 m 464 1140 q 481 1080 460 1101 q 535 1058 501 1058 q 592 1082 569 1058 q 619 1142 615 1106 q 603 1199 622 1176 q 549 1221 583 1221 q 490 1198 514 1221 q 464 1140 467 1175 m 614 289 l 231 289 l 103 0 l -44 0 l 386 924 q 440 958 400 958 l 582 958 q 613 947 600 958 q 628 918 626 935 l 801 0 l 663 0 l 614 289 m 594 411 l 535 771 q 524 854 529 799 l 482 854 l 446 771 l 285 411 l 594 411 z "},"Æ":{"ha":1269,"x_min":-62,"x_max":1276,"o":"m 1257 842 l 906 842 q 804 750 818 842 l 778 558 l 1164 558 l 1150 449 l 763 449 l 729 204 q 739 136 722 156 q 801 117 756 117 l 1157 117 l 1150 8 q 776 -3 1008 -3 q 633 51 682 -3 q 597 199 583 104 l 611 299 l 296 299 l 86 0 l -62 0 l 511 804 q 648 928 575 896 q 857 960 721 960 q 1276 950 1129 960 l 1257 842 m 628 418 l 678 769 q 731 867 685 835 l 724 867 q 635 779 679 840 l 381 418 l 628 418 z "},"Ç":{"ha":789,"x_min":92,"x_max":797,"o":"m 686 122 l 693 15 q 407 -17 578 -17 q 126 102 200 -17 q 92 485 53 221 q 226 866 129 757 q 532 975 324 975 q 797 946 681 975 l 775 840 q 529 851 665 851 q 383 821 436 851 q 293 708 329 790 q 236 474 257 626 q 243 187 206 265 q 410 107 281 108 q 686 122 565 106 m 294 -137 l 311 -75 q 440 -86 403 -67 q 465 -171 476 -106 q 378 -306 451 -260 q 204 -337 306 -351 l 229 -267 q 322 -242 282 -268 q 369 -171 361 -215 q 359 -145 372 -151 q 294 -137 346 -139 z "},"È":{"ha":778,"x_min":78,"x_max":783,"o":"m 547 1036 l 276 1206 l 349 1301 l 594 1097 l 547 1036 m 765 842 l 388 842 q 322 822 343 842 q 294 751 300 801 l 268 557 l 672 557 l 658 450 l 253 450 l 219 203 q 230 136 214 156 q 292 117 246 117 l 663 117 l 660 8 q 275 -3 540 -3 q 115 51 164 -3 q 78 199 65 104 l 160 792 q 225 917 171 872 q 371 961 279 961 q 783 950 658 961 l 765 842 z "},"É":{"ha":778,"x_min":78,"x_max":783,"o":"m 468 1036 l 429 1099 l 701 1303 l 764 1199 l 468 1036 m 765 842 l 388 842 q 322 822 343 842 q 294 751 300 801 l 268 557 l 672 557 l 658 450 l 253 450 l 219 203 q 230 136 214 156 q 292 117 246 117 l 663 117 l 660 8 q 275 -3 540 -3 q 115 51 164 -3 q 78 199 65 104 l 160 792 q 225 917 171 872 q 371 961 279 961 q 783 950 658 961 l 765 842 z "},"Ê":{"ha":778,"x_min":78,"x_max":783,"o":"m 332 1039 l 294 1097 l 499 1276 l 594 1276 l 767 1089 l 718 1036 l 551 1176 l 540 1176 l 332 1039 m 765 842 l 388 842 q 322 822 343 842 q 294 751 300 801 l 268 557 l 672 557 l 658 450 l 253 450 l 219 203 q 230 136 214 156 q 292 117 246 117 l 663 117 l 660 8 q 275 -3 540 -3 q 115 51 164 -3 q 78 199 65 104 l 160 792 q 225 917 171 872 q 371 961 279 961 q 783 950 658 961 l 765 842 z "},"Ë":{"ha":778,"x_min":78,"x_max":783,"o":"m 432 1090 l 386 1090 q 353 1125 349 1090 l 365 1203 q 408 1239 371 1239 l 449 1239 q 478 1231 471 1239 q 483 1203 486 1222 l 471 1126 q 432 1090 467 1090 m 664 1090 l 619 1090 q 586 1125 582 1090 l 599 1203 q 642 1239 603 1239 l 682 1239 q 711 1231 704 1239 q 715 1203 718 1222 l 704 1126 q 664 1090 700 1090 m 765 842 l 388 842 q 322 822 343 842 q 294 751 300 801 l 268 557 l 672 557 l 658 450 l 253 450 l 219 203 q 230 136 214 156 q 292 117 246 117 l 663 117 l 660 8 q 275 -3 540 -3 q 115 51 164 -3 q 78 199 65 104 l 160 792 q 225 917 171 872 q 371 961 279 961 q 783 950 658 961 l 765 842 z "},"Ì":{"ha":371,"x_min":29,"x_max":347,"o":"m 347 1069 l 300 1008 l 29 1178 l 101 1274 l 347 1069 m 199 0 l 58 0 l 193 958 l 333 958 l 199 0 z "},"Í":{"ha":371,"x_min":58,"x_max":518,"o":"m 518 1171 l 222 1008 l 182 1071 l 454 1275 l 518 1171 m 199 0 l 58 0 l 193 958 l 333 958 l 199 0 z "},"Î":{"ha":371,"x_min":47,"x_max":521,"o":"m 521 1061 l 471 1008 l 304 1149 l 293 1149 l 86 1011 l 47 1069 l 253 1249 l 347 1249 l 521 1061 m 199 0 l 58 0 l 193 958 l 333 958 l 199 0 z "},"Ï":{"ha":371,"x_min":58,"x_max":469,"o":"m 163 1213 l 203 1213 q 232 1203 225 1213 q 236 1175 239 1194 l 224 1099 q 185 1063 222 1063 l 140 1063 q 107 1097 103 1063 l 119 1175 q 163 1213 124 1213 m 394 1213 l 435 1213 q 469 1175 475 1213 l 457 1099 q 417 1063 453 1063 l 372 1063 q 339 1097 335 1063 l 351 1175 q 394 1213 358 1213 m 199 0 l 58 0 l 193 958 l 333 958 l 199 0 z "},"Ð":{"ha":921,"x_min":38,"x_max":850,"o":"m 135 546 l 193 958 q 506 971 363 971 q 811 861 733 971 q 850 474 889 751 q 815 290 835 367 q 765 160 794 214 q 700 72 735 106 q 614 19 665 39 q 508 -6 563 0 q 376 -12 454 -12 q 58 0 243 -12 l 125 469 l 38 469 l 47 546 l 135 546 m 263 469 l 213 111 q 375 108 332 108 q 547 136 488 108 q 644 243 607 164 q 706 485 682 322 q 721 641 719 579 q 712 746 722 703 q 674 810 701 789 q 606 841 646 832 q 503 850 567 850 q 419 849 486 850 q 317 849 353 849 l 274 546 l 481 546 l 471 469 l 263 469 z "},"Ñ":{"ha":981,"x_min":58,"x_max":943,"o":"m 431 1057 l 369 1063 q 407 1188 371 1146 q 494 1226 443 1231 q 601 1189 542 1222 q 693 1151 660 1156 q 751 1165 732 1147 q 775 1221 769 1182 l 836 1217 q 801 1094 835 1136 q 713 1056 767 1051 q 597 1094 658 1060 q 511 1132 536 1129 q 454 1117 472 1136 q 431 1057 436 1099 m 943 958 l 815 51 q 760 0 807 0 l 639 0 q 585 46 600 0 l 361 699 q 324 829 335 774 l 303 829 q 292 699 301 771 l 197 0 l 58 0 l 185 907 q 243 958 193 958 l 361 958 q 417 913 399 958 l 632 278 q 676 133 675 140 l 700 133 q 714 278 704 213 l 806 958 l 943 958 z "},"Ò":{"ha":926,"x_min":92,"x_max":856,"o":"m 625 1069 l 578 1008 l 307 1178 l 379 1274 l 625 1069 m 538 976 q 818 862 742 976 q 856 474 894 747 q 720 90 818 197 q 415 -18 622 -18 q 133 95 211 -18 q 92 485 54 208 q 226 867 128 757 q 538 976 325 976 m 531 853 q 330 773 392 853 q 236 474 268 693 q 245 184 207 263 q 418 106 283 106 q 617 187 554 106 q 711 485 681 268 q 703 776 742 700 q 531 853 665 853 z "},"Ó":{"ha":926,"x_min":92,"x_max":856,"o":"m 796 1171 l 500 1008 l 460 1071 l 732 1275 l 796 1171 m 538 976 q 818 862 742 976 q 856 474 894 747 q 720 90 818 197 q 415 -18 622 -18 q 133 95 211 -18 q 92 485 54 208 q 226 867 128 757 q 538 976 325 976 m 531 853 q 330 773 392 853 q 236 474 268 693 q 245 184 207 263 q 418 106 283 106 q 617 187 554 106 q 711 485 681 268 q 703 776 742 700 q 531 853 665 853 z "},"Ô":{"ha":926,"x_min":92,"x_max":856,"o":"m 799 1061 l 749 1008 l 582 1149 l 571 1149 l 364 1011 l 325 1069 l 531 1249 l 625 1249 l 799 1061 m 538 976 q 818 862 742 976 q 856 474 894 747 q 720 90 818 197 q 415 -18 622 -18 q 133 95 211 -18 q 92 485 54 208 q 226 867 128 757 q 538 976 325 976 m 531 853 q 330 773 392 853 q 236 474 268 693 q 245 184 207 263 q 418 106 283 106 q 617 187 554 106 q 711 485 681 268 q 703 776 742 700 q 531 853 665 853 z "},"Õ":{"ha":926,"x_min":92,"x_max":856,"o":"m 393 1057 l 332 1063 q 370 1188 335 1146 q 457 1226 406 1231 q 565 1189 506 1222 q 656 1151 624 1156 q 715 1165 696 1147 q 739 1221 733 1182 l 800 1217 q 764 1094 799 1136 q 675 1056 729 1051 q 560 1094 621 1060 q 475 1132 499 1129 q 417 1117 436 1136 q 393 1057 399 1099 m 538 976 q 818 862 742 976 q 856 474 894 747 q 720 90 818 197 q 415 -18 622 -18 q 133 95 211 -18 q 92 485 54 208 q 226 867 128 757 q 538 976 325 976 m 531 853 q 330 773 392 853 q 236 474 268 693 q 245 184 207 263 q 418 106 283 106 q 617 187 554 106 q 711 485 681 268 q 703 776 742 700 q 531 853 665 853 z "},"Ö":{"ha":926,"x_min":92,"x_max":856,"o":"m 672 1213 l 713 1213 q 747 1175 753 1213 l 735 1099 q 694 1063 731 1063 l 650 1063 q 617 1097 613 1063 l 629 1175 q 672 1213 636 1213 m 440 1213 l 481 1213 q 510 1203 503 1213 q 514 1175 517 1194 l 503 1099 q 463 1063 499 1063 l 418 1063 q 385 1097 381 1063 l 397 1175 q 440 1213 401 1213 m 538 976 q 818 862 742 976 q 856 474 894 747 q 720 90 818 197 q 415 -18 622 -18 q 133 95 211 -18 q 92 485 54 208 q 226 867 128 757 q 538 976 325 976 m 531 853 q 330 773 392 853 q 236 474 268 693 q 245 184 207 263 q 418 106 283 106 q 617 187 554 106 q 711 485 681 268 q 703 776 742 700 q 531 853 665 853 z "},"×":{"ha":728,"x_min":56,"x_max":676,"o":"m 440 393 l 613 214 l 540 140 l 358 329 l 115 136 l 56 222 l 285 404 l 110 586 l 185 660 l 367 469 l 617 668 l 676 582 l 440 393 z "},"Ø":{"ha":926,"x_min":92,"x_max":856,"o":"m 840 1011 l 778 908 q 856 474 901 799 q 720 90 818 197 q 415 -18 622 -18 q 233 13 304 -18 l 174 -85 l 111 -47 l 171 51 q 92 485 46 160 q 226 867 128 757 q 538 976 325 976 q 714 947 643 976 l 776 1049 l 840 1011 m 249 179 l 646 833 q 531 853 606 853 q 330 773 392 853 q 236 474 268 693 q 249 179 204 256 m 701 782 l 303 126 q 418 106 347 106 q 617 187 554 106 q 711 485 681 268 q 701 782 742 707 z "},"Ù":{"ha":922,"x_min":104,"x_max":892,"o":"m 624 1069 l 576 1008 l 306 1178 l 378 1274 l 624 1069 m 892 958 l 807 367 q 688 69 778 157 q 415 -18 597 -18 q 151 74 228 -18 q 104 374 75 165 l 185 958 l 325 958 l 242 367 q 258 163 221 219 q 411 106 294 106 q 590 165 532 106 q 669 374 649 225 l 751 958 l 892 958 z "},"Ú":{"ha":922,"x_min":104,"x_max":892,"o":"m 794 1171 l 499 1008 l 458 1071 l 731 1275 l 794 1171 m 892 958 l 807 367 q 688 69 778 157 q 415 -18 597 -18 q 151 74 228 -18 q 104 374 75 165 l 185 958 l 325 958 l 242 367 q 258 163 221 219 q 411 106 294 106 q 590 165 532 106 q 669 374 649 225 l 751 958 l 892 958 z "},"Û":{"ha":922,"x_min":104,"x_max":892,"o":"m 797 1061 l 747 1008 l 581 1149 l 569 1149 l 363 1011 l 324 1069 l 529 1249 l 624 1249 l 797 1061 m 892 958 l 807 367 q 688 69 778 157 q 415 -18 597 -18 q 151 74 228 -18 q 104 374 75 165 l 185 958 l 325 958 l 242 367 q 258 163 221 219 q 411 106 294 106 q 590 165 532 106 q 669 374 649 225 l 751 958 l 892 958 z "},"Ü":{"ha":922,"x_min":104,"x_max":892,"o":"m 439 1213 l 479 1213 q 513 1175 519 1213 l 501 1099 q 461 1063 497 1063 l 417 1063 q 383 1097 379 1063 l 396 1175 q 439 1213 400 1213 m 671 1213 l 711 1213 q 746 1175 753 1213 l 733 1099 q 693 1063 729 1063 l 649 1063 q 615 1097 611 1063 l 628 1175 q 671 1213 633 1213 m 892 958 l 807 367 q 688 69 778 157 q 415 -18 597 -18 q 151 74 228 -18 q 104 374 75 165 l 185 958 l 325 958 l 242 367 q 258 163 221 219 q 411 106 294 106 q 590 165 532 106 q 669 374 649 225 l 751 958 l 892 958 z "},"Ý":{"ha":793,"x_min":88,"x_max":857,"o":"m 428 1008 l 388 1071 l 660 1275 l 724 1171 l 428 1008 m 451 331 l 406 0 l 265 0 l 314 338 l 88 958 l 228 958 l 365 563 q 390 451 385 501 l 403 451 q 458 567 421 508 l 706 958 l 857 958 l 451 331 z "},"Þ":{"ha":821,"x_min":58,"x_max":772,"o":"m 332 958 l 308 789 q 496 792 360 792 q 730 723 663 792 q 772 479 797 654 q 674 241 747 304 q 440 178 600 178 q 224 190 331 178 l 197 0 l 58 0 l 193 958 l 332 958 m 239 297 l 424 297 q 574 338 529 299 q 635 489 618 376 q 620 636 649 600 q 492 672 592 672 q 292 671 346 672 l 239 297 z "},"ß":{"ha":940,"x_min":-164,"x_max":864,"o":"m 639 425 l 767 343 q 850 265 828 303 q 864 156 872 226 q 786 19 850 54 q 592 -15 722 -15 q 369 0 490 -15 l 386 103 q 565 97 475 97 q 686 112 650 97 q 728 174 722 126 q 717 226 732 208 q 663 271 703 244 l 529 356 q 440 514 426 422 q 458 569 444 544 q 499 616 471 593 q 550 653 528 639 q 618 693 572 667 q 699 754 675 728 q 726 814 722 781 q 700 875 732 856 q 561 894 668 894 q 399 863 444 894 q 340 740 353 832 l 225 -78 q 154 -228 210 -179 q -4 -276 99 -276 q -164 -265 -74 -276 l -143 -165 l -39 -165 q 54 -144 26 -165 q 92 -57 82 -122 l 182 574 l 58 574 l 72 669 l 196 678 l 208 760 q 237 867 217 822 q 284 938 257 911 q 354 979 311 964 q 442 999 397 994 q 551 1004 488 1004 q 803 961 735 1004 q 857 813 872 918 q 819 717 849 758 q 715 631 789 675 q 676 608 704 624 q 637 585 649 593 q 608 565 625 578 q 581 538 590 551 q 569 510 572 525 q 576 478 567 493 q 597 453 585 463 q 639 425 608 444 z "},"à":{"ha":797,"x_min":65,"x_max":733,"o":"m 476 760 l 206 929 l 278 1024 l 524 819 l 476 760 m 639 0 l 533 0 l 539 125 q 247 -17 417 -17 q 81 64 124 -17 q 65 347 38 144 q 108 531 81 460 q 182 638 136 603 q 276 684 228 672 q 401 696 325 696 q 733 660 567 696 l 639 0 m 538 244 l 586 581 q 443 583 458 583 q 333 576 371 583 q 267 541 296 569 q 226 468 239 513 q 200 338 213 424 q 195 143 181 186 q 275 100 210 100 q 400 135 339 100 q 538 244 461 171 z "},"á":{"ha":797,"x_min":65,"x_max":733,"o":"m 399 760 l 358 822 l 631 1025 l 694 922 l 399 760 m 639 0 l 533 0 l 539 125 q 247 -17 417 -17 q 81 64 124 -17 q 65 347 38 144 q 108 531 81 460 q 182 638 136 603 q 276 684 228 672 q 401 696 325 696 q 733 660 567 696 l 639 0 m 538 244 l 586 581 q 443 583 458 583 q 333 576 371 583 q 267 541 296 569 q 226 468 239 513 q 200 338 213 424 q 195 143 181 186 q 275 100 210 100 q 400 135 339 100 q 538 244 461 171 z "},"â":{"ha":797,"x_min":65,"x_max":733,"o":"m 263 763 l 224 821 l 429 1000 l 525 1000 l 697 811 l 647 758 l 481 899 l 469 899 l 263 763 m 639 0 l 533 0 l 539 125 q 247 -17 417 -17 q 81 64 124 -17 q 65 347 38 144 q 108 531 81 460 q 182 638 136 603 q 276 684 228 672 q 401 696 325 696 q 733 660 567 696 l 639 0 m 538 244 l 586 581 q 443 583 458 583 q 333 576 371 583 q 267 541 296 569 q 226 468 239 513 q 200 338 213 424 q 195 143 181 186 q 275 100 210 100 q 400 135 339 100 q 538 244 461 171 z "},"ã":{"ha":797,"x_min":65,"x_max":733,"o":"m 638 972 l 699 967 q 663 844 697 886 q 575 807 628 803 q 458 845 519 811 q 374 883 397 879 q 316 869 335 888 q 292 808 297 850 l 231 814 q 269 939 233 897 q 356 976 304 981 q 463 940 404 972 q 556 903 522 907 q 613 915 594 897 q 638 972 632 932 m 639 0 l 533 0 l 539 125 q 247 -17 417 -17 q 81 64 124 -17 q 65 347 38 144 q 108 531 81 460 q 182 638 136 603 q 276 684 228 672 q 401 696 325 696 q 733 660 567 696 l 639 0 m 538 244 l 586 581 q 443 583 458 583 q 333 576 371 583 q 267 541 296 569 q 226 468 239 513 q 200 338 213 424 q 195 143 181 186 q 275 100 210 100 q 400 135 339 100 q 538 244 461 171 z "},"ä":{"ha":797,"x_min":65,"x_max":733,"o":"m 361 814 l 317 814 q 283 849 279 814 l 296 925 q 339 963 300 963 l 379 963 q 409 954 401 963 q 414 925 417 946 l 401 850 q 361 814 397 814 m 593 814 l 549 814 q 515 849 511 814 l 528 925 q 571 963 533 963 l 611 963 q 641 954 633 963 q 646 925 649 946 l 633 850 q 593 814 629 814 m 639 0 l 533 0 l 539 125 q 247 -17 417 -17 q 81 64 124 -17 q 65 347 38 144 q 108 531 81 460 q 182 638 136 603 q 276 684 228 672 q 401 696 325 696 q 733 660 567 696 l 639 0 m 538 244 l 586 581 q 443 583 458 583 q 333 576 371 583 q 267 541 296 569 q 226 468 239 513 q 200 338 213 424 q 195 143 181 186 q 275 100 210 100 q 400 135 339 100 q 538 244 461 171 z "},"å":{"ha":797,"x_min":65,"x_max":733,"o":"m 458 742 q 349 785 389 742 q 315 894 308 829 q 364 997 322 956 q 472 1039 406 1039 q 582 995 540 1039 q 615 885 624 951 q 567 783 608 824 q 458 742 525 742 m 388 890 q 404 831 383 853 q 460 810 425 810 q 517 833 494 810 q 543 893 540 856 q 527 949 546 928 q 474 971 508 971 q 415 949 438 971 q 388 890 392 926 m 639 0 l 533 0 l 539 125 q 247 -17 417 -17 q 81 64 124 -17 q 65 347 38 144 q 108 531 81 460 q 182 638 136 603 q 276 684 228 672 q 401 696 325 696 q 733 660 567 696 l 639 0 m 538 244 l 586 581 q 443 583 458 583 q 333 576 371 583 q 267 541 296 569 q 226 468 239 513 q 200 338 213 424 q 195 143 181 186 q 275 100 210 100 q 400 135 339 100 q 538 244 461 171 z "},"æ":{"ha":1214,"x_min":65,"x_max":1160,"o":"m 1075 113 l 1083 22 q 810 -17 989 -17 q 540 129 592 -17 q 244 -17 417 -17 q 79 65 122 -17 q 65 347 36 147 q 108 532 81 461 q 182 638 136 603 q 276 685 228 674 q 400 696 324 696 q 701 665 544 696 q 904 696 779 696 q 1119 640 1063 696 q 1160 476 1175 585 q 1083 334 1144 378 q 896 281 1022 290 l 660 260 q 701 130 660 164 q 831 96 742 96 q 1075 113 925 96 m 272 100 q 393 132 335 100 q 522 232 451 164 q 529 357 519 296 q 597 579 547 500 q 510 581 564 579 q 442 583 457 583 q 268 541 310 583 q 204 338 226 499 q 197 144 183 188 q 272 100 211 100 m 669 360 l 894 381 q 988 408 958 385 q 1026 488 1017 431 q 1005 568 1035 553 q 883 583 975 583 q 733 540 776 583 q 669 360 690 496 z "},"ç":{"ha":675,"x_min":61,"x_max":649,"o":"m 569 111 l 579 19 q 340 -17 475 -17 q 97 67 161 -17 q 61 344 33 150 q 169 617 88 539 q 426 696 251 696 q 649 660 563 696 l 628 576 q 447 582 544 582 q 272 533 325 582 q 200 335 218 483 q 216 141 182 186 q 365 96 250 96 q 569 111 483 96 m 231 -137 l 246 -75 q 376 -86 339 -67 q 400 -171 413 -106 q 313 -306 386 -260 q 139 -337 240 -351 l 164 -267 q 256 -242 217 -268 q 304 -171 296 -215 q 295 -145 308 -151 q 231 -137 282 -139 z "},"è":{"ha":749,"x_min":63,"x_max":694,"o":"m 469 760 l 199 929 l 271 1024 l 517 819 l 469 760 m 615 113 l 624 22 q 344 -17 525 -17 q 104 74 171 -17 q 63 357 38 165 q 170 624 89 553 q 438 696 251 696 q 653 640 596 696 q 694 476 710 585 q 617 334 678 378 q 429 281 556 290 l 194 260 q 235 130 193 164 q 365 96 276 96 q 615 113 460 96 m 203 360 l 429 381 q 522 408 493 385 q 560 488 551 431 q 538 568 568 553 q 417 583 508 583 q 267 540 311 583 q 203 360 224 496 z "},"é":{"ha":749,"x_min":63,"x_max":694,"o":"m 390 760 l 350 822 l 622 1025 l 686 922 l 390 760 m 615 113 l 624 22 q 344 -17 525 -17 q 104 74 171 -17 q 63 357 38 165 q 170 624 89 553 q 438 696 251 696 q 653 640 596 696 q 694 476 710 585 q 617 334 678 378 q 429 281 556 290 l 194 260 q 235 130 193 164 q 365 96 276 96 q 615 113 460 96 m 203 360 l 429 381 q 522 408 493 385 q 560 488 551 431 q 538 568 568 553 q 417 583 508 583 q 267 540 311 583 q 203 360 224 496 z "},"ê":{"ha":749,"x_min":63,"x_max":694,"o":"m 254 763 l 217 821 l 421 1000 l 517 1000 l 689 811 l 640 758 l 472 899 l 461 899 l 254 763 m 615 113 l 624 22 q 344 -17 525 -17 q 104 74 171 -17 q 63 357 38 165 q 170 624 89 553 q 438 696 251 696 q 653 640 596 696 q 694 476 710 585 q 617 334 678 378 q 429 281 556 290 l 194 260 q 235 130 193 164 q 365 96 276 96 q 615 113 460 96 m 203 360 l 429 381 q 522 408 493 385 q 560 488 551 431 q 538 568 568 553 q 417 583 508 583 q 267 540 311 583 q 203 360 224 496 z "},"ë":{"ha":749,"x_min":63,"x_max":694,"o":"m 353 814 l 308 814 q 275 849 271 814 l 288 925 q 331 963 293 963 l 371 963 q 401 954 393 963 q 406 925 408 946 l 393 850 q 353 814 389 814 m 586 814 l 540 814 q 508 849 504 814 l 519 925 q 564 963 525 963 l 604 963 q 633 954 626 963 q 638 925 640 946 l 625 850 q 586 814 624 814 m 615 113 l 624 22 q 344 -17 525 -17 q 104 74 171 -17 q 63 357 38 165 q 170 624 89 553 q 438 696 251 696 q 653 640 596 696 q 694 476 710 585 q 617 334 678 378 q 429 281 556 290 l 194 260 q 235 130 193 164 q 365 96 276 96 q 615 113 460 96 m 203 360 l 429 381 q 522 408 493 385 q 560 488 551 431 q 538 568 568 553 q 417 583 508 583 q 267 540 311 583 q 203 360 224 496 z "},"ì":{"ha":350,"x_min":-15,"x_max":303,"o":"m 303 819 l 256 760 l -15 929 l 57 1024 l 303 819 m 185 0 l 50 0 l 146 678 l 281 678 l 185 0 z "},"í":{"ha":350,"x_min":50,"x_max":474,"o":"m 474 922 l 178 760 l 138 822 l 410 1025 l 474 922 m 185 0 l 50 0 l 146 678 l 281 678 l 185 0 z "},"î":{"ha":350,"x_min":3,"x_max":476,"o":"m 476 811 l 426 758 l 260 899 l 249 899 l 42 763 l 3 821 l 208 1000 l 303 1000 l 476 811 m 185 0 l 50 0 l 146 678 l 281 678 l 185 0 z "},"ï":{"ha":350,"x_min":50,"x_max":425,"o":"m 350 963 l 390 963 q 420 954 413 963 q 425 925 428 946 l 413 850 q 372 814 408 814 l 328 814 q 294 849 290 814 l 307 925 q 350 963 313 963 m 118 963 l 158 963 q 188 954 181 963 q 192 925 194 946 l 179 850 q 140 814 178 814 l 96 814 q 63 849 58 814 l 75 925 q 118 963 79 963 m 185 0 l 50 0 l 146 678 l 281 678 l 185 0 z "},"ð":{"ha":774,"x_min":57,"x_max":690,"o":"m 688 935 l 588 864 q 690 389 733 721 q 581 83 664 183 q 321 -18 499 -18 q 98 62 161 -18 q 57 308 35 142 q 369 624 97 624 q 563 554 490 624 q 490 794 561 719 l 371 711 l 335 763 l 436 836 q 232 872 367 875 l 253 969 q 535 907 426 976 l 650 989 l 688 935 m 328 94 q 483 165 433 94 q 553 404 532 236 q 560 464 558 447 q 401 510 493 510 q 259 458 306 510 q 196 299 213 407 q 211 141 181 188 q 328 94 242 94 z "},"ñ":{"ha":806,"x_min":44,"x_max":722,"o":"m 649 972 l 710 967 q 674 844 708 886 q 586 807 640 803 q 471 845 532 811 q 385 883 410 879 q 328 869 347 888 q 304 808 310 850 l 243 814 q 281 939 244 897 q 368 976 317 981 q 474 940 415 972 q 567 903 533 907 q 624 915 606 897 q 649 972 643 932 m 247 678 l 240 532 q 561 696 424 696 q 692 647 647 696 q 722 506 736 597 l 650 0 l 517 0 l 582 472 q 577 559 590 536 q 519 582 564 582 q 401 547 463 582 q 239 433 339 513 l 179 0 l 44 0 l 140 678 l 247 678 z "},"ò":{"ha":786,"x_min":61,"x_max":707,"o":"m 518 819 l 471 760 l 200 929 l 272 1024 l 518 819 m 426 696 q 668 612 601 696 q 707 333 735 528 q 597 62 681 142 q 343 -18 514 -18 q 102 66 169 -18 q 61 343 35 150 q 170 615 88 535 q 426 696 253 696 m 426 582 q 270 531 319 582 q 200 333 221 479 q 210 144 181 193 q 343 94 240 94 q 500 148 451 94 q 568 343 549 201 q 559 533 589 483 q 426 582 529 582 z "},"ó":{"ha":786,"x_min":61,"x_max":707,"o":"m 689 922 l 393 760 l 353 822 l 625 1025 l 689 922 m 426 696 q 668 612 601 696 q 707 333 735 528 q 597 62 681 142 q 343 -18 514 -18 q 102 66 169 -18 q 61 343 35 150 q 170 615 88 535 q 426 696 253 696 m 426 582 q 270 531 319 582 q 200 333 221 479 q 210 144 181 193 q 343 94 240 94 q 500 148 451 94 q 568 343 549 201 q 559 533 589 483 q 426 582 529 582 z "},"ô":{"ha":786,"x_min":61,"x_max":707,"o":"m 692 811 l 642 758 l 475 899 l 464 899 l 257 763 l 218 821 l 424 1000 l 518 1000 l 692 811 m 426 696 q 668 612 601 696 q 707 333 735 528 q 597 62 681 142 q 343 -18 514 -18 q 102 66 169 -18 q 61 343 35 150 q 170 615 88 535 q 426 696 253 696 m 426 582 q 270 531 319 582 q 200 333 221 479 q 210 144 181 193 q 343 94 240 94 q 500 148 451 94 q 568 343 549 201 q 559 533 589 483 q 426 582 529 582 z "},"õ":{"ha":786,"x_min":61,"x_max":707,"o":"m 286 808 l 225 814 q 263 939 228 897 q 350 976 299 981 q 458 940 399 972 q 549 903 517 907 q 608 915 589 897 q 632 972 626 932 l 693 967 q 657 844 692 886 q 568 807 622 803 q 453 845 514 811 q 368 883 392 879 q 310 869 329 888 q 286 808 292 850 m 426 696 q 668 612 601 696 q 707 333 735 528 q 597 62 681 142 q 343 -18 514 -18 q 102 66 169 -18 q 61 343 35 150 q 170 615 88 535 q 426 696 253 696 m 426 582 q 270 531 319 582 q 200 333 221 479 q 210 144 181 193 q 343 94 240 94 q 500 148 451 94 q 568 343 549 201 q 559 533 589 483 q 426 582 529 582 z "},"ö":{"ha":786,"x_min":61,"x_max":707,"o":"m 565 963 l 606 963 q 635 954 628 963 q 640 925 643 946 l 628 850 q 588 814 624 814 l 543 814 q 510 849 506 814 l 522 925 q 565 963 528 963 m 333 963 l 374 963 q 403 954 396 963 q 407 925 410 946 l 396 850 q 356 814 392 814 l 311 814 q 278 849 274 814 l 290 925 q 333 963 294 963 m 426 696 q 668 612 601 696 q 707 333 735 528 q 597 62 681 142 q 343 -18 514 -18 q 102 66 169 -18 q 61 343 35 150 q 170 615 88 535 q 426 696 253 696 m 426 582 q 270 531 319 582 q 200 333 221 479 q 210 144 181 193 q 343 94 240 94 q 500 148 451 94 q 568 343 549 201 q 559 533 589 483 q 426 582 529 582 z "},"÷":{"ha":782,"x_min":76,"x_max":706,"o":"m 415 735 l 450 735 q 494 683 503 735 l 486 618 q 435 574 481 574 l 400 574 q 354 624 346 574 l 363 688 q 415 735 368 735 m 692 360 l 76 360 l 92 460 l 706 460 l 692 360 m 344 244 l 379 244 q 426 192 435 244 l 417 128 q 364 82 411 82 l 329 82 q 286 135 278 82 l 294 197 q 344 244 300 244 z "},"ø":{"ha":786,"x_min":61,"x_max":707,"o":"m 683 754 l 622 653 q 707 333 742 578 q 597 62 681 142 q 343 -18 514 -18 q 222 -6 275 -18 l 160 -108 l 103 -75 l 158 18 q 61 343 25 92 q 170 615 88 535 q 426 696 253 696 q 560 679 503 696 l 625 789 l 683 754 m 225 126 l 496 575 q 426 582 474 582 q 270 531 319 582 q 200 333 221 479 q 225 126 178 172 m 554 540 l 286 99 q 343 94 311 94 q 500 148 451 94 q 568 343 549 201 q 554 540 590 493 z "},"ù":{"ha":790,"x_min":65,"x_max":726,"o":"m 479 765 l 208 935 l 281 1031 l 526 826 l 479 765 m 726 678 l 632 0 l 528 0 l 536 142 q 228 -18 371 -18 q 94 33 136 -18 q 65 171 53 83 l 136 678 l 271 678 l 203 206 q 211 122 194 146 q 275 97 228 97 q 386 131 332 97 q 535 247 440 164 l 593 678 l 726 678 z "},"ú":{"ha":790,"x_min":65,"x_max":726,"o":"m 400 765 l 361 828 l 633 1032 l 696 928 l 400 765 m 726 678 l 632 0 l 528 0 l 536 142 q 228 -18 371 -18 q 94 33 136 -18 q 65 171 53 83 l 136 678 l 271 678 l 203 206 q 211 122 194 146 q 275 97 228 97 q 386 131 332 97 q 535 247 440 164 l 593 678 l 726 678 z "},"û":{"ha":790,"x_min":65,"x_max":726,"o":"m 264 768 l 226 826 l 431 1006 l 526 1006 l 699 818 l 650 765 l 483 906 l 472 906 l 264 768 m 726 678 l 632 0 l 528 0 l 536 142 q 228 -18 371 -18 q 94 33 136 -18 q 65 171 53 83 l 136 678 l 271 678 l 203 206 q 211 122 194 146 q 275 97 228 97 q 386 131 332 97 q 535 247 440 164 l 593 678 l 726 678 z "},"ü":{"ha":790,"x_min":65,"x_max":726,"o":"m 363 819 l 318 819 q 285 854 281 819 l 297 932 q 340 969 303 969 l 381 969 q 415 932 422 969 l 403 856 q 363 819 399 819 m 596 819 l 551 819 q 518 854 514 819 l 531 932 q 574 969 535 969 l 614 969 q 643 960 636 969 q 647 932 650 951 l 636 856 q 596 819 632 819 m 726 678 l 632 0 l 528 0 l 536 142 q 228 -18 371 -18 q 94 33 136 -18 q 65 171 53 83 l 136 678 l 271 678 l 203 206 q 211 122 194 146 q 275 97 228 97 q 386 131 332 97 q 535 247 440 164 l 593 678 l 726 678 z "},"ý":{"ha":757,"x_min":49,"x_max":738,"o":"m 356 760 l 317 822 l 589 1025 l 651 922 l 356 760 m 597 678 l 738 678 q 542 118 663 347 q 327 -174 433 -87 q 74 -285 221 -260 l 49 -189 q 204 -126 138 -168 q 332 0 271 -85 l 269 0 q 215 17 238 0 q 188 65 193 35 l 57 678 l 199 678 l 301 129 q 329 106 306 106 l 397 106 q 413 134 403 115 q 425 158 422 153 q 597 678 547 413 z "},"þ":{"ha":797,"x_min":7,"x_max":714,"o":"m 253 576 l 256 568 q 536 694 379 694 q 697 615 651 694 q 714 331 743 535 q 671 146 699 217 q 599 40 643 75 q 507 -7 554 4 q 386 -18 460 -18 q 178 -1 299 -18 q 165 -96 174 -44 l 140 -276 l 7 -276 l 182 972 l 315 972 l 282 732 q 253 576 269 636 m 239 431 l 193 97 q 336 94 324 94 q 511 136 469 94 q 575 340 553 178 q 582 535 596 492 q 506 578 568 578 q 378 542 440 578 q 239 431 317 506 z "},"ÿ":{"ha":757,"x_min":49,"x_max":738,"o":"m 319 814 l 274 814 q 240 849 239 814 l 253 925 q 296 963 258 963 l 336 963 q 366 954 358 963 q 371 925 374 946 l 358 850 q 319 814 354 814 m 551 814 l 507 814 q 474 849 469 814 l 486 925 q 529 963 490 963 l 569 963 q 599 954 592 963 q 604 925 607 946 l 592 850 q 551 814 588 814 m 597 678 l 738 678 q 542 118 663 347 q 327 -174 433 -87 q 74 -285 221 -260 l 49 -189 q 204 -126 138 -168 q 332 0 271 -85 l 269 0 q 215 17 238 0 q 188 65 193 35 l 57 678 l 199 678 l 301 129 q 329 106 306 106 l 397 106 q 413 134 403 115 q 425 158 422 153 q 597 678 547 413 z "},"Ā":{"ha":865,"x_min":-44,"x_max":801,"o":"m 729 1086 l 336 1086 l 350 1185 l 743 1185 l 729 1086 m 614 289 l 231 289 l 103 0 l -44 0 l 386 924 q 440 958 400 958 l 582 958 q 613 947 600 958 q 628 918 626 935 l 801 0 l 663 0 l 614 289 m 594 411 l 535 771 q 524 854 529 799 l 482 854 l 446 771 l 285 411 l 594 411 z "},"ā":{"ha":797,"x_min":65,"x_max":733,"o":"m 653 838 l 261 838 l 275 936 l 667 936 l 653 838 m 639 0 l 533 0 l 539 125 q 247 -17 417 -17 q 81 64 124 -17 q 65 347 38 144 q 108 531 81 460 q 182 638 136 603 q 276 684 228 672 q 401 696 325 696 q 733 660 567 696 l 639 0 m 538 244 l 586 581 q 443 583 458 583 q 333 576 371 583 q 267 541 296 569 q 226 468 239 513 q 200 338 213 424 q 195 143 181 186 q 275 100 210 100 q 400 135 339 100 q 538 244 461 171 z "},"Ă":{"ha":865,"x_min":-44,"x_max":801,"o":"m 696 1233 l 763 1218 q 694 1084 757 1135 q 533 1033 632 1033 q 374 1087 428 1033 q 339 1222 321 1140 l 408 1228 q 434 1157 401 1182 q 532 1132 467 1132 q 647 1159 603 1132 q 696 1233 690 1186 m 614 289 l 231 289 l 103 0 l -44 0 l 386 924 q 440 958 400 958 l 582 958 q 613 947 600 958 q 628 918 626 935 l 801 0 l 663 0 l 614 289 m 594 411 l 535 771 q 524 854 529 799 l 482 854 l 446 771 l 285 411 l 594 411 z "},"ă":{"ha":797,"x_min":65,"x_max":733,"o":"m 619 985 l 688 968 q 618 834 681 885 q 457 783 556 783 q 299 837 351 783 q 264 974 246 890 l 332 979 q 359 908 326 933 q 456 882 392 882 q 571 909 528 882 q 619 985 614 936 m 639 0 l 533 0 l 539 125 q 247 -17 417 -17 q 81 64 124 -17 q 65 347 38 144 q 108 531 81 460 q 182 638 136 603 q 276 684 228 672 q 401 696 325 696 q 733 660 567 696 l 639 0 m 538 244 l 586 581 q 443 583 458 583 q 333 576 371 583 q 267 541 296 569 q 226 468 239 513 q 200 338 213 424 q 195 143 181 186 q 275 100 210 100 q 400 135 339 100 q 538 244 461 171 z "},"Ą":{"ha":865,"x_min":-44,"x_max":801,"o":"m 628 918 l 801 0 q 683 -160 735 -71 q 706 -224 644 -224 q 772 -211 731 -224 l 789 -269 q 690 -295 733 -290 q 620 -290 646 -300 q 581 -260 594 -279 q 568 -213 567 -240 q 585 -156 569 -186 q 733 0 626 -78 l 663 0 l 614 289 l 231 289 l 103 0 l -44 0 l 386 924 q 440 958 400 958 l 582 958 q 613 947 600 958 q 628 918 626 935 m 594 411 l 535 771 q 524 854 529 799 l 482 854 l 446 771 l 285 411 l 594 411 z "},"ą":{"ha":797,"x_min":65,"x_max":733,"o":"m 733 660 l 639 0 q 521 -160 572 -71 q 519 -219 494 -206 q 611 -211 544 -233 l 626 -269 q 527 -295 571 -290 q 458 -290 483 -300 q 418 -260 432 -279 q 406 -213 404 -240 q 424 -156 408 -186 q 572 0 465 -76 l 533 0 l 539 125 q 247 -17 417 -17 q 81 64 124 -17 q 65 347 38 144 q 108 531 81 460 q 182 638 136 603 q 276 684 228 672 q 401 696 325 696 q 733 660 567 696 m 538 244 l 586 581 q 443 583 458 583 q 333 576 371 583 q 267 541 296 569 q 226 468 239 513 q 200 338 213 424 q 195 143 181 186 q 275 100 210 100 q 400 135 339 100 q 538 244 461 171 z "},"Ć":{"ha":789,"x_min":92,"x_max":797,"o":"m 776 1171 l 481 1008 l 440 1071 l 713 1275 l 776 1171 m 686 122 l 693 15 q 407 -17 578 -17 q 126 102 200 -17 q 92 485 53 221 q 226 866 129 757 q 532 975 324 975 q 797 946 681 975 l 775 840 q 529 851 665 851 q 383 821 436 851 q 293 708 329 790 q 236 474 257 626 q 243 187 206 265 q 410 107 281 108 q 686 122 565 106 z "},"ć":{"ha":675,"x_min":61,"x_max":663,"o":"m 663 922 l 367 760 l 328 822 l 600 1025 l 663 922 m 569 111 l 579 19 q 340 -17 475 -17 q 97 67 161 -17 q 61 344 33 150 q 169 617 88 539 q 426 696 251 696 q 649 660 563 696 l 628 576 q 447 582 544 582 q 272 533 325 582 q 200 335 218 483 q 216 141 182 186 q 365 96 250 96 q 569 111 483 96 z "},"Ċ":{"ha":789,"x_min":92,"x_max":797,"o":"m 531 1207 l 574 1207 q 603 1195 593 1207 q 611 1164 614 1183 l 600 1088 q 560 1050 596 1050 l 517 1050 q 479 1092 475 1050 l 489 1169 q 531 1207 494 1207 m 686 122 l 693 15 q 407 -17 578 -17 q 126 102 200 -17 q 92 485 53 221 q 226 866 129 757 q 532 975 324 975 q 797 946 681 975 l 775 840 q 529 851 665 851 q 383 821 436 851 q 293 708 329 790 q 236 474 257 626 q 243 187 206 265 q 410 107 281 108 q 686 122 565 106 z "},"ċ":{"ha":675,"x_min":61,"x_max":649,"o":"m 418 957 l 461 957 q 491 945 481 957 q 499 915 501 933 l 488 838 q 446 800 481 800 l 404 800 q 374 812 385 800 q 367 843 364 824 l 376 919 q 418 957 382 957 m 569 111 l 579 19 q 340 -17 475 -17 q 97 67 161 -17 q 61 344 33 150 q 169 617 88 539 q 426 696 251 696 q 649 660 563 696 l 628 576 q 447 582 544 582 q 272 533 325 582 q 200 335 218 483 q 216 141 182 186 q 365 96 250 96 q 569 111 483 96 z "},"Č":{"ha":789,"x_min":92,"x_max":797,"o":"m 790 1210 l 583 1031 l 486 1031 l 324 1219 l 378 1268 l 535 1131 l 546 1131 l 750 1268 l 790 1210 m 686 122 l 693 15 q 407 -17 578 -17 q 126 102 200 -17 q 92 485 53 221 q 226 866 129 757 q 532 975 324 975 q 797 946 681 975 l 775 840 q 529 851 665 851 q 383 821 436 851 q 293 708 329 790 q 236 474 257 626 q 243 187 206 265 q 410 107 281 108 q 686 122 565 106 z "},"č":{"ha":675,"x_min":61,"x_max":678,"o":"m 678 961 l 471 782 l 374 782 l 211 969 l 265 1019 l 422 881 l 433 881 l 636 1019 l 678 961 m 569 111 l 579 19 q 340 -17 475 -17 q 97 67 161 -17 q 61 344 33 150 q 169 617 88 539 q 426 696 251 696 q 649 660 563 696 l 628 576 q 447 582 544 582 q 272 533 325 582 q 200 335 218 483 q 216 141 182 186 q 365 96 250 96 q 569 111 483 96 z "},"Ď":{"ha":921,"x_min":58,"x_max":850,"o":"m 481 1031 l 318 1219 l 372 1268 l 529 1131 l 540 1131 l 743 1268 l 785 1210 l 578 1031 l 481 1031 m 58 0 l 193 958 q 506 971 363 971 q 811 861 733 971 q 850 474 889 751 q 815 290 835 367 q 765 160 794 214 q 700 72 735 106 q 614 19 665 39 q 508 -6 563 0 q 376 -12 454 -12 q 58 0 243 -12 m 317 849 l 213 111 q 375 108 332 108 q 547 136 488 108 q 644 243 607 164 q 706 485 682 322 q 721 641 719 579 q 712 746 722 703 q 674 810 701 789 q 606 841 646 832 q 503 850 567 850 q 419 849 486 850 q 317 849 353 849 z "},"ď":{"ha":797,"x_min":65,"x_max":976,"o":"m 640 972 l 775 972 l 639 0 l 533 0 l 540 142 q 233 -17 396 -17 q 82 66 126 -17 q 65 347 38 149 q 109 531 82 460 q 180 638 136 603 q 269 684 224 672 q 386 696 315 696 q 607 678 490 696 q 617 807 607 725 l 640 972 m 901 971 l 938 971 q 976 928 985 971 l 965 853 q 890 668 954 774 l 831 686 q 874 829 865 789 q 844 838 854 828 q 836 865 833 847 l 846 932 q 862 963 851 956 q 901 971 872 971 m 539 247 l 585 582 q 439 585 522 585 q 333 578 369 585 q 267 543 296 571 q 226 469 239 515 q 201 338 214 424 q 196 147 182 193 q 272 100 210 100 q 394 134 335 100 q 539 247 454 168 z "},"Đ":{"ha":921,"x_min":38,"x_max":850,"o":"m 135 546 l 193 958 q 506 971 363 971 q 811 861 733 971 q 850 474 889 751 q 815 290 835 367 q 765 160 794 214 q 700 72 735 106 q 614 19 665 39 q 508 -6 563 0 q 376 -12 454 -12 q 58 0 243 -12 l 125 469 l 38 469 l 47 546 l 135 546 m 263 469 l 213 111 q 375 108 332 108 q 547 136 488 108 q 644 243 607 164 q 706 485 682 322 q 721 641 719 579 q 712 746 722 703 q 674 810 701 789 q 606 841 646 832 q 503 850 567 850 q 419 849 486 850 q 317 849 353 849 l 274 546 l 481 546 l 471 469 l 263 469 z "},"đ":{"ha":797,"x_min":65,"x_max":861,"o":"m 851 796 l 751 796 l 639 0 l 533 0 l 540 142 q 233 -17 396 -17 q 82 66 126 -17 q 65 347 38 149 q 109 531 82 460 q 180 638 136 603 q 269 684 224 672 q 386 696 315 696 q 607 678 490 696 q 615 796 607 733 l 417 796 l 426 871 l 626 871 l 640 972 l 775 972 l 761 871 l 861 871 l 851 796 m 539 247 l 585 582 q 439 585 522 585 q 333 578 369 585 q 267 543 296 571 q 226 469 239 515 q 201 338 214 424 q 196 147 182 193 q 272 100 210 100 q 394 134 335 100 q 539 247 454 168 z "},"Ē":{"ha":778,"x_min":78,"x_max":783,"o":"m 724 1114 l 331 1114 l 344 1213 l 738 1213 l 724 1114 m 765 842 l 388 842 q 322 822 343 842 q 294 751 300 801 l 268 557 l 672 557 l 658 450 l 253 450 l 219 203 q 230 136 214 156 q 292 117 246 117 l 663 117 l 660 8 q 275 -3 540 -3 q 115 51 164 -3 q 78 199 65 104 l 160 792 q 225 917 171 872 q 371 961 279 961 q 783 950 658 961 l 765 842 z "},"ē":{"ha":749,"x_min":63,"x_max":694,"o":"m 646 838 l 253 838 l 267 936 l 660 936 l 646 838 m 615 113 l 624 22 q 344 -17 525 -17 q 104 74 171 -17 q 63 357 38 165 q 170 624 89 553 q 438 696 251 696 q 653 640 596 696 q 694 476 710 585 q 617 334 678 378 q 429 281 556 290 l 194 260 q 235 130 193 164 q 365 96 276 96 q 615 113 460 96 m 203 360 l 429 381 q 522 408 493 385 q 560 488 551 431 q 538 568 568 553 q 417 583 508 583 q 267 540 311 583 q 203 360 224 496 z "},"Ė":{"ha":778,"x_min":78,"x_max":783,"o":"m 547 1076 l 506 1076 q 476 1088 486 1076 q 468 1119 465 1100 l 478 1197 q 519 1233 483 1233 l 563 1233 q 592 1222 582 1233 q 600 1192 603 1211 l 589 1114 q 547 1076 583 1076 m 765 842 l 388 842 q 322 822 343 842 q 294 751 300 801 l 268 557 l 672 557 l 658 450 l 253 450 l 219 203 q 230 136 214 156 q 292 117 246 117 l 663 117 l 660 8 q 275 -3 540 -3 q 115 51 164 -3 q 78 199 65 104 l 160 792 q 225 917 171 872 q 371 961 279 961 q 783 950 658 961 l 765 842 z "},"ė":{"ha":749,"x_min":63,"x_max":694,"o":"m 469 800 l 426 800 q 397 812 407 800 q 390 843 388 824 l 400 919 q 440 957 406 957 l 483 957 q 514 945 503 957 q 522 915 525 933 l 511 838 q 469 800 506 800 m 615 113 l 624 22 q 344 -17 525 -17 q 104 74 171 -17 q 63 357 38 165 q 170 624 89 553 q 438 696 251 696 q 653 640 596 696 q 694 476 710 585 q 617 334 678 378 q 429 281 556 290 l 194 260 q 235 130 193 164 q 365 96 276 96 q 615 113 460 96 m 203 360 l 429 381 q 522 408 493 385 q 560 488 551 431 q 538 568 568 553 q 417 583 508 583 q 267 540 311 583 q 203 360 224 496 z "},"Ę":{"ha":778,"x_min":78,"x_max":783,"o":"m 765 842 l 388 842 q 322 822 343 842 q 294 751 300 801 l 268 557 l 672 557 l 658 450 l 253 450 l 219 203 q 230 136 214 156 q 292 117 246 117 l 663 117 l 660 8 q 542 -151 593 -62 q 539 -212 514 -199 q 631 -204 564 -225 l 647 -261 q 548 -287 592 -282 q 478 -282 504 -292 q 439 -252 453 -272 q 426 -205 425 -232 q 443 -149 428 -178 q 585 3 481 -74 q 275 -3 483 -3 q 115 51 164 -3 q 78 199 65 104 l 160 792 q 225 917 171 872 q 371 961 279 961 q 783 950 658 961 l 765 842 z "},"ę":{"ha":749,"x_min":63,"x_max":694,"o":"m 594 -189 l 611 -247 q 512 -273 556 -268 q 442 -267 468 -278 q 403 -237 417 -257 q 391 -190 389 -217 q 408 -133 393 -162 q 522 -3 440 -69 q 344 -17 435 -17 q 104 74 171 -17 q 63 357 38 165 q 170 624 89 553 q 438 696 251 696 q 653 640 596 696 q 694 476 710 585 q 617 334 678 378 q 429 281 556 290 l 194 260 q 235 130 193 164 q 365 96 276 96 q 615 113 460 96 l 624 22 q 506 -136 558 -47 q 504 -197 479 -183 q 594 -189 529 -210 m 203 360 l 429 381 q 522 408 493 385 q 560 488 551 431 q 538 568 568 553 q 417 583 508 583 q 267 540 311 583 q 203 360 224 496 z "},"Ě":{"ha":778,"x_min":78,"x_max":783,"o":"m 475 1058 l 313 1246 l 367 1296 l 524 1157 l 535 1157 l 738 1296 l 779 1238 l 572 1058 l 475 1058 m 765 842 l 388 842 q 322 822 343 842 q 294 751 300 801 l 268 557 l 672 557 l 658 450 l 253 450 l 219 203 q 230 136 214 156 q 292 117 246 117 l 663 117 l 660 8 q 275 -3 540 -3 q 115 51 164 -3 q 78 199 65 104 l 160 792 q 225 917 171 872 q 371 961 279 961 q 783 950 658 961 l 765 842 z "},"ě":{"ha":749,"x_min":63,"x_max":701,"o":"m 396 782 l 235 969 l 289 1019 l 444 881 l 456 881 l 660 1019 l 701 961 l 494 782 l 396 782 m 615 113 l 624 22 q 344 -17 525 -17 q 104 74 171 -17 q 63 357 38 165 q 170 624 89 553 q 438 696 251 696 q 653 640 596 696 q 694 476 710 585 q 617 334 678 378 q 429 281 556 290 l 194 260 q 235 130 193 164 q 365 96 276 96 q 615 113 460 96 m 203 360 l 429 381 q 522 408 493 385 q 560 488 551 431 q 538 568 568 553 q 417 583 508 583 q 267 540 311 583 q 203 360 224 496 z "},"Ğ":{"ha":867,"x_min":90,"x_max":826,"o":"m 713 1233 l 779 1218 q 711 1084 774 1135 q 550 1033 649 1033 q 391 1087 444 1033 q 356 1222 338 1140 l 425 1228 q 451 1157 418 1182 q 549 1132 483 1132 q 663 1159 619 1132 q 713 1233 707 1186 m 826 946 l 806 842 q 568 853 689 853 q 430 839 482 853 q 337 783 378 825 q 274 667 296 740 q 236 474 251 594 q 242 186 213 268 q 372 104 272 104 q 493 136 439 104 q 622 242 547 168 l 667 556 l 800 556 l 722 0 l 622 0 l 622 129 q 324 -18 497 -18 q 120 103 178 -18 q 90 485 63 224 q 147 733 110 635 q 244 883 183 831 q 376 956 304 936 q 551 976 449 976 q 826 946 708 976 z "},"ğ":{"ha":800,"x_min":18,"x_max":736,"o":"m 621 985 l 688 968 q 619 834 681 885 q 458 783 557 783 q 299 837 353 783 q 264 974 246 890 l 332 979 q 360 908 326 933 q 457 882 393 882 q 571 909 528 882 q 621 985 614 936 m 736 660 l 644 17 q 243 -290 608 -286 q 18 -264 101 -290 l 32 -175 q 247 -176 142 -178 q 508 -11 476 -174 q 567 158 532 107 q 426 32 510 81 q 243 -17 342 -17 q 83 64 129 -17 q 67 347 38 144 q 111 533 83 461 q 183 639 139 604 q 273 685 228 674 q 389 696 318 696 q 733 660 567 696 l 736 660 m 540 244 l 589 581 q 442 583 461 583 q 267 541 310 583 q 203 338 225 499 q 198 144 183 189 q 276 100 213 100 q 403 135 342 100 q 540 244 464 169 z "},"Ġ":{"ha":867,"x_min":90,"x_max":826,"o":"m 569 1050 l 528 1050 q 498 1062 508 1050 q 490 1092 488 1074 l 500 1169 q 542 1207 506 1207 l 585 1207 q 615 1195 604 1207 q 622 1164 625 1183 l 611 1088 q 569 1050 606 1050 m 826 946 l 806 842 q 568 853 689 853 q 430 839 482 853 q 337 783 378 825 q 274 667 296 740 q 236 474 251 594 q 242 186 213 268 q 372 104 272 104 q 493 136 439 104 q 622 242 547 168 l 667 556 l 800 556 l 722 0 l 622 0 l 622 129 q 324 -18 497 -18 q 120 103 178 -18 q 90 485 63 224 q 147 733 110 635 q 244 883 183 831 q 376 956 304 936 q 551 976 449 976 q 826 946 708 976 z "},"ġ":{"ha":800,"x_min":18,"x_max":736,"o":"m 478 800 l 435 800 q 406 812 415 800 q 399 843 396 824 l 408 919 q 449 957 414 957 l 492 957 q 522 945 511 957 q 531 915 533 933 l 519 838 q 478 800 514 800 m 736 660 l 644 17 q 243 -290 608 -286 q 18 -264 101 -290 l 32 -175 q 247 -176 142 -178 q 508 -11 476 -174 q 567 158 532 107 q 426 32 510 81 q 243 -17 342 -17 q 83 64 129 -17 q 67 347 38 144 q 111 533 83 461 q 183 639 139 604 q 273 685 228 674 q 389 696 318 696 q 733 660 567 696 l 736 660 m 540 244 l 589 581 q 442 583 461 583 q 267 541 310 583 q 203 338 225 499 q 198 144 183 189 q 276 100 213 100 q 403 135 342 100 q 540 244 464 169 z "},"Ģ":{"ha":867,"x_min":90,"x_max":826,"o":"m 826 946 l 806 842 q 568 853 689 853 q 430 839 482 853 q 337 783 378 825 q 274 667 296 740 q 236 474 251 594 q 242 186 213 268 q 372 104 272 104 q 493 136 439 104 q 622 242 547 168 l 667 556 l 800 556 l 722 0 l 622 0 l 622 129 q 324 -18 497 -18 q 120 103 178 -18 q 90 485 63 224 q 147 733 110 635 q 244 883 183 831 q 376 956 304 936 q 551 976 449 976 q 826 946 708 976 m 386 -81 l 422 -81 q 461 -124 469 -81 l 450 -200 q 375 -386 439 -286 l 315 -367 q 358 -224 349 -271 q 328 -215 339 -225 q 321 -187 318 -206 l 331 -119 q 347 -88 336 -96 q 386 -81 358 -81 z "},"ģ":{"ha":800,"x_min":18,"x_max":736,"o":"m 467 772 l 431 772 q 392 817 383 772 l 403 892 q 478 1079 414 974 l 538 1060 q 494 917 506 965 q 532 881 536 919 l 522 813 q 506 781 517 789 q 467 772 496 772 m 736 660 l 644 17 q 243 -290 608 -286 q 18 -264 101 -290 l 32 -175 q 247 -176 142 -178 q 508 -11 476 -174 q 567 158 532 107 q 426 32 510 81 q 243 -17 342 -17 q 83 64 129 -17 q 67 347 38 144 q 111 533 83 461 q 183 639 139 604 q 273 685 228 674 q 389 696 318 696 q 733 660 567 696 l 736 660 m 540 244 l 589 581 q 442 583 461 583 q 267 541 310 583 q 203 338 225 499 q 198 144 183 189 q 276 100 213 100 q 403 135 342 100 q 540 244 464 169 z "},"Ħ":{"ha":928,"x_min":58,"x_max":967,"o":"m 958 719 l 857 719 l 756 0 l 617 0 l 681 450 l 261 450 l 199 0 l 58 0 l 160 719 l 69 719 l 79 792 l 169 792 l 193 958 l 333 958 l 310 792 l 729 792 l 751 958 l 890 958 l 868 792 l 967 792 l 958 719 m 718 719 l 300 719 l 278 571 l 697 571 l 718 719 z "},"ħ":{"ha":806,"x_min":44,"x_max":722,"o":"m 292 796 l 281 706 q 247 539 267 613 q 561 696 425 696 q 692 647 647 696 q 722 506 736 597 l 650 0 l 517 0 l 582 472 q 577 559 590 536 q 519 582 564 582 q 401 547 463 582 q 239 433 339 513 l 179 0 l 44 0 l 157 796 l 61 796 l 71 871 l 168 871 l 182 972 l 315 972 l 301 871 l 503 871 l 493 796 l 292 796 z "},"Ī":{"ha":371,"x_min":58,"x_max":490,"o":"m 476 1086 l 83 1086 l 97 1185 l 490 1185 l 476 1086 m 199 0 l 58 0 l 193 958 l 333 958 l 199 0 z "},"ī":{"ha":350,"x_min":39,"x_max":446,"o":"m 432 838 l 39 838 l 53 936 l 446 936 l 432 838 m 185 0 l 50 0 l 146 678 l 281 678 l 185 0 z "},"Į":{"ha":371,"x_min":-53,"x_max":333,"o":"m 199 0 l 182 0 q 64 -160 114 -71 q 86 -224 25 -224 q 153 -211 111 -224 l 168 -269 q 69 -295 113 -290 q -1 -290 25 -300 q -40 -260 -26 -279 q -52 -213 -54 -240 q -35 -156 -50 -186 q 114 0 7 -76 l 58 0 l 193 958 l 333 958 l 199 0 z "},"į":{"ha":350,"x_min":-60,"x_max":308,"o":"m 228 957 l 271 957 q 301 945 290 957 q 308 915 311 933 l 297 838 q 257 800 293 800 l 214 800 q 185 812 194 800 q 176 843 175 824 l 186 919 q 228 957 192 957 m 146 678 l 281 678 l 185 0 l 174 0 q 56 -160 107 -71 q 54 -219 29 -206 q 144 -211 79 -233 l 161 -269 q 62 -295 106 -290 q -8 -290 18 -300 q -47 -260 -33 -279 q -59 -213 -61 -240 q -42 -156 -57 -186 q 106 0 -4 -79 l 50 0 l 146 678 z "},"İ":{"ha":371,"x_min":58,"x_max":353,"o":"m 272 1207 l 315 1207 q 345 1195 335 1207 q 353 1164 356 1183 l 342 1088 q 301 1050 338 1050 l 258 1050 q 229 1062 239 1050 q 221 1092 219 1074 l 231 1169 q 272 1207 236 1207 m 199 0 l 58 0 l 193 958 l 333 958 l 199 0 z "},"ı":{"ha":350,"x_min":50,"x_max":281,"o":"m 185 0 l 50 0 l 146 678 l 281 678 l 185 0 z "},"Ĳ":{"ha":846,"x_min":58,"x_max":813,"o":"m 199 0 l 58 0 l 193 958 l 333 958 l 199 0 m 813 958 l 706 207 q 637 42 692 99 q 494 -12 582 -14 q 357 7 411 -12 l 383 106 l 446 106 q 567 206 554 106 l 672 958 l 813 958 z "},"ĳ":{"ha":697,"x_min":51,"x_max":668,"o":"m 218 967 l 282 967 q 311 956 301 967 q 318 925 321 944 l 308 847 q 267 810 303 810 l 203 810 q 165 853 161 810 l 178 931 q 218 967 181 967 m 567 967 l 631 967 q 668 925 672 967 l 657 847 q 615 810 653 810 l 551 810 q 515 853 508 810 l 526 931 q 567 967 531 967 m 185 0 l 51 0 l 146 678 l 279 678 l 185 0 m 628 678 l 532 -11 q 476 -166 521 -94 q 361 -282 431 -237 l 289 -219 q 397 -4 381 -124 l 494 678 l 628 678 z "},"Ķ":{"ha":832,"x_min":58,"x_max":871,"o":"m 478 500 l 476 494 q 525 418 503 461 l 754 0 l 597 0 l 358 443 l 250 443 q 244 342 250 386 l 197 0 l 58 0 l 193 958 l 332 958 l 289 663 q 268 556 283 610 l 371 556 l 703 958 l 871 958 l 546 564 q 478 500 514 525 m 364 -81 l 400 -81 q 439 -124 447 -81 l 429 -200 q 353 -386 415 -287 l 293 -367 q 336 -224 326 -271 q 307 -215 317 -225 q 299 -187 297 -206 l 310 -119 q 326 -88 315 -96 q 364 -81 336 -81 z "},"ķ":{"ha":732,"x_min":46,"x_max":701,"o":"m 564 678 l 701 678 q 476 376 643 496 q 518 296 497 344 l 650 0 l 506 0 l 375 313 q 214 235 313 279 l 179 0 l 46 0 l 182 972 l 317 972 l 256 517 q 211 350 243 433 q 440 497 343 413 q 564 678 536 581 m 329 -81 l 365 -81 q 404 -124 413 -81 l 394 -200 q 318 -386 381 -287 l 258 -367 q 301 -224 292 -271 q 272 -215 282 -225 q 264 -187 263 -206 l 275 -119 q 291 -88 281 -96 q 329 -81 301 -81 z "},"Ĺ":{"ha":710,"x_min":86,"x_max":638,"o":"m 515 1171 l 221 1008 l 181 1071 l 453 1275 l 515 1171 m 329 958 l 224 203 q 296 117 213 117 l 638 117 l 635 8 q 267 -3 515 -3 q 121 51 169 -3 q 86 207 72 104 l 189 958 l 329 958 z "},"ĺ":{"ha":414,"x_min":69,"x_max":511,"o":"m 511 1200 l 215 1039 l 175 1100 l 447 1304 l 511 1200 m 317 972 l 207 193 q 217 128 200 147 q 281 110 233 110 l 344 110 l 350 4 q 221 -12 313 -12 q 99 35 140 -12 q 69 168 58 82 l 183 972 l 317 972 z "},"Ļ":{"ha":710,"x_min":86,"x_max":638,"o":"m 329 958 l 224 203 q 296 117 213 117 l 638 117 l 635 8 q 267 -3 515 -3 q 121 51 169 -3 q 86 207 72 104 l 189 958 l 329 958 m 350 -82 l 386 -82 q 425 -125 433 -82 l 415 -201 q 340 -389 404 -281 l 281 -369 q 322 -226 317 -256 q 293 -217 303 -228 q 285 -190 283 -207 l 296 -121 q 312 -90 301 -97 q 350 -82 322 -82 z "},"ļ":{"ha":414,"x_min":69,"x_max":350,"o":"m 317 972 l 207 193 q 217 128 200 147 q 281 110 233 110 l 344 110 l 350 4 q 221 -12 313 -12 q 99 35 140 -12 q 69 168 58 82 l 183 972 l 317 972 m 178 -82 l 214 -82 q 251 -125 260 -82 l 242 -201 q 167 -389 231 -281 l 107 -369 q 149 -226 143 -256 q 119 -217 129 -228 q 113 -190 110 -207 l 122 -121 q 138 -90 128 -97 q 178 -82 149 -82 z "},"Ľ":{"ha":710,"x_min":86,"x_max":638,"o":"m 490 960 l 526 960 q 565 915 574 960 l 554 840 q 479 653 543 753 l 419 672 q 463 815 454 775 q 433 824 443 814 q 425 851 422 833 l 436 919 q 452 951 442 943 q 490 960 463 960 m 329 958 l 224 203 q 296 117 213 117 l 638 117 l 635 8 q 267 -3 515 -3 q 121 51 169 -3 q 86 207 72 104 l 189 958 l 329 958 z "},"ľ":{"ha":414,"x_min":69,"x_max":518,"o":"m 317 972 l 207 193 q 217 128 200 147 q 281 110 233 110 l 344 110 l 350 4 q 221 -12 313 -12 q 99 35 140 -12 q 69 168 58 82 l 183 972 l 317 972 m 443 972 l 479 972 q 518 928 526 972 l 508 853 q 432 665 494 764 l 372 685 q 415 828 406 781 q 386 836 396 826 q 378 864 376 846 l 389 932 q 405 964 394 956 q 443 972 415 972 z "},"Ŀ":{"ha":710,"x_min":86,"x_max":638,"o":"m 329 958 l 224 203 q 296 117 213 117 l 638 117 l 635 8 q 267 -3 515 -3 q 121 51 169 -3 q 86 207 72 104 l 189 958 l 329 958 m 560 472 l 517 472 q 486 483 497 472 q 478 514 475 494 l 489 592 q 531 629 494 629 l 574 629 q 603 617 593 629 q 610 586 613 606 l 600 510 q 560 472 594 472 z "},"ŀ":{"ha":476,"x_min":69,"x_max":494,"o":"m 317 972 l 207 193 q 217 128 200 147 q 281 110 233 110 l 344 110 l 350 4 q 221 -12 313 -12 q 99 35 140 -12 q 69 168 58 82 l 183 972 l 317 972 m 444 439 l 401 439 q 371 451 382 439 q 363 482 360 463 l 374 558 q 415 596 379 596 l 458 596 q 488 584 478 596 q 494 554 497 572 l 485 476 q 444 439 478 439 z "},"Ł":{"ha":708,"x_min":28,"x_max":636,"o":"m 636 117 l 633 8 q 265 -3 514 -3 q 119 51 168 -3 q 85 207 71 104 l 118 456 l 28 419 l 36 503 l 131 540 l 188 958 l 328 958 l 278 597 l 450 665 l 442 582 l 265 513 l 222 203 q 294 117 211 117 l 636 117 z "},"ł":{"ha":418,"x_min":17,"x_max":443,"o":"m 253 511 l 207 193 q 217 128 200 147 q 281 110 233 110 l 344 110 l 350 4 q 221 -12 313 -12 q 99 35 140 -12 q 69 168 58 82 l 111 456 l 17 419 l 28 503 l 122 540 l 183 972 l 317 972 l 264 596 l 443 665 l 431 582 l 253 511 z "},"Ń":{"ha":981,"x_min":58,"x_max":943,"o":"m 832 1171 l 536 1008 l 497 1071 l 769 1275 l 832 1171 m 943 958 l 815 51 q 760 0 807 0 l 639 0 q 585 46 600 0 l 361 699 q 324 829 335 774 l 303 829 q 292 699 301 771 l 197 0 l 58 0 l 185 907 q 243 958 193 958 l 361 958 q 417 913 399 958 l 632 278 q 676 133 675 140 l 700 133 q 714 278 704 213 l 806 958 l 943 958 z "},"ń":{"ha":806,"x_min":44,"x_max":722,"o":"m 410 760 l 371 822 l 643 1025 l 706 922 l 410 760 m 247 678 l 240 532 q 561 696 424 696 q 692 647 647 696 q 722 506 736 597 l 650 0 l 517 0 l 582 472 q 577 559 590 536 q 519 582 564 582 q 401 547 463 582 q 239 433 339 513 l 179 0 l 44 0 l 140 678 l 247 678 z "},"Ņ":{"ha":981,"x_min":58,"x_max":943,"o":"m 943 958 l 815 51 q 760 0 807 0 l 639 0 q 585 46 600 0 l 361 699 q 324 829 335 774 l 303 829 q 292 699 301 771 l 197 0 l 58 0 l 185 907 q 243 958 193 958 l 361 958 q 417 913 399 958 l 632 278 q 676 133 675 140 l 700 133 q 714 278 704 213 l 806 958 l 943 958 m 438 -81 l 474 -81 q 511 -124 521 -81 l 501 -200 q 426 -386 490 -282 l 367 -367 q 408 -224 397 -279 q 379 -215 389 -225 q 372 -187 369 -204 l 382 -119 q 398 -88 388 -96 q 438 -81 408 -81 z "},"ņ":{"ha":806,"x_min":44,"x_max":722,"o":"m 247 678 l 240 532 q 561 696 424 696 q 692 647 647 696 q 722 506 736 597 l 650 0 l 517 0 l 582 472 q 577 559 590 536 q 519 582 564 582 q 401 547 463 582 q 239 433 339 513 l 179 0 l 44 0 l 140 678 l 247 678 m 335 -81 l 371 -81 q 410 -124 418 -81 l 400 -200 q 324 -386 389 -283 l 265 -367 q 307 -224 300 -260 q 278 -215 288 -225 q 269 -187 268 -206 l 281 -119 q 297 -88 286 -96 q 335 -81 307 -81 z "},"Ň":{"ha":981,"x_min":58,"x_max":943,"o":"m 847 1210 l 640 1031 l 543 1031 l 381 1219 l 435 1268 l 592 1131 l 603 1131 l 806 1268 l 847 1210 m 943 958 l 815 51 q 760 0 807 0 l 639 0 q 585 46 600 0 l 361 699 q 324 829 335 774 l 303 829 q 292 699 301 771 l 197 0 l 58 0 l 185 907 q 243 958 193 958 l 361 958 q 417 913 399 958 l 632 278 q 676 133 675 140 l 700 133 q 714 278 704 213 l 806 958 l 943 958 z "},"ň":{"ha":806,"x_min":44,"x_max":722,"o":"m 417 782 l 254 969 l 308 1019 l 465 881 l 476 881 l 681 1019 l 721 961 l 514 782 l 417 782 m 247 678 l 240 532 q 561 696 424 696 q 692 647 647 696 q 722 506 736 597 l 650 0 l 517 0 l 582 472 q 577 559 590 536 q 519 582 564 582 q 401 547 463 582 q 239 433 339 513 l 179 0 l 44 0 l 140 678 l 247 678 z "},"Ŋ":{"ha":981,"x_min":58,"x_max":943,"o":"m 943 958 l 793 -107 q 724 -250 779 -200 q 585 -299 668 -300 q 453 -278 508 -299 l 476 -192 l 540 -192 q 665 -90 651 -192 l 679 0 l 640 0 q 628 3 633 0 q 617 13 622 6 q 611 25 613 21 q 604 40 610 29 l 360 674 q 325 807 336 733 l 304 807 q 290 671 303 749 l 197 0 l 58 0 l 185 907 q 243 958 193 958 l 344 958 q 400 913 382 958 l 631 301 q 679 157 663 215 l 699 157 q 713 307 700 222 l 804 958 l 943 958 z "},"ŋ":{"ha":806,"x_min":44,"x_max":722,"o":"m 243 678 l 239 531 q 557 696 417 696 q 692 647 650 696 q 722 506 735 597 l 642 -68 q 440 -283 613 -283 q 314 -262 368 -283 l 338 -178 l 392 -178 q 469 -155 442 -178 q 506 -75 497 -132 l 582 472 q 576 550 590 528 q 515 572 563 572 q 399 538 461 572 q 239 433 336 504 l 179 0 l 44 0 l 140 678 l 243 678 z "},"Ō":{"ha":926,"x_min":92,"x_max":856,"o":"m 754 1086 l 363 1086 l 376 1185 l 768 1185 l 754 1086 m 538 976 q 818 862 742 976 q 856 474 894 747 q 720 90 818 197 q 415 -18 622 -18 q 133 95 211 -18 q 92 485 54 208 q 226 867 128 757 q 538 976 325 976 m 531 853 q 330 773 392 853 q 236 474 268 693 q 245 184 207 263 q 418 106 283 106 q 617 187 554 106 q 711 485 681 268 q 703 776 742 700 q 531 853 665 853 z "},"ō":{"ha":786,"x_min":61,"x_max":707,"o":"m 647 838 l 256 838 l 269 936 l 661 936 l 647 838 m 426 696 q 668 612 601 696 q 707 333 735 528 q 597 62 681 142 q 343 -18 514 -18 q 102 66 169 -18 q 61 343 35 150 q 170 615 88 535 q 426 696 253 696 m 426 582 q 270 531 319 582 q 200 333 221 479 q 210 144 181 193 q 343 94 240 94 q 500 148 451 94 q 568 343 549 201 q 559 533 589 483 q 426 582 529 582 z "},"Ő":{"ha":926,"x_min":92,"x_max":871,"o":"m 871 1224 l 650 1000 l 596 1044 l 788 1282 l 871 1224 m 636 1224 l 417 1000 l 360 1044 l 554 1282 l 636 1224 m 538 976 q 818 862 742 976 q 856 474 894 747 q 720 90 818 197 q 415 -18 622 -18 q 133 95 211 -18 q 92 485 54 208 q 226 867 128 757 q 538 976 325 976 m 531 853 q 330 773 392 853 q 236 474 268 693 q 245 184 207 263 q 418 106 283 106 q 617 187 554 106 q 711 485 681 268 q 703 776 742 700 q 531 853 665 853 z "},"ő":{"ha":786,"x_min":61,"x_max":764,"o":"m 764 974 l 543 751 l 489 796 l 681 1032 l 764 974 m 529 974 l 310 751 l 253 796 l 447 1032 l 529 974 m 426 696 q 668 612 601 696 q 707 333 735 528 q 597 62 681 142 q 343 -18 514 -18 q 102 66 169 -18 q 61 343 35 150 q 170 615 88 535 q 426 696 253 696 m 426 582 q 270 531 319 582 q 200 333 221 479 q 210 144 181 193 q 343 94 240 94 q 500 148 451 94 q 568 343 549 201 q 559 533 589 483 q 426 582 529 582 z "},"Œ":{"ha":1285,"x_min":92,"x_max":1292,"o":"m 1272 842 l 897 842 q 832 821 854 842 q 804 751 810 800 l 778 558 l 1179 558 l 1165 449 l 764 449 l 729 203 q 740 136 724 156 q 803 117 756 117 l 1171 117 l 1167 8 q 786 -3 1049 -3 q 649 31 701 -3 q 413 -18 538 -18 q 123 92 194 -18 q 92 485 51 203 q 228 870 131 764 q 536 976 325 976 q 764 935 663 976 q 882 961 814 961 q 1292 950 1167 961 l 1272 842 m 589 199 l 671 792 q 682 836 676 822 q 536 853 611 853 q 331 772 396 853 q 236 474 267 690 q 244 185 206 264 q 415 106 282 106 q 588 128 510 106 q 589 199 583 164 z "},"œ":{"ha":1254,"x_min":60,"x_max":1201,"o":"m 1115 113 l 1125 22 q 851 -17 1031 -17 q 610 75 679 -17 q 343 -18 526 -18 q 101 66 169 -18 q 60 343 33 150 q 170 616 88 536 q 426 696 253 696 q 667 613 601 696 q 944 696 746 696 q 1160 640 1103 696 q 1201 476 1217 585 q 1124 334 1185 378 q 938 281 1063 290 l 701 260 q 743 130 701 164 q 874 96 785 96 q 1115 113 968 96 m 343 94 q 499 148 450 94 q 568 343 549 201 q 559 533 589 483 q 426 582 529 582 q 270 531 319 582 q 200 333 221 479 q 210 144 181 194 q 343 94 240 94 m 711 360 l 936 381 q 1029 408 1000 385 q 1068 488 1058 431 q 1067 533 1071 515 q 1055 561 1063 551 q 1024 576 1047 571 q 982 581 1000 581 q 924 582 964 582 q 775 539 818 582 q 711 360 732 496 z "},"Ŕ":{"ha":863,"x_min":58,"x_max":806,"o":"m 457 1008 l 417 1071 l 689 1275 l 753 1171 l 457 1008 m 58 0 l 193 958 q 522 971 313 971 q 753 908 681 971 q 806 688 826 844 q 740 519 790 578 q 592 449 690 461 l 590 440 q 694 300 674 417 l 756 0 l 614 0 l 557 301 q 524 374 547 353 q 454 394 500 394 l 250 396 l 194 0 l 58 0 m 267 514 l 458 514 q 606 553 560 515 q 665 690 651 590 q 648 817 679 783 q 518 851 617 851 q 314 850 368 851 l 267 514 z "},"ŕ":{"ha":557,"x_min":44,"x_max":619,"o":"m 325 760 l 285 822 l 557 1025 l 619 922 l 325 760 m 243 678 l 236 522 q 542 696 406 696 l 578 696 l 544 569 l 507 569 q 399 538 454 569 q 239 432 343 507 l 179 0 l 44 0 l 140 678 l 243 678 z "},"Ŗ":{"ha":863,"x_min":58,"x_max":806,"o":"m 58 0 l 193 958 q 522 971 313 971 q 753 908 681 971 q 806 688 826 844 q 740 519 790 578 q 592 449 690 461 l 590 440 q 694 300 674 417 l 756 0 l 614 0 l 557 301 q 524 374 547 353 q 454 394 500 394 l 250 396 l 194 0 l 58 0 m 267 514 l 458 514 q 606 553 560 515 q 665 690 651 590 q 648 817 679 783 q 518 851 617 851 q 314 850 368 851 l 267 514 m 410 -81 l 446 -81 q 485 -124 493 -81 l 474 -200 q 399 -386 463 -282 l 339 -367 q 382 -224 372 -271 q 352 -215 363 -225 q 344 -187 342 -206 l 354 -119 q 370 -88 360 -96 q 410 -81 381 -81 z "},"ŗ":{"ha":557,"x_min":10,"x_max":578,"o":"m 578 696 l 544 569 l 507 569 q 399 538 454 569 q 239 432 343 507 l 179 0 l 44 0 l 140 678 l 243 678 l 236 522 q 542 696 406 696 l 578 696 m 79 -81 l 115 -81 q 154 -124 163 -81 l 144 -200 q 69 -386 133 -282 l 10 -367 q 51 -224 44 -260 q 22 -215 32 -225 q 14 -187 13 -206 l 25 -119 q 41 -88 31 -96 q 79 -81 51 -81 z "},"Ř":{"ha":863,"x_min":58,"x_max":806,"o":"m 463 1031 l 300 1219 l 354 1268 l 511 1131 l 522 1131 l 726 1268 l 767 1210 l 560 1031 l 463 1031 m 58 0 l 193 958 q 522 971 313 971 q 753 908 681 971 q 806 688 826 844 q 740 519 790 578 q 592 449 690 461 l 590 440 q 694 300 674 417 l 756 0 l 614 0 l 557 301 q 524 374 547 353 q 454 394 500 394 l 250 396 l 194 0 l 58 0 m 267 514 l 458 514 q 606 553 560 515 q 665 690 651 590 q 648 817 679 783 q 518 851 617 851 q 314 850 368 851 l 267 514 z "},"ř":{"ha":557,"x_min":44,"x_max":635,"o":"m 331 782 l 168 969 l 222 1019 l 379 881 l 390 881 l 594 1019 l 635 961 l 428 782 l 331 782 m 243 678 l 236 522 q 542 696 406 696 l 578 696 l 544 569 l 507 569 q 399 538 454 569 q 239 432 343 507 l 179 0 l 44 0 l 140 678 l 243 678 z "},"Ś":{"ha":781,"x_min":33,"x_max":749,"o":"m 717 1171 l 421 1008 l 382 1071 l 654 1275 l 717 1171 m 461 393 l 274 460 q 139 561 175 496 q 118 731 103 626 q 156 860 129 810 q 228 934 182 910 q 327 967 275 958 q 461 975 379 975 q 749 944 628 975 l 733 844 q 461 851 590 851 q 392 851 414 851 q 342 844 371 850 q 299 824 313 838 q 274 783 286 810 q 257 717 263 757 q 266 624 249 649 q 349 575 283 599 l 532 510 q 672 410 638 472 q 690 238 706 349 q 591 34 669 85 q 329 -17 513 -17 q 33 11 178 -17 l 51 114 q 328 107 268 107 q 494 134 450 108 q 551 251 539 160 q 542 345 560 319 q 461 393 524 371 z "},"ś":{"ha":706,"x_min":26,"x_max":657,"o":"m 656 922 l 360 760 l 319 822 l 592 1025 l 656 922 m 393 253 l 211 336 q 103 417 135 372 q 81 533 71 463 q 160 663 92 626 q 367 696 228 699 q 657 672 524 693 l 640 576 q 371 583 464 582 q 248 574 279 583 q 211 524 217 564 q 224 472 207 489 q 292 433 242 456 l 475 350 q 589 270 558 311 q 610 154 619 229 q 586 77 604 108 q 544 28 568 46 q 477 0 519 10 q 394 -12 435 -10 q 289 -15 353 -15 q 184 -13 222 -15 q 99 -5 146 -11 q 26 4 53 1 l 42 104 q 254 97 119 97 q 426 111 382 97 q 478 167 471 125 q 479 181 479 174 q 478 192 479 188 q 474 202 478 197 q 469 210 471 207 q 461 218 467 214 q 451 225 456 222 q 439 232 447 228 q 426 238 431 236 q 410 245 421 240 q 393 253 400 250 z "},"Ş":{"ha":781,"x_min":33,"x_max":749,"o":"m 461 393 l 274 460 q 139 561 175 496 q 118 731 103 626 q 156 860 129 810 q 228 934 182 910 q 327 967 275 958 q 461 975 379 975 q 749 944 628 975 l 733 844 q 461 851 590 851 q 392 851 414 851 q 342 844 371 850 q 299 824 313 838 q 274 783 286 810 q 257 717 263 757 q 266 624 249 649 q 349 575 283 599 l 532 510 q 672 410 638 472 q 690 238 706 349 q 591 34 669 85 q 329 -17 513 -17 q 33 11 178 -17 l 51 114 q 328 107 268 107 q 494 134 450 108 q 551 251 539 160 q 542 345 560 319 q 461 393 524 371 m 246 -137 l 263 -75 q 391 -86 354 -67 q 417 -171 428 -106 q 328 -306 401 -260 q 156 -337 256 -351 l 181 -267 q 273 -241 233 -268 q 321 -171 313 -214 q 310 -144 324 -150 q 246 -137 296 -137 z "},"ş":{"ha":706,"x_min":26,"x_max":657,"o":"m 393 253 l 211 336 q 103 417 135 372 q 81 533 71 463 q 160 663 92 626 q 367 696 228 699 q 657 672 524 693 l 640 576 q 371 583 464 582 q 248 574 279 583 q 211 524 217 564 q 224 472 207 489 q 292 433 242 456 l 475 350 q 589 270 558 311 q 610 154 619 229 q 586 77 604 108 q 544 28 568 46 q 477 0 519 10 q 394 -12 435 -10 q 289 -15 353 -15 q 184 -13 222 -15 q 99 -5 146 -11 q 26 4 53 1 l 42 104 q 254 97 119 97 q 426 111 382 97 q 478 167 471 125 q 479 181 479 174 q 478 192 479 188 q 474 202 478 197 q 469 210 471 207 q 461 218 467 214 q 451 225 456 222 q 439 232 447 228 q 426 238 431 236 q 410 245 421 240 q 393 253 400 250 m 199 -136 l 214 -74 q 344 -85 307 -65 q 368 -169 381 -104 q 281 -304 354 -258 q 107 -336 208 -350 l 132 -265 q 224 -240 185 -267 q 272 -169 264 -214 q 263 -144 276 -150 q 199 -136 250 -137 z "},"Š":{"ha":781,"x_min":33,"x_max":749,"o":"m 732 1210 l 525 1031 l 428 1031 l 265 1219 l 319 1268 l 476 1131 l 488 1131 l 690 1268 l 732 1210 m 461 393 l 274 460 q 139 561 175 496 q 118 731 103 626 q 156 860 129 810 q 228 934 182 910 q 327 967 275 958 q 461 975 379 975 q 749 944 628 975 l 733 844 q 461 851 590 851 q 392 851 414 851 q 342 844 371 850 q 299 824 313 838 q 274 783 286 810 q 257 717 263 757 q 266 624 249 649 q 349 575 283 599 l 532 510 q 672 410 638 472 q 690 238 706 349 q 591 34 669 85 q 329 -17 513 -17 q 33 11 178 -17 l 51 114 q 328 107 268 107 q 494 134 450 108 q 551 251 539 160 q 542 345 560 319 q 461 393 524 371 z "},"š":{"ha":706,"x_min":26,"x_max":671,"o":"m 671 961 l 464 782 l 367 782 l 204 969 l 258 1019 l 414 881 l 425 881 l 629 1019 l 671 961 m 393 253 l 211 336 q 103 417 135 372 q 81 533 71 463 q 160 663 92 626 q 367 696 228 699 q 657 672 524 693 l 640 576 q 371 583 464 582 q 248 574 279 583 q 211 524 217 564 q 224 472 207 489 q 292 433 242 456 l 475 350 q 589 270 558 311 q 610 154 619 229 q 586 77 604 108 q 544 28 568 46 q 477 0 519 10 q 394 -12 435 -10 q 289 -15 353 -15 q 184 -13 222 -15 q 99 -5 146 -11 q 26 4 53 1 l 42 104 q 254 97 119 97 q 426 111 382 97 q 478 167 471 125 q 479 181 479 174 q 478 192 479 188 q 474 202 478 197 q 469 210 471 207 q 461 218 467 214 q 451 225 456 222 q 439 232 447 228 q 426 238 431 236 q 410 245 421 240 q 393 253 400 250 z "},"Ţ":{"ha":800,"x_min":88,"x_max":850,"o":"m 833 835 l 529 835 l 411 0 l 272 0 l 390 835 l 88 835 l 106 958 l 850 958 l 833 835 m 246 -121 l 263 -58 q 391 -69 354 -50 q 417 -154 428 -89 q 328 -289 401 -243 q 156 -321 256 -335 l 181 -250 q 273 -225 233 -251 q 321 -154 313 -199 q 310 -128 324 -135 q 246 -121 297 -122 z "},"ţ":{"ha":535,"x_min":56,"x_max":536,"o":"m 313 574 l 258 193 q 267 127 251 144 q 332 110 283 110 l 433 110 l 439 6 q 281 -12 378 -12 q 151 38 190 -12 q 124 181 111 88 l 179 574 l 56 574 l 68 671 l 194 678 l 224 876 l 356 876 l 328 678 l 536 678 l 522 574 l 313 574 m 151 -135 l 168 -72 q 296 -83 258 -62 q 322 -167 333 -103 q 235 -301 307 -256 q 61 -335 163 -347 l 86 -264 q 178 -238 139 -265 q 226 -168 218 -211 q 216 -141 229 -147 q 151 -135 203 -135 z "},"Ť":{"ha":800,"x_min":88,"x_max":850,"o":"m 443 1031 l 281 1219 l 335 1268 l 490 1131 l 501 1131 l 706 1268 l 747 1210 l 540 1031 l 443 1031 m 833 835 l 529 835 l 411 0 l 272 0 l 390 835 l 88 835 l 106 958 l 850 958 l 833 835 z "},"ť":{"ha":535,"x_min":56,"x_max":561,"o":"m 488 1076 l 524 1076 q 561 1033 569 1076 l 551 957 q 476 769 540 878 l 417 789 q 458 932 453 903 q 429 941 439 931 q 422 969 419 951 l 432 1038 q 448 1069 438 1061 q 488 1076 458 1076 m 328 678 l 536 678 l 522 574 l 313 574 l 258 193 q 267 127 251 144 q 332 110 283 110 l 433 110 l 439 6 q 281 -12 378 -12 q 151 38 190 -12 q 124 181 111 88 l 179 574 l 56 574 l 68 671 l 194 678 l 224 876 l 356 876 l 328 678 z "},"Ŧ":{"ha":800,"x_min":88,"x_max":850,"o":"m 529 835 l 493 576 l 693 576 l 683 501 l 482 501 l 411 0 l 272 0 l 343 501 l 161 501 l 171 576 l 354 576 l 390 835 l 88 835 l 106 958 l 850 958 l 833 835 l 529 835 z "},"ŧ":{"ha":535,"x_min":56,"x_max":536,"o":"m 313 574 l 296 456 l 474 456 l 464 379 l 285 379 l 258 193 q 267 127 251 144 q 332 110 283 110 l 433 110 l 439 6 q 281 -12 378 -12 q 151 38 190 -12 q 124 181 111 88 l 153 379 l 63 379 l 72 456 l 163 456 l 179 574 l 56 574 l 68 671 l 194 678 l 224 876 l 356 876 l 328 678 l 536 678 l 522 574 l 313 574 z "},"Ū":{"ha":922,"x_min":104,"x_max":892,"o":"m 753 1086 l 361 1086 l 375 1185 l 767 1185 l 753 1086 m 892 958 l 807 367 q 688 69 778 157 q 415 -18 597 -18 q 151 74 228 -18 q 104 374 75 165 l 185 958 l 325 958 l 242 367 q 258 163 221 219 q 411 106 294 106 q 590 165 532 106 q 669 374 649 225 l 751 958 l 892 958 z "},"ū":{"ha":790,"x_min":65,"x_max":726,"o":"m 656 843 l 263 843 l 276 942 l 669 942 l 656 843 m 726 678 l 632 0 l 528 0 l 536 142 q 228 -18 371 -18 q 94 33 136 -18 q 65 171 53 83 l 136 678 l 271 678 l 203 206 q 211 122 194 146 q 275 97 228 97 q 386 131 332 97 q 535 247 440 164 l 593 678 l 726 678 z "},"Ů":{"ha":922,"x_min":104,"x_max":892,"o":"m 572 1288 q 683 1244 642 1288 q 715 1133 724 1201 q 665 1033 707 1074 q 558 992 624 992 q 449 1035 489 992 q 415 1144 408 1078 q 464 1247 422 1206 q 572 1288 506 1288 m 574 1221 q 515 1198 538 1221 q 488 1140 492 1175 q 504 1080 483 1101 q 558 1058 525 1058 q 617 1082 594 1058 q 643 1142 640 1106 q 627 1199 646 1176 q 574 1221 608 1221 m 892 958 l 807 367 q 688 69 778 157 q 415 -18 597 -18 q 151 74 228 -18 q 104 374 75 165 l 185 958 l 325 958 l 242 367 q 258 163 221 219 q 411 106 294 106 q 590 165 532 106 q 669 374 649 225 l 751 958 l 892 958 z "},"ů":{"ha":790,"x_min":65,"x_max":726,"o":"m 460 749 q 350 792 390 749 q 317 901 310 835 q 366 1003 324 963 q 474 1044 408 1044 q 585 1001 543 1044 q 618 890 626 958 q 569 789 611 829 q 460 749 526 749 m 390 897 q 407 837 386 858 q 461 815 428 815 q 519 839 496 815 q 546 899 542 863 q 529 956 549 933 q 475 978 510 978 q 416 955 439 978 q 390 897 393 932 m 726 678 l 632 0 l 528 0 l 536 142 q 228 -18 371 -18 q 94 33 136 -18 q 65 171 53 83 l 136 678 l 271 678 l 203 206 q 211 122 194 146 q 275 97 228 97 q 386 131 332 97 q 535 247 440 164 l 593 678 l 726 678 z "},"Ű":{"ha":922,"x_min":104,"x_max":892,"o":"m 635 1224 l 415 1000 l 358 1044 l 553 1282 l 635 1224 m 869 1224 l 649 1000 l 594 1044 l 786 1282 l 869 1224 m 892 958 l 807 367 q 688 69 778 157 q 415 -18 597 -18 q 151 74 228 -18 q 104 374 75 165 l 185 958 l 325 958 l 242 367 q 258 163 221 219 q 411 106 294 106 q 590 165 532 106 q 669 374 649 225 l 751 958 l 892 958 z "},"ű":{"ha":790,"x_min":65,"x_max":771,"o":"m 317 757 l 261 801 l 454 1039 l 536 981 l 317 757 m 497 801 l 689 1039 l 771 981 l 551 757 l 497 801 m 593 678 l 726 678 l 632 0 l 528 0 l 536 142 q 228 -18 371 -18 q 94 33 136 -18 q 65 171 53 83 l 136 678 l 271 678 l 203 206 q 211 122 194 146 q 275 97 228 97 q 386 131 332 97 q 535 247 440 164 l 593 678 z "},"Ų":{"ha":922,"x_min":104,"x_max":892,"o":"m 892 958 l 807 367 q 697 80 779 168 q 454 -17 615 -8 q 340 -172 390 -85 q 339 -232 314 -218 q 429 -224 364 -246 l 446 -282 q 347 -308 390 -303 q 277 -302 303 -312 q 238 -272 251 -292 q 226 -226 224 -253 q 243 -168 228 -199 q 385 -17 282 -92 q 144 83 214 -10 q 104 374 75 175 l 185 958 l 325 958 l 242 367 q 258 163 221 219 q 411 106 294 106 q 590 165 532 106 q 669 374 649 225 l 751 958 l 892 958 z "},"ų":{"ha":790,"x_min":65,"x_max":726,"o":"m 726 678 l 632 0 q 514 -160 565 -71 q 513 -219 488 -206 q 603 -211 538 -233 l 619 -269 q 520 -295 564 -290 q 451 -290 476 -300 q 411 -260 425 -279 q 399 -213 397 -240 q 415 -156 400 -186 q 564 0 457 -78 l 528 0 l 536 142 q 228 -18 371 -18 q 94 33 136 -18 q 65 171 53 83 l 136 678 l 271 678 l 203 206 q 211 122 194 146 q 275 97 228 97 q 386 131 332 97 q 535 247 440 164 l 593 678 l 726 678 z "},"Ŵ":{"ha":1314,"x_min":115,"x_max":1351,"o":"m 990 1060 l 942 1007 l 774 1147 l 763 1147 l 556 1010 l 517 1068 l 722 1247 l 818 1247 l 990 1060 m 1351 958 l 1038 38 q 981 0 1022 0 l 829 0 q 796 13 810 0 q 781 44 782 25 l 738 749 q 733 802 736 767 q 731 856 731 838 l 701 856 l 667 743 l 431 39 q 375 0 418 0 l 225 0 q 190 13 204 0 q 174 43 175 25 l 115 958 l 257 958 l 290 225 q 292 165 292 206 q 293 103 293 124 l 325 103 q 365 231 331 122 l 596 915 q 653 958 610 958 l 799 958 q 831 944 818 958 q 846 910 844 931 l 896 224 q 900 103 901 143 l 933 103 q 971 228 949 156 l 1206 958 l 1351 958 z "},"ŵ":{"ha":1190,"x_min":58,"x_max":1172,"o":"m 888 811 l 839 758 l 672 899 l 660 899 l 453 763 l 415 821 l 619 1000 l 715 1000 l 888 811 m 289 106 l 308 106 q 376 158 349 106 q 444 343 408 218 q 504 644 476 460 q 542 678 508 678 l 689 678 q 722 647 718 678 l 785 106 l 801 106 q 858 150 831 106 q 951 343 914 236 q 1032 678 1004 488 l 1172 678 q 1054 289 1128 467 q 939 74 990 139 q 811 0 883 0 l 722 0 q 694 10 706 0 q 681 36 683 21 l 622 590 l 604 590 q 553 310 593 465 q 468 99 515 185 q 303 0 414 0 l 226 0 q 183 36 190 0 l 58 678 l 199 678 l 289 106 z "},"Ŷ":{"ha":793,"x_min":88,"x_max":857,"o":"m 292 1011 l 254 1069 l 458 1249 l 554 1249 l 726 1061 l 678 1008 l 510 1149 l 499 1149 l 292 1011 m 451 331 l 406 0 l 265 0 l 314 338 l 88 958 l 228 958 l 365 563 q 390 451 385 501 l 403 451 q 458 567 421 508 l 706 958 l 857 958 l 451 331 z "},"ŷ":{"ha":757,"x_min":49,"x_max":738,"o":"m 219 763 l 182 821 l 388 1000 l 482 1000 l 656 811 l 606 758 l 439 899 l 428 899 l 219 763 m 597 678 l 738 678 q 542 118 663 347 q 327 -174 433 -87 q 74 -285 221 -260 l 49 -189 q 204 -126 138 -168 q 332 0 271 -85 l 269 0 q 215 17 238 0 q 188 65 193 35 l 57 678 l 199 678 l 301 129 q 329 106 306 106 l 397 106 q 413 134 403 115 q 425 158 422 153 q 597 678 547 413 z "},"Ÿ":{"ha":793,"x_min":88,"x_max":857,"o":"m 390 1063 l 346 1063 q 313 1097 308 1063 l 325 1175 q 368 1213 331 1213 l 408 1213 q 443 1175 447 1213 l 431 1099 q 390 1063 426 1063 m 624 1063 l 578 1063 q 544 1097 543 1063 l 557 1175 q 600 1213 564 1213 l 642 1213 q 675 1175 681 1213 l 663 1099 q 624 1063 658 1063 m 451 331 l 406 0 l 265 0 l 314 338 l 88 958 l 228 958 l 365 563 q 390 451 385 501 l 403 451 q 458 567 421 508 l 706 958 l 857 958 l 451 331 z "},"Ź":{"ha":783,"x_min":7,"x_max":790,"o":"m 433 1008 l 393 1071 l 665 1275 l 729 1171 l 433 1008 m 790 958 l 772 840 l 176 118 l 682 118 l 665 0 l 7 0 l 24 118 l 619 840 l 132 840 l 150 958 l 790 958 z "},"ź":{"ha":706,"x_min":8,"x_max":674,"o":"m 346 760 l 307 822 l 579 1025 l 642 922 l 346 760 m 660 568 l 176 110 l 600 110 l 585 0 l 8 0 l 22 110 l 506 568 l 93 568 l 108 678 l 674 678 l 660 568 z "},"Ż":{"ha":783,"x_min":7,"x_max":790,"o":"m 513 1050 l 469 1050 q 440 1062 450 1050 q 433 1092 431 1074 l 443 1169 q 483 1207 447 1207 l 526 1207 q 565 1164 569 1207 l 554 1088 q 513 1050 549 1050 m 790 958 l 772 840 l 176 118 l 682 118 l 665 0 l 7 0 l 24 118 l 619 840 l 132 840 l 150 958 l 790 958 z "},"ż":{"ha":706,"x_min":8,"x_max":674,"o":"m 426 800 l 383 800 q 353 812 364 800 q 346 843 343 824 l 356 919 q 397 957 361 957 l 440 957 q 470 945 460 957 q 478 915 481 933 l 467 838 q 426 800 461 800 m 660 568 l 176 110 l 600 110 l 585 0 l 8 0 l 22 110 l 506 568 l 93 568 l 108 678 l 674 678 l 660 568 z "},"Ž":{"ha":783,"x_min":7,"x_max":790,"o":"m 439 1031 l 278 1219 l 332 1268 l 488 1131 l 499 1131 l 703 1268 l 743 1210 l 538 1031 l 439 1031 m 790 958 l 772 840 l 176 118 l 682 118 l 665 0 l 7 0 l 24 118 l 619 840 l 132 840 l 150 958 l 790 958 z "},"ž":{"ha":706,"x_min":8,"x_max":674,"o":"m 353 782 l 190 969 l 244 1019 l 401 881 l 413 881 l 617 1019 l 657 961 l 450 782 l 353 782 m 660 568 l 176 110 l 600 110 l 585 0 l 8 0 l 22 110 l 506 568 l 93 568 l 108 678 l 674 678 l 660 568 z "},"ƒ":{"ha":617,"x_min":-146,"x_max":675,"o":"m 649 861 l 551 861 q 460 839 490 861 q 415 754 429 817 l 369 557 l 560 557 l 536 451 l 344 451 l 238 -10 q 160 -158 214 -108 q 4 -207 106 -207 q -146 -197 -89 -207 l -119 -96 l -29 -96 q 60 -71 29 -96 q 106 11 92 -46 l 208 451 l 72 451 l 92 544 l 233 556 l 285 775 q 524 974 331 974 q 675 963 613 974 l 649 861 z "},"Ș":{"ha":781,"x_min":33,"x_max":749,"o":"m 461 393 l 274 460 q 139 561 175 496 q 118 731 103 626 q 156 860 129 810 q 228 934 182 910 q 327 967 275 958 q 461 975 379 975 q 749 944 628 975 l 733 844 q 461 851 590 851 q 392 851 414 851 q 342 844 371 850 q 299 824 313 838 q 274 783 286 810 q 257 717 263 757 q 266 624 249 649 q 349 575 283 599 l 532 510 q 672 410 638 472 q 690 238 706 349 q 591 34 669 85 q 329 -17 513 -17 q 33 11 178 -17 l 51 114 q 328 107 268 107 q 494 134 450 108 q 551 251 539 160 q 542 345 560 319 q 461 393 524 371 m 343 -81 l 379 -81 q 418 -124 426 -81 l 407 -200 q 332 -386 396 -282 l 272 -367 q 315 -224 306 -271 q 285 -215 296 -225 q 278 -187 275 -206 l 288 -119 q 304 -88 293 -96 q 343 -81 315 -81 z "},"ș":{"ha":706,"x_min":26,"x_max":657,"o":"m 393 253 l 211 336 q 103 417 135 372 q 81 533 71 463 q 160 663 92 626 q 367 696 228 699 q 657 672 524 693 l 640 576 q 371 583 464 582 q 248 574 279 583 q 211 524 217 564 q 224 472 207 489 q 292 433 242 456 l 475 350 q 589 270 558 311 q 610 154 619 229 q 586 77 604 108 q 544 28 568 46 q 477 0 519 10 q 394 -12 435 -10 q 289 -15 353 -15 q 184 -13 222 -15 q 99 -5 146 -11 q 26 4 53 1 l 42 104 q 254 97 119 97 q 426 111 382 97 q 478 167 471 125 q 479 181 479 174 q 478 192 479 188 q 474 202 478 197 q 469 210 471 207 q 461 218 467 214 q 451 225 456 222 q 439 232 447 228 q 426 238 431 236 q 410 245 421 240 q 393 253 400 250 m 278 -81 l 314 -81 q 351 -124 360 -81 l 342 -200 q 267 -386 331 -282 l 207 -367 q 249 -224 242 -260 q 219 -215 229 -225 q 213 -187 210 -204 l 222 -119 q 238 -88 228 -96 q 278 -81 249 -81 z "},"Ț":{"ha":800,"x_min":88,"x_max":850,"o":"m 833 835 l 529 835 l 411 0 l 272 0 l 390 835 l 88 835 l 106 958 l 850 958 l 833 835 m 318 -81 l 354 -81 q 393 -124 401 -81 l 383 -200 q 308 -386 372 -282 l 249 -367 q 290 -224 283 -260 q 261 -215 271 -225 q 253 -187 251 -206 l 264 -119 q 280 -88 269 -96 q 318 -81 290 -81 z "},"ț":{"ha":535,"x_min":56,"x_max":536,"o":"m 313 574 l 258 193 q 267 127 251 144 q 332 110 283 110 l 433 110 l 439 6 q 281 -12 378 -12 q 151 38 190 -12 q 124 181 111 88 l 179 574 l 56 574 l 68 671 l 194 678 l 224 876 l 356 876 l 328 678 l 536 678 l 522 574 l 313 574 m 242 -81 l 278 -81 q 315 -124 325 -81 l 306 -200 q 231 -386 294 -282 l 171 -367 q 213 -224 201 -279 q 183 -215 193 -225 q 176 -187 174 -204 l 186 -119 q 202 -88 192 -96 q 242 -81 213 -81 z "},"ˆ":{"ha":590,"x_min":133,"x_max":606,"o":"m 606 804 l 557 751 l 390 892 l 378 892 l 171 756 l 133 813 l 338 992 l 433 992 l 606 804 z "},"ˇ":{"ha":590,"x_min":149,"x_max":615,"o":"m 615 954 l 408 775 l 311 775 l 149 963 l 203 1011 l 358 874 l 369 874 l 574 1011 l 615 954 z "},"˘":{"ha":525,"x_min":139,"x_max":563,"o":"m 496 972 l 563 957 q 493 823 556 874 q 332 772 431 772 q 174 826 226 772 q 139 963 121 879 l 207 967 q 234 896 201 921 q 331 871 267 871 q 445 898 401 871 q 496 972 489 925 z "},"˙":{"ha":310,"x_min":165,"x_max":297,"o":"m 215 954 l 258 954 q 289 942 278 954 q 297 913 300 931 l 286 835 q 244 797 281 797 l 201 797 q 172 809 182 797 q 165 840 163 821 l 175 917 q 215 954 181 954 z "},"˚":{"ha":419,"x_min":136,"x_max":438,"o":"m 293 1032 q 403 989 361 1032 q 438 879 444 946 q 388 777 429 818 q 279 736 346 736 q 169 779 210 736 q 136 889 129 822 q 185 991 143 950 q 293 1032 226 1032 m 294 965 q 235 942 258 965 q 210 885 213 919 q 226 825 204 846 q 281 804 247 804 q 338 827 315 804 q 364 886 361 850 q 348 943 367 921 q 294 965 329 965 z "},"˛":{"ha":349,"x_min":-25,"x_max":208,"o":"m 146 4 l 208 0 q 90 -160 142 -71 q 89 -219 64 -206 q 179 -211 114 -233 l 196 -269 q 97 -295 140 -290 q 27 -290 53 -300 q -12 -260 1 -279 q -24 -213 -26 -240 q -7 -156 -22 -186 q 146 4 35 -75 z "},"˜":{"ha":588,"x_min":138,"x_max":606,"o":"m 199 806 l 138 811 q 176 937 140 894 q 263 975 211 979 q 369 938 310 971 q 461 901 428 906 q 520 913 501 896 q 544 971 539 931 l 606 965 q 569 843 604 885 q 481 806 535 801 q 365 844 426 810 q 281 882 304 878 q 223 867 242 886 q 199 806 204 849 z "},"˝":{"ha":643,"x_min":138,"x_max":647,"o":"m 413 957 l 193 735 l 138 779 l 331 1017 l 413 957 m 647 957 l 426 735 l 372 779 l 565 1017 l 647 957 z "},"Δ":{"ha":876,"x_min":-21,"x_max":796,"o":"m 796 56 l 788 0 l -21 0 l -14 56 l 449 958 l 588 958 l 796 56 m 646 113 l 517 715 q 501 824 508 758 q 456 713 478 756 l 160 113 l 646 113 z "},"Ω":{"ha":993,"x_min":14,"x_max":908,"o":"m 29 122 l 163 122 q 256 113 208 122 q 135 294 171 196 q 118 528 99 393 q 256 866 149 756 q 569 976 364 976 q 908 515 974 976 q 829 277 886 367 q 653 111 772 188 q 743 122 697 122 l 883 122 l 868 0 l 514 0 l 526 118 q 689 278 636 190 q 761 508 742 367 q 743 774 788 694 q 564 854 699 854 q 356 771 425 854 q 260 494 288 688 q 266 271 239 350 q 381 115 293 192 l 367 0 l 14 0 l 29 122 z "},"μ":{"ha":826,"x_min":18,"x_max":746,"o":"m 746 678 l 650 0 l 549 0 l 549 99 q 275 -18 393 -18 q 165 13 211 -18 q 164 -87 169 -40 l 136 -276 l 18 -276 l 85 196 l 151 678 l 286 678 l 219 206 q 235 132 214 154 q 308 110 256 110 q 544 189 394 110 l 611 678 l 746 678 z "},"π":{"ha":889,"x_min":58,"x_max":892,"o":"m 876 569 l 751 569 l 671 0 l 538 0 l 617 569 l 318 569 l 239 0 l 104 0 l 185 569 l 58 569 l 74 678 l 892 678 l 876 569 z "},"Ё":{"ha":778,"x_min":78,"x_max":783,"o":"m 432 1090 l 386 1090 q 353 1125 349 1090 l 365 1203 q 408 1239 371 1239 l 449 1239 q 478 1231 471 1239 q 483 1203 486 1222 l 471 1126 q 432 1090 467 1090 m 664 1090 l 619 1090 q 586 1125 582 1090 l 599 1203 q 642 1239 603 1239 l 682 1239 q 711 1231 704 1239 q 715 1203 718 1222 l 704 1126 q 664 1090 700 1090 m 765 842 l 388 842 q 322 822 343 842 q 294 751 300 801 l 268 557 l 672 557 l 658 450 l 253 450 l 219 203 q 230 136 214 156 q 292 117 246 117 l 663 117 l 660 8 q 275 -3 540 -3 q 115 51 164 -3 q 78 199 65 104 l 160 792 q 225 917 171 872 q 371 961 279 961 q 783 950 658 961 l 765 842 z "},"Ђ":{"ha":1039,"x_min":89,"x_max":972,"o":"m 529 835 l 486 525 q 772 617 621 617 q 940 551 883 617 q 972 319 996 486 q 844 61 944 135 q 572 -7 744 -12 l 567 94 q 756 151 699 106 q 833 317 813 196 q 839 413 839 378 q 820 467 839 449 q 782 492 801 486 q 732 497 763 497 q 606 476 663 497 q 469 404 549 456 l 413 0 l 274 0 l 392 835 l 89 835 l 107 958 l 851 958 l 835 835 l 529 835 z "},"Ѓ":{"ha":717,"x_min":56,"x_max":765,"o":"m 739 1171 l 443 1008 l 403 1071 l 675 1275 l 739 1171 m 56 0 l 164 775 q 230 913 176 865 q 364 961 283 961 q 765 949 643 961 l 746 842 l 404 842 q 328 822 349 842 q 299 743 307 803 l 194 0 l 56 0 z "},"Є":{"ha":797,"x_min":90,"x_max":808,"o":"m 808 946 l 786 839 q 571 850 676 850 q 440 839 490 850 q 350 796 390 828 q 286 707 310 764 q 246 557 263 650 l 647 557 l 633 450 l 229 450 q 224 247 208 321 q 283 143 239 172 q 418 108 326 114 q 688 122 529 103 l 694 15 q 415 -17 563 -24 q 126 105 197 -7 q 90 485 56 217 q 233 870 128 765 q 560 975 339 975 q 808 946 700 975 z "},"Ѕ":{"ha":781,"x_min":33,"x_max":749,"o":"m 461 393 l 274 460 q 139 561 175 496 q 118 731 103 626 q 156 860 129 810 q 228 934 182 910 q 327 967 275 958 q 461 975 379 975 q 749 944 628 975 l 733 844 q 461 851 590 851 q 392 851 414 851 q 342 844 371 850 q 299 824 313 838 q 274 783 286 810 q 257 717 263 757 q 266 624 249 649 q 349 575 283 599 l 532 510 q 672 410 638 472 q 690 238 706 349 q 591 34 669 85 q 329 -17 513 -17 q 33 11 178 -17 l 51 114 q 328 107 268 107 q 494 134 450 108 q 551 251 539 160 q 542 345 560 319 q 461 393 524 371 z "},"І":{"ha":369,"x_min":58,"x_max":333,"o":"m 199 0 l 58 0 l 193 958 l 333 958 l 199 0 z "},"Ї":{"ha":371,"x_min":58,"x_max":469,"o":"m 163 1213 l 203 1213 q 232 1203 225 1213 q 236 1175 239 1194 l 224 1099 q 185 1063 222 1063 l 140 1063 q 107 1097 103 1063 l 119 1175 q 163 1213 124 1213 m 394 1213 l 435 1213 q 469 1175 475 1213 l 457 1099 q 417 1063 453 1063 l 372 1063 q 339 1097 335 1063 l 351 1175 q 394 1213 358 1213 m 199 0 l 58 0 l 193 958 l 333 958 l 199 0 z "},"Ј":{"ha":475,"x_min":-14,"x_max":442,"o":"m 442 958 l 336 207 q 266 42 321 99 q 124 -12 211 -14 q -14 7 39 -12 l 13 106 l 76 106 q 197 206 182 106 l 301 958 l 442 958 z "},"Љ":{"ha":1353,"x_min":-12,"x_max":1276,"o":"m 813 579 l 994 579 q 1235 511 1171 579 q 1276 275 1300 443 q 1181 50 1254 111 q 946 -11 1107 -11 q 593 0 717 -11 l 713 846 l 567 846 q 488 824 514 846 q 450 746 463 803 q 422 617 442 707 q 394 499 401 528 q 370 408 386 469 q 343 318 354 347 q 315 250 332 289 q 276 179 297 211 q 156 52 224 96 q -7 -3 89 8 l -12 119 q 150 225 94 142 q 176 270 164 247 q 197 313 188 293 q 217 366 206 332 q 234 422 228 400 q 252 492 240 443 q 270 569 264 540 q 292 666 276 597 q 317 776 307 735 q 389 914 338 869 q 529 958 440 958 l 865 958 l 813 579 m 747 111 l 918 110 q 1079 145 1036 110 q 1138 288 1122 181 q 1124 428 1153 390 q 986 465 1096 465 l 797 465 l 747 111 z "},"Њ":{"ha":1356,"x_min":60,"x_max":1279,"o":"m 814 579 l 999 579 q 1239 511 1175 579 q 1279 275 1303 443 q 1184 49 1257 110 q 949 -11 1111 -11 q 596 0 718 -11 l 661 464 l 265 464 l 200 0 l 60 0 l 194 958 l 335 958 l 281 578 l 676 578 l 731 958 l 868 958 l 814 579 m 749 111 l 928 110 q 1083 145 1042 110 q 1140 288 1125 181 q 1127 428 1156 390 q 989 465 1099 465 l 799 465 l 749 111 z "},"Ћ":{"ha":1065,"x_min":88,"x_max":993,"o":"m 529 835 l 485 519 q 793 617 642 617 q 993 394 1024 617 l 938 0 l 799 0 l 851 372 q 838 468 861 442 q 744 494 815 494 q 613 473 674 494 q 467 397 551 451 l 411 0 l 272 0 l 390 835 l 88 835 l 106 958 l 850 958 l 833 835 l 529 835 z "},"Ќ":{"ha":835,"x_min":58,"x_max":851,"o":"m 463 1008 l 422 1071 l 694 1275 l 758 1171 l 463 1008 m 478 500 l 476 494 q 639 378 586 479 q 724 81 675 306 q 740 0 738 17 l 600 0 q 586 68 594 24 q 569 148 575 122 q 554 216 564 174 q 538 278 544 258 q 519 327 531 297 q 497 370 508 357 q 471 401 486 383 q 438 426 456 419 q 399 438 421 433 q 350 443 376 443 l 251 443 q 244 342 253 406 l 197 0 l 58 0 l 193 958 l 332 958 l 289 663 q 267 556 283 604 l 358 556 q 457 578 414 556 q 545 663 500 600 q 615 771 590 726 q 693 928 639 815 q 708 958 703 947 l 851 958 q 815 881 824 900 q 782 812 806 861 q 748 745 758 763 q 716 690 738 728 q 682 637 694 651 q 648 595 669 622 q 610 557 626 568 q 571 531 593 546 q 526 509 549 515 q 478 500 503 503 z "},"Ѝ":{"ha":961,"x_min":58,"x_max":924,"o":"m 647 1069 l 600 1008 l 329 1178 l 401 1274 l 647 1069 m 789 0 l 656 0 l 746 646 q 774 788 756 708 l 767 788 q 703 679 719 703 l 211 0 l 58 0 l 193 958 l 328 958 l 238 313 q 207 171 226 240 l 214 171 q 283 282 239 218 l 772 958 l 924 958 l 789 0 z "},"Ў":{"ha":789,"x_min":61,"x_max":850,"o":"m 649 1233 l 715 1218 q 647 1084 710 1135 q 486 1033 585 1033 q 327 1087 381 1033 q 292 1222 274 1140 l 360 1228 q 388 1157 354 1182 q 485 1132 421 1132 q 599 1159 556 1132 q 649 1233 642 1186 m 850 958 l 496 236 q 383 59 440 121 q 243 -10 325 -3 q 61 13 157 -17 l 83 113 q 161 108 133 110 q 217 112 189 107 q 257 122 244 117 q 288 147 269 128 q 316 184 306 167 q 349 240 326 201 l 371 278 l 325 278 q 232 349 247 278 l 100 958 l 239 958 l 349 413 q 372 394 353 394 l 431 394 l 701 958 l 850 958 z "},"Џ":{"ha":939,"x_min":60,"x_max":900,"o":"m 900 958 l 765 0 l 478 0 l 443 -210 l 346 -210 l 369 0 l 60 0 l 194 958 l 335 958 l 215 113 l 642 113 l 760 958 l 900 958 z "},"А":{"ha":865,"x_min":-44,"x_max":801,"o":"m 614 289 l 231 289 l 103 0 l -44 0 l 386 924 q 440 958 400 958 l 582 958 q 613 947 600 958 q 628 918 626 935 l 801 0 l 663 0 l 614 289 m 594 411 l 535 771 q 524 854 529 799 l 482 854 l 446 771 l 285 411 l 594 411 z "},"Б":{"ha":829,"x_min":58,"x_max":790,"o":"m 315 842 l 275 551 l 461 551 q 704 488 640 551 q 746 265 768 425 q 649 46 722 104 q 414 -12 576 -12 q 58 0 200 -12 l 193 958 q 494 967 343 967 q 790 958 640 967 l 761 842 l 315 842 m 260 443 l 213 107 l 394 107 q 550 141 508 107 q 607 279 592 175 q 592 411 619 379 q 454 443 565 443 l 260 443 z "},"В":{"ha":861,"x_min":58,"x_max":799,"o":"m 58 0 l 193 958 q 507 969 306 969 q 751 914 683 969 q 799 714 819 858 q 739 558 783 610 q 607 499 694 507 l 606 492 q 761 233 797 476 q 667 39 739 89 q 428 -11 594 -11 q 58 0 185 -11 m 272 550 l 464 550 q 608 583 564 550 q 665 708 651 617 q 643 824 678 796 q 500 851 608 851 l 314 851 l 272 550 m 210 108 l 407 107 q 567 140 521 107 q 626 268 613 172 q 605 406 640 371 q 457 443 569 442 l 257 443 l 210 108 z "},"Г":{"ha":717,"x_min":56,"x_max":765,"o":"m 56 0 l 164 775 q 230 913 176 865 q 364 961 283 961 q 765 949 643 961 l 746 842 l 404 842 q 328 822 349 842 q 299 743 307 803 l 194 0 l 56 0 z "},"Д":{"ha":968,"x_min":-58,"x_max":888,"o":"m 888 113 l 874 10 l 843 -210 l 735 -210 l 753 0 l 93 0 l 50 -210 l -58 -210 l -28 1 l -12 113 l 78 113 q 313 776 229 363 q 384 911 328 864 q 528 958 440 958 l 888 958 l 769 113 l 888 113 m 631 113 l 733 846 l 560 846 q 444 746 464 846 q 231 113 369 349 l 631 113 z "},"Е":{"ha":778,"x_min":78,"x_max":783,"o":"m 765 842 l 388 842 q 322 822 343 842 q 294 751 300 801 l 268 557 l 672 557 l 658 450 l 253 450 l 219 203 q 230 136 214 156 q 292 117 246 117 l 663 117 l 660 8 q 275 -3 540 -3 q 115 51 164 -3 q 78 199 65 104 l 160 792 q 225 917 171 872 q 371 961 279 961 q 783 950 658 961 l 765 842 z "},"Ж":{"ha":1258,"x_min":-17,"x_max":1274,"o":"m 908 500 l 907 494 q 1002 458 964 488 q 1066 366 1040 428 q 1110 233 1092 304 q 1153 43 1128 161 q 1161 0 1158 14 l 1024 0 q 957 286 969 249 q 853 432 919 406 q 789 443 825 443 l 694 443 q 690 342 697 392 l 643 0 l 510 0 l 558 347 q 581 443 564 385 l 492 443 q 415 427 450 443 q 354 387 381 411 q 294 308 328 363 q 235 208 260 254 q 167 72 211 161 q 131 0 143 25 l -17 0 q 156 338 108 264 q 343 493 239 467 q 382 500 361 497 l 383 506 q 317 526 346 511 q 265 576 288 542 q 226 639 242 610 q 195 731 211 668 q 170 833 179 793 q 144 958 161 872 l 281 958 q 289 918 283 944 q 310 814 303 847 q 333 729 318 781 q 360 653 347 678 q 394 603 374 629 q 439 566 414 576 q 497 556 464 556 l 597 556 q 604 667 596 604 l 644 958 l 778 958 l 735 663 q 714 556 729 610 l 797 556 q 888 578 847 556 q 972 666 928 601 q 1042 779 1015 731 q 1124 942 1068 828 q 1132 958 1129 953 l 1274 958 q 1126 661 1165 724 q 936 504 1043 529 q 908 500 922 501 z "},"З":{"ha":763,"x_min":-1,"x_max":700,"o":"m 147 840 l 143 947 q 413 969 260 969 q 649 913 578 969 q 700 714 719 856 q 641 558 685 610 q 510 499 597 507 l 508 492 q 661 233 696 474 q 572 40 642 92 q 332 -11 501 -11 q -1 22 131 -11 l 15 122 q 308 103 168 103 q 463 137 417 103 q 524 268 510 171 q 502 406 538 369 q 358 442 467 442 l 190 442 l 204 551 l 367 551 q 506 585 463 551 q 561 708 549 618 q 543 828 575 800 q 404 857 511 857 q 147 840 304 857 z "},"И":{"ha":961,"x_min":58,"x_max":924,"o":"m 789 0 l 656 0 l 746 646 q 774 788 756 708 l 767 788 q 703 679 719 703 l 211 0 l 58 0 l 193 958 l 328 958 l 238 313 q 207 171 226 240 l 214 171 q 283 282 239 218 l 772 958 l 924 958 l 789 0 z "},"Й":{"ha":961,"x_min":58,"x_max":924,"o":"m 708 1226 l 810 1226 q 742 1087 804 1140 q 581 1033 679 1033 q 422 1087 475 1033 q 386 1226 368 1140 l 486 1226 q 589 1107 468 1107 q 708 1226 694 1107 m 789 0 l 656 0 l 746 646 q 774 788 756 708 l 767 788 q 703 679 719 703 l 211 0 l 58 0 l 193 958 l 328 958 l 238 313 q 207 171 226 240 l 214 171 q 283 282 239 218 l 772 958 l 924 958 l 789 0 z "},"К":{"ha":835,"x_min":58,"x_max":851,"o":"m 478 500 l 476 494 q 639 378 586 479 q 724 81 675 306 q 740 0 738 17 l 600 0 q 586 68 594 24 q 569 148 575 122 q 554 216 564 174 q 538 278 544 258 q 519 327 531 297 q 497 370 508 357 q 471 401 486 383 q 438 426 456 419 q 399 438 421 433 q 350 443 376 443 l 251 443 q 244 342 253 406 l 197 0 l 58 0 l 193 958 l 332 958 l 289 663 q 267 556 283 604 l 358 556 q 457 578 414 556 q 545 663 500 600 q 615 771 590 726 q 693 928 639 815 q 708 958 703 947 l 851 958 q 815 881 824 900 q 782 812 806 861 q 748 745 758 763 q 716 690 738 728 q 682 637 694 651 q 648 595 669 622 q 610 557 626 568 q 571 531 593 546 q 526 509 549 515 q 478 500 503 503 z "},"Л":{"ha":908,"x_min":-33,"x_max":869,"o":"m 869 958 l 735 0 l 596 0 l 715 846 l 543 846 q 463 824 489 846 q 426 746 438 803 q 364 480 382 551 q 318 325 346 408 q 254 179 290 242 q -28 -3 147 -7 l -33 111 q 54 149 17 125 q 126 229 92 174 q 205 406 175 306 q 294 782 235 507 q 515 958 333 958 l 869 958 z "},"М":{"ha":1222,"x_min":40,"x_max":1156,"o":"m 951 958 l 1103 958 q 1144 942 1131 958 q 1156 899 1158 926 l 1068 0 l 931 0 l 1018 843 l 992 843 l 701 158 q 638 114 683 114 l 517 114 q 461 164 468 114 l 354 843 l 326 843 l 179 0 l 40 0 l 204 904 q 265 958 213 958 l 414 958 q 465 908 458 958 l 556 347 q 571 217 561 315 l 596 217 q 626 290 607 244 q 647 344 644 336 l 888 913 q 951 958 906 957 z "},"Н":{"ha":928,"x_min":58,"x_max":890,"o":"m 890 958 l 756 0 l 617 0 l 681 450 l 261 450 l 199 0 l 58 0 l 193 958 l 333 958 l 278 571 l 697 571 l 751 958 l 890 958 z "},"О":{"ha":926,"x_min":92,"x_max":856,"o":"m 538 976 q 818 862 742 976 q 856 474 894 747 q 720 90 818 197 q 415 -18 622 -18 q 133 95 211 -18 q 92 485 54 208 q 226 867 128 757 q 538 976 325 976 m 531 853 q 330 773 392 853 q 236 474 268 693 q 245 184 207 263 q 418 106 283 106 q 617 187 554 106 q 711 485 681 268 q 703 776 742 700 q 531 853 665 853 z "},"П":{"ha":931,"x_min":58,"x_max":893,"o":"m 893 958 l 758 0 l 618 0 l 738 846 l 317 846 l 199 0 l 58 0 l 193 958 l 893 958 z "},"Р":{"ha":819,"x_min":58,"x_max":799,"o":"m 58 0 l 193 958 q 522 971 313 971 q 758 900 693 971 q 799 663 822 829 q 761 510 785 568 q 695 420 738 453 q 597 376 653 388 q 454 364 542 364 q 250 378 369 364 l 197 0 l 58 0 m 265 483 l 449 483 q 601 522 558 483 q 661 674 644 561 q 644 815 676 779 q 517 851 613 851 q 317 850 371 851 l 265 483 z "},"С":{"ha":789,"x_min":92,"x_max":797,"o":"m 686 122 l 693 15 q 407 -17 578 -17 q 126 102 200 -17 q 92 485 53 221 q 226 866 129 757 q 532 975 324 975 q 797 946 681 975 l 775 840 q 529 851 665 851 q 383 821 436 851 q 293 708 329 790 q 236 474 257 626 q 243 187 206 265 q 410 107 281 108 q 686 122 565 106 z "},"Т":{"ha":800,"x_min":88,"x_max":850,"o":"m 833 835 l 529 835 l 411 0 l 272 0 l 390 835 l 88 835 l 106 958 l 850 958 l 833 835 z "},"У":{"ha":789,"x_min":61,"x_max":850,"o":"m 850 958 l 496 236 q 383 59 440 121 q 243 -10 325 -3 q 61 13 157 -17 l 83 113 q 161 108 133 110 q 217 112 189 107 q 257 122 244 117 q 288 147 269 128 q 316 184 306 167 q 349 240 326 201 l 371 278 l 325 278 q 232 349 247 278 l 100 958 l 239 958 l 349 413 q 372 394 353 394 l 431 394 l 701 958 l 850 958 z "},"Ф":{"ha":1138,"x_min":79,"x_max":1089,"o":"m 729 1024 l 711 888 q 1031 785 943 876 q 1089 482 1118 693 q 949 182 1058 269 q 596 86 840 94 l 578 -49 l 439 -49 l 457 88 q 134 190 219 99 q 79 493 49 281 q 219 792 108 704 q 571 889 329 881 l 589 1024 l 729 1024 m 688 772 l 607 203 q 852 275 779 213 q 949 493 925 338 q 915 707 969 647 q 688 772 860 767 m 479 203 l 560 772 q 315 701 388 764 q 219 482 242 639 q 252 268 197 328 q 479 203 307 208 z "},"Х":{"ha":851,"x_min":-29,"x_max":883,"o":"m 571 496 l 765 0 l 624 0 l 456 444 l 421 444 l 132 0 l -29 0 l 307 496 l 128 958 l 269 958 l 421 550 l 457 550 l 731 958 l 883 958 l 571 496 z "},"Ц":{"ha":960,"x_min":60,"x_max":882,"o":"m 881 113 l 865 0 l 836 -210 l 728 -210 l 746 0 l 60 0 l 194 958 l 335 958 l 215 113 l 624 113 l 743 958 l 882 958 l 763 113 l 881 113 z "},"Ч":{"ha":869,"x_min":99,"x_max":832,"o":"m 832 958 l 697 0 l 558 0 l 621 449 q 450 371 538 397 q 296 344 363 344 q 132 399 181 344 q 99 568 83 454 l 154 958 l 293 958 l 243 590 q 255 496 232 524 q 346 468 278 468 q 483 491 418 468 q 638 565 547 514 l 693 958 l 832 958 z "},"Ш":{"ha":1296,"x_min":58,"x_max":1258,"o":"m 1258 958 l 1124 0 l 58 0 l 193 958 l 329 958 l 211 113 l 539 113 l 658 958 l 793 958 l 675 113 l 1004 113 l 1122 958 l 1258 958 z "},"Щ":{"ha":1331,"x_min":60,"x_max":1251,"o":"m 1133 113 l 1250 113 l 1235 0 l 1206 -210 l 1097 -210 l 1115 0 l 60 0 l 194 958 l 331 958 l 211 113 l 536 113 l 656 958 l 792 958 l 672 113 l 997 113 l 1115 958 l 1251 958 l 1133 113 z "},"Ъ":{"ha":1029,"x_min":86,"x_max":954,"o":"m 489 579 l 672 579 q 912 511 847 579 q 954 275 976 443 q 858 50 932 111 q 624 -11 785 -11 q 269 0 393 -11 l 386 835 l 86 835 l 103 958 l 543 958 l 489 579 m 424 111 l 603 110 q 758 145 717 110 q 815 288 800 181 q 802 428 831 390 q 664 465 774 465 l 474 465 l 424 111 z "},"Ы":{"ha":1185,"x_min":58,"x_max":1147,"o":"m 279 579 l 465 579 q 705 511 640 579 q 747 275 769 443 q 651 50 725 111 q 415 -11 578 -11 q 58 0 183 -11 l 193 958 l 333 958 l 279 579 m 1147 958 l 1013 0 l 872 0 l 1007 958 l 1147 958 m 214 111 l 394 110 q 551 145 508 110 q 608 288 593 181 q 594 428 622 390 q 457 465 565 465 l 264 465 l 214 111 z "},"Ь":{"ha":822,"x_min":58,"x_max":747,"o":"m 279 579 l 465 579 q 705 511 640 579 q 747 275 769 443 q 651 50 725 111 q 415 -11 578 -11 q 58 0 183 -11 l 193 958 l 333 958 l 279 579 m 214 111 l 394 110 q 551 145 508 110 q 608 288 593 181 q 594 428 622 390 q 457 465 565 465 l 264 465 l 214 111 z "},"Э":{"ha":800,"x_min":3,"x_max":729,"o":"m 140 839 l 135 947 q 381 975 243 975 q 688 865 608 975 q 729 474 767 754 q 594 97 694 204 q 281 -17 493 -10 q 3 18 125 -22 l 24 122 q 282 108 150 103 q 485 189 421 115 q 583 451 550 263 l 175 451 l 189 558 l 597 558 q 603 646 603 607 q 597 715 603 685 q 583 766 592 744 q 559 803 575 788 q 526 827 543 818 q 483 841 508 836 q 431 848 457 846 q 369 850 406 850 q 140 839 256 850 z "},"Ю":{"ha":1292,"x_min":60,"x_max":1222,"o":"m 278 554 l 488 554 q 623 883 529 790 q 900 976 717 976 q 1181 863 1101 976 q 1222 474 1261 749 q 1085 88 1182 194 q 776 -18 988 -18 q 511 85 582 -18 q 471 442 440 189 l 261 442 l 200 0 l 60 0 l 194 958 l 335 958 l 278 554 m 1076 485 q 1068 774 1106 694 q 900 853 1031 853 q 705 770 768 853 q 611 474 642 688 q 617 185 582 264 q 779 106 653 106 q 981 188 917 106 q 1076 485 1046 271 z "},"Я":{"ha":851,"x_min":-3,"x_max":814,"o":"m 679 0 l 539 0 l 593 385 l 404 383 q 322 361 354 383 q 267 285 289 339 l 149 0 l -3 0 l 124 297 q 279 433 188 428 l 281 439 q 183 493 219 450 q 135 592 146 536 q 135 713 125 649 q 235 913 154 854 q 474 971 315 971 q 814 958 675 971 l 679 0 m 610 503 l 658 850 q 475 851 608 851 q 333 817 378 851 q 275 694 289 783 q 292 551 261 600 q 413 503 324 503 l 610 503 z "},"а":{"ha":803,"x_min":68,"x_max":735,"o":"m 642 0 l 536 0 l 542 125 q 249 -17 419 -17 q 82 64 125 -17 q 68 347 39 144 q 111 531 83 460 q 185 638 139 603 q 279 684 231 672 q 404 696 328 696 q 735 660 568 696 l 642 0 m 540 244 l 589 581 q 446 583 461 583 q 335 576 374 583 q 269 541 297 569 q 228 468 240 513 q 203 338 215 424 q 197 143 183 186 q 276 100 211 100 q 403 135 342 100 q 540 244 464 171 z "},"б":{"ha":797,"x_min":78,"x_max":764,"o":"m 751 1008 l 764 889 q 587 848 688 860 q 454 828 486 836 q 363 794 400 814 q 301 742 325 774 q 265 685 278 711 q 238 614 253 658 l 208 517 l 211 517 q 309 619 250 581 q 476 657 368 657 q 681 572 631 657 q 713 328 731 488 q 610 65 692 146 q 361 -17 528 -17 q 245 -4 294 -17 q 165 28 196 8 q 114 83 133 49 q 86 151 94 118 q 78 235 78 183 q 82 325 78 286 q 94 425 86 364 q 122 585 108 522 q 159 710 136 647 q 214 811 182 772 q 294 882 246 850 q 410 935 343 914 q 567 965 458 949 q 751 1008 676 981 m 442 543 q 281 492 326 543 q 221 325 236 442 q 235 147 204 197 q 364 96 265 96 q 506 147 458 96 q 572 335 553 199 q 563 501 590 458 q 442 543 536 543 z "},"в":{"ha":756,"x_min":54,"x_max":676,"o":"m 497 365 l 496 361 q 630 306 593 354 q 653 163 667 258 q 569 22 638 63 q 339 -18 500 -18 q 232 -12 276 -18 q 151 9 188 -7 q 95 51 115 25 q 64 117 75 76 q 54 215 53 158 q 67 347 56 271 q 110 527 83 458 q 181 633 136 596 q 282 683 226 671 q 426 696 338 696 q 500 693 468 696 q 573 679 532 690 q 638 649 614 668 q 674 593 661 631 q 676 504 686 556 q 497 365 651 382 m 207 390 l 372 407 q 503 439 468 417 q 547 501 539 461 q 528 569 560 551 q 407 588 496 588 q 269 552 307 588 q 207 390 231 517 m 367 311 l 193 294 q 186 201 182 239 q 195 142 190 164 q 221 110 200 121 q 263 95 242 99 q 324 92 285 92 q 469 114 426 92 q 522 201 513 136 q 498 294 531 268 q 367 311 465 321 z "},"г":{"ha":722,"x_min":35,"x_max":658,"o":"m 106 544 l 103 651 q 383 696 228 689 q 469 697 428 696 q 548 688 511 697 q 611 662 585 678 q 651 613 638 646 q 658 533 664 581 q 631 448 653 486 q 576 387 608 410 q 517 351 543 364 q 463 328 492 339 q 454 325 457 326 l 258 247 q 191 209 211 226 q 168 164 171 192 q 191 110 164 122 q 281 99 218 97 q 611 153 451 103 l 615 43 q 283 -18 460 -18 q 89 26 154 -18 q 35 167 24 71 q 87 280 43 236 q 219 358 131 324 l 399 428 q 498 475 469 453 q 529 531 526 497 q 501 576 532 565 q 374 583 471 588 q 106 544 265 578 z "},"д":{"ha":788,"x_min":69,"x_max":713,"o":"m 206 890 l 226 989 q 354 967 297 981 q 468 930 411 953 q 565 875 525 907 q 640 798 604 843 q 690 694 675 753 q 713 560 706 636 q 703 389 719 483 q 592 82 674 182 q 332 -18 511 -18 q 110 62 174 -18 q 69 308 47 142 q 382 624 110 624 q 576 553 504 624 q 556 683 575 628 q 508 772 536 739 q 426 830 479 806 q 328 865 374 854 q 206 890 282 876 m 340 94 q 494 165 446 94 q 565 404 542 235 q 572 464 571 447 q 413 510 504 510 q 270 458 317 510 q 208 299 224 407 q 223 141 192 188 q 340 94 254 94 z "},"е":{"ha":749,"x_min":63,"x_max":694,"o":"m 615 113 l 624 22 q 344 -17 525 -17 q 104 74 171 -17 q 63 357 38 165 q 170 624 89 553 q 438 696 251 696 q 653 640 596 696 q 694 476 710 585 q 617 334 678 378 q 429 281 556 290 l 194 260 q 235 130 193 164 q 365 96 276 96 q 615 113 460 96 m 203 360 l 429 381 q 522 408 493 385 q 560 488 551 431 q 538 568 568 553 q 417 583 508 583 q 267 540 311 583 q 203 360 224 496 z "},"ж":{"ha":1051,"x_min":-15,"x_max":1029,"o":"m 739 353 l 738 350 q 861 279 826 339 q 942 39 896 219 q 951 0 947 14 l 824 0 q 757 229 778 188 q 656 301 724 296 q 642 301 649 301 l 567 301 q 564 235 569 261 l 532 0 l 411 0 l 446 240 q 461 301 450 267 l 390 301 q 331 289 358 301 q 283 260 304 276 q 234 198 263 243 q 185 117 206 153 q 122 0 165 81 l -15 0 q 13 53 -6 18 q 72 165 53 131 q 119 242 90 199 q 172 303 149 286 q 226 335 194 321 q 299 354 258 350 l 300 358 q 233 380 261 364 q 188 416 206 396 q 153 482 169 436 q 128 565 138 528 q 103 678 119 601 l 231 678 q 298 462 267 521 q 403 403 329 403 l 476 403 q 481 483 474 442 l 507 678 l 628 678 l 599 478 q 583 403 592 432 l 640 403 q 763 462 714 403 q 896 678 813 521 l 1029 678 q 991 602 1000 621 q 959 541 982 583 q 926 485 936 499 q 895 443 915 471 q 862 406 875 415 q 828 381 849 396 q 785 361 807 367 q 739 353 764 356 z "},"з":{"ha":694,"x_min":-1,"x_max":614,"o":"m 106 567 l 101 667 q 322 690 189 690 q 560 651 492 690 q 614 503 629 613 q 566 392 603 428 q 449 349 529 356 l 447 346 q 569 294 535 339 q 590 163 603 250 q 509 21 575 54 q 278 -12 443 -12 q -1 10 104 -12 l 15 111 q 271 100 149 100 q 415 119 379 100 q 458 201 450 138 q 435 276 465 257 q 311 296 406 294 l 140 299 l 151 394 l 315 394 q 439 416 403 394 q 483 496 475 438 q 462 563 490 549 q 324 578 433 578 q 106 567 214 578 z "},"и":{"ha":796,"x_min":67,"x_max":729,"o":"m 729 678 l 635 0 l 531 0 l 539 142 q 231 -18 374 -18 q 96 32 138 -18 q 67 171 54 82 l 138 678 l 274 678 l 206 206 q 213 122 197 146 q 276 97 229 97 q 388 131 333 97 q 536 247 443 164 l 596 678 l 729 678 z "},"й":{"ha":796,"x_min":67,"x_max":729,"o":"m 585 978 l 686 978 q 617 838 679 892 q 457 783 556 783 q 299 838 353 783 q 263 978 244 892 l 363 978 q 465 857 344 857 q 585 978 571 857 m 729 678 l 635 0 l 531 0 l 539 142 q 231 -18 374 -18 q 96 32 138 -18 q 67 171 54 82 l 138 678 l 274 678 l 206 206 q 213 122 197 146 q 276 97 229 97 q 388 131 333 97 q 536 247 443 164 l 596 678 l 729 678 z "},"к":{"ha":744,"x_min":47,"x_max":722,"o":"m 424 353 l 422 350 q 556 281 519 340 q 635 46 592 222 q 646 0 642 15 l 513 0 q 449 218 465 181 q 350 297 417 286 q 314 300 335 300 l 217 300 q 214 233 219 265 l 181 0 l 47 0 l 143 678 l 276 678 l 249 479 q 231 404 242 436 l 313 404 q 451 463 401 404 q 579 678 501 521 l 722 678 q 578 431 632 496 q 424 353 524 365 z "},"л":{"ha":788,"x_min":-19,"x_max":722,"o":"m 722 678 l 626 0 l 492 0 l 574 574 l 443 574 q 379 554 401 574 q 344 486 357 535 q 233 142 300 297 q 140 24 199 58 q -10 -7 81 -10 l -19 103 q 69 132 49 115 q 114 192 94 150 q 221 519 156 283 q 285 640 242 601 q 410 678 329 678 l 722 678 z "},"м":{"ha":1042,"x_min":33,"x_max":956,"o":"m 772 678 l 908 678 q 945 663 932 678 q 956 625 958 649 l 894 0 l 772 0 l 826 576 l 806 576 l 586 117 q 532 76 568 76 l 426 76 q 378 122 388 76 l 285 576 l 261 576 l 157 0 l 33 0 l 147 631 q 201 678 156 678 l 336 678 q 383 632 374 678 l 457 271 q 474 164 471 193 l 496 164 q 536 264 521 233 l 717 638 q 772 678 735 678 z "},"н":{"ha":808,"x_min":47,"x_max":743,"o":"m 743 678 l 647 0 l 514 0 l 558 308 l 224 308 l 181 0 l 47 0 l 143 678 l 275 678 l 238 411 l 572 411 l 610 678 l 743 678 z "},"о":{"ha":790,"x_min":63,"x_max":710,"o":"m 172 615 q 213 656 172 615 q 429 696 254 696 q 670 612 604 696 q 710 333 736 528 q 600 62 683 142 q 344 -18 517 -18 q 104 66 172 -18 q 63 343 36 150 q 172 615 89 535 m 429 582 q 273 531 322 582 q 203 333 224 479 q 213 144 183 194 q 344 94 242 94 q 502 148 453 94 q 571 343 551 201 q 561 533 590 483 q 429 582 532 582 z "},"п":{"ha":811,"x_min":47,"x_max":725,"o":"m 250 678 l 243 532 q 564 696 426 696 q 694 647 650 696 q 725 506 739 597 l 653 0 l 519 0 l 585 472 q 580 559 593 536 q 522 582 567 582 q 403 548 464 582 q 240 433 343 514 l 182 0 l 47 0 l 143 678 l 250 678 z "},"р":{"ha":806,"x_min":7,"x_max":724,"o":"m 250 678 l 242 533 q 390 647 308 600 q 540 694 472 694 q 664 664 621 694 q 724 552 707 633 q 718 331 740 471 q 675 146 703 217 q 603 40 647 75 q 511 -7 558 4 q 390 -18 464 -18 q 176 0 293 -18 q 167 -129 174 -81 l 142 -278 l 7 -278 l 143 678 l 250 678 m 243 431 l 197 94 q 340 93 261 93 q 450 100 413 93 q 516 135 488 107 q 557 208 544 163 q 582 340 569 254 q 587 535 601 492 q 508 578 572 578 q 391 539 463 578 q 243 431 319 500 z "},"с":{"ha":681,"x_min":63,"x_max":651,"o":"m 572 111 l 581 19 q 343 -17 476 -17 q 99 67 164 -17 q 63 344 35 150 q 172 617 90 539 q 429 696 254 696 q 651 660 565 696 l 631 576 q 450 582 547 582 q 274 533 328 582 q 203 335 221 483 q 219 141 185 186 q 368 96 253 96 q 572 111 486 96 z "},"т":{"ha":1215,"x_min":47,"x_max":1129,"o":"m 246 678 l 239 533 q 532 696 400 696 q 651 656 610 696 q 692 543 692 615 q 838 660 771 624 q 972 696 904 696 q 1101 645 1061 696 q 1129 506 1142 594 l 1058 0 l 925 0 l 992 472 q 982 558 1000 533 q 919 582 964 582 q 822 551 871 582 q 678 431 772 519 l 618 0 l 488 0 l 554 472 q 546 556 561 531 q 482 582 531 582 q 383 551 432 582 q 240 435 333 519 l 181 0 l 47 0 l 143 678 l 246 678 z "},"у":{"ha":760,"x_min":6,"x_max":739,"o":"m 600 678 l 739 678 q 547 117 676 382 q 411 -110 482 -19 q 274 -237 340 -200 q 139 -288 208 -275 q 6 -285 69 -301 l 18 -175 q 342 0 199 -210 l 272 0 q 218 17 240 0 q 190 65 196 35 l 60 678 l 201 678 l 304 129 q 332 106 308 106 l 403 106 l 429 157 q 600 678 554 408 z "},"ф":{"ha":1000,"x_min":61,"x_max":919,"o":"m 642 972 l 604 693 q 872 598 799 682 q 919 333 944 514 q 799 73 894 153 q 503 -15 704 -7 l 467 -276 l 343 -276 l 378 -15 q 109 80 182 -4 q 61 343 36 164 q 183 606 88 525 q 479 694 278 686 l 518 972 l 642 972 m 582 582 l 513 99 q 710 160 649 106 q 790 343 772 215 q 763 524 808 472 q 582 582 718 576 m 400 97 l 468 581 q 272 517 333 572 q 190 333 210 461 q 219 155 174 206 q 400 97 264 104 z "},"х":{"ha":738,"x_min":-31,"x_max":733,"o":"m 482 350 l 653 0 l 518 0 l 376 300 l 346 300 l 119 0 l -31 0 l 242 351 l 83 678 l 218 678 l 343 404 l 381 404 l 588 678 l 733 678 l 482 350 z "},"ц":{"ha":835,"x_min":67,"x_max":751,"o":"m 738 0 l 708 -207 l 594 -207 l 638 0 q 559 35 588 3 q 536 129 531 68 l 536 138 q 231 -18 372 -18 q 96 32 138 -18 q 67 171 54 82 l 138 678 l 274 678 l 206 206 q 213 122 197 146 q 276 97 229 97 q 388 131 333 97 q 536 246 442 164 l 596 678 l 729 678 l 654 131 q 679 100 651 100 l 751 100 l 738 0 z "},"ч":{"ha":750,"x_min":68,"x_max":685,"o":"m 685 678 l 589 0 l 454 0 l 496 297 q 240 231 354 231 q 100 268 143 229 q 68 383 57 307 l 110 678 l 244 678 l 210 424 q 217 357 201 374 q 285 340 232 340 q 511 413 388 340 l 549 678 l 685 678 z "},"ш":{"ha":1190,"x_min":67,"x_max":1124,"o":"m 1124 678 l 1028 0 l 924 0 l 931 142 q 650 -18 781 -18 q 533 22 574 -18 q 492 132 492 61 q 224 -18 350 -18 q 95 33 136 -18 q 67 171 54 83 l 138 678 l 272 678 l 206 206 q 215 128 197 150 q 281 106 233 106 q 369 132 329 106 q 506 247 410 158 l 565 678 l 696 678 l 629 206 q 638 129 622 153 q 704 106 654 106 q 775 123 740 106 q 834 160 810 140 q 929 243 858 181 l 990 678 l 1124 678 z "},"щ":{"ha":1229,"x_min":67,"x_max":1146,"o":"m 1146 100 l 1132 0 l 1103 -207 l 989 -207 l 1036 0 q 954 34 985 1 q 929 129 924 67 l 931 142 q 650 -18 781 -18 q 533 22 574 -18 q 492 132 492 61 q 224 -18 350 -18 q 95 33 136 -18 q 67 171 54 83 l 138 678 l 272 678 l 206 206 q 215 128 197 150 q 281 106 233 106 q 369 132 329 106 q 506 247 410 158 l 565 678 l 696 678 l 629 206 q 638 129 622 153 q 704 106 654 106 q 775 123 740 106 q 835 160 810 140 q 931 244 860 181 l 990 678 l 1124 678 l 1049 131 q 1074 100 1044 100 l 1146 100 z "},"ъ":{"ha":876,"x_min":53,"x_max":793,"o":"m 493 678 l 421 404 q 542 422 486 422 q 757 374 701 422 q 793 201 813 325 q 712 34 774 78 q 514 -10 650 -10 q 468 -9 488 -10 q 421 -6 449 -8 q 373 0 393 -4 q 328 13 353 4 q 289 33 304 22 q 259 63 274 44 q 239 103 244 81 q 233 157 233 126 q 243 225 233 188 l 336 571 l 53 571 l 68 678 l 493 678 m 394 306 l 368 203 q 389 118 354 140 q 493 96 424 96 q 611 120 576 96 q 658 217 646 144 q 644 302 669 279 q 535 325 618 325 q 394 306 468 325 z "},"ы":{"ha":1006,"x_min":68,"x_max":939,"o":"m 268 678 l 228 396 q 376 422 307 422 q 590 374 536 422 q 628 201 644 326 q 549 35 611 79 q 350 -10 488 -10 q 304 -9 319 -10 q 257 -7 289 -8 q 206 0 225 -6 q 160 14 188 6 q 118 38 133 22 q 88 72 103 53 q 69 121 74 92 q 68 186 64 150 l 139 678 l 268 678 m 939 678 l 844 0 l 708 0 l 804 678 l 939 678 m 215 301 l 199 185 q 224 113 190 131 q 328 96 257 96 q 448 121 413 96 q 493 217 483 146 q 478 302 503 279 q 369 325 453 325 q 215 301 303 325 z "},"ь":{"ha":711,"x_min":68,"x_max":628,"o":"m 268 678 l 228 396 q 376 422 307 422 q 590 374 536 422 q 628 201 644 326 q 549 35 611 79 q 350 -10 488 -10 q 304 -9 319 -10 q 257 -7 289 -8 q 206 0 225 -6 q 160 14 188 6 q 118 38 133 22 q 88 72 103 53 q 69 121 74 92 q 68 186 64 150 l 139 678 l 268 678 m 215 301 l 199 185 q 224 113 190 131 q 328 96 257 96 q 448 121 413 96 q 493 217 483 146 q 478 302 503 279 q 369 325 453 325 q 215 301 303 325 z "},"э":{"ha":707,"x_min":3,"x_max":622,"o":"m 100 568 l 94 663 q 306 688 175 688 q 576 610 503 688 q 622 331 649 533 q 510 58 597 133 q 231 -15 424 -18 q 3 15 96 -14 l 21 108 q 217 100 122 100 q 403 135 349 96 q 481 297 458 175 l 139 297 l 153 393 l 493 393 q 461 542 503 510 q 299 575 419 575 q 100 568 194 575 z "},"ю":{"ha":1110,"x_min":49,"x_max":1026,"o":"m 239 401 l 404 401 q 513 632 436 568 q 746 696 590 696 q 988 617 922 696 q 1026 335 1054 538 q 919 61 999 135 q 661 -12 839 -12 q 435 55 497 -12 q 389 297 372 122 l 224 297 l 182 0 l 49 0 l 143 678 l 278 678 l 239 401 m 888 346 q 876 533 907 483 q 742 582 846 582 q 588 529 636 582 q 522 336 540 476 q 531 149 503 199 q 660 100 560 100 q 819 153 769 100 q 888 346 869 207 z "},"я":{"ha":750,"x_min":1,"x_max":685,"o":"m 685 676 l 589 0 l 457 0 l 492 247 l 335 247 q 203 179 228 247 l 138 0 l 1 0 l 71 199 q 132 272 90 249 q 219 293 174 296 l 221 299 q 96 488 74 326 q 182 648 108 610 q 422 686 256 686 q 685 676 564 686 m 507 347 l 539 578 l 371 578 q 261 557 290 578 q 224 471 232 536 q 238 375 215 403 q 332 347 260 347 l 507 347 z "},"ё":{"ha":749,"x_min":63,"x_max":694,"o":"m 353 814 l 308 814 q 275 849 271 814 l 288 925 q 331 963 293 963 l 371 963 q 401 954 393 963 q 406 925 408 946 l 393 850 q 353 814 389 814 m 586 814 l 540 814 q 508 849 504 814 l 519 925 q 564 963 525 963 l 604 963 q 633 954 626 963 q 638 925 640 946 l 625 850 q 586 814 624 814 m 615 113 l 624 22 q 344 -17 525 -17 q 104 74 171 -17 q 63 357 38 165 q 170 624 89 553 q 438 696 251 696 q 653 640 596 696 q 694 476 710 585 q 617 334 678 378 q 429 281 556 290 l 194 260 q 235 130 193 164 q 365 96 276 96 q 615 113 460 96 m 203 360 l 429 381 q 522 408 493 385 q 560 488 551 431 q 538 568 568 553 q 417 583 508 583 q 267 540 311 583 q 203 360 224 496 z "},"ђ":{"ha":806,"x_min":72,"x_max":732,"o":"m 304 686 l 285 542 q 263 435 275 475 q 565 561 426 561 q 702 513 660 561 q 732 372 744 464 l 679 0 l 544 0 l 593 339 q 581 419 600 397 q 504 442 563 442 q 394 415 450 442 q 251 325 339 388 l 208 0 l 72 0 l 169 686 l 74 686 l 83 761 l 181 761 l 210 972 l 344 972 l 315 761 l 572 761 l 561 686 l 304 686 z "},"ѓ":{"ha":722,"x_min":35,"x_max":658,"o":"m 619 922 l 324 760 l 283 822 l 556 1025 l 619 922 m 106 544 l 103 651 q 383 696 228 689 q 469 697 428 696 q 548 688 511 697 q 611 662 585 678 q 651 613 638 646 q 658 533 664 581 q 631 448 653 486 q 576 387 608 410 q 517 351 543 364 q 463 328 492 339 q 454 325 457 326 l 258 247 q 191 209 211 226 q 168 164 171 192 q 191 110 164 122 q 281 99 218 97 q 611 153 451 103 l 615 43 q 283 -18 460 -18 q 89 26 154 -18 q 35 167 24 71 q 87 280 43 236 q 219 358 131 324 l 399 428 q 498 475 469 453 q 529 531 526 497 q 501 576 532 565 q 374 583 471 588 q 106 544 265 578 z "},"є":{"ha":703,"x_min":63,"x_max":672,"o":"m 672 660 l 654 568 q 457 575 540 575 q 283 540 335 575 q 208 393 232 504 l 551 393 l 539 297 l 194 297 q 220 140 182 175 q 390 100 258 106 q 593 108 456 97 l 601 14 q 361 -15 492 -15 q 111 65 186 -15 q 63 342 36 146 q 177 614 90 540 q 454 688 264 688 q 672 660 592 688 z "},"ѕ":{"ha":710,"x_min":29,"x_max":658,"o":"m 396 253 l 214 336 q 106 417 138 372 q 83 533 74 463 q 163 663 94 626 q 369 696 231 699 q 658 672 528 693 l 643 576 q 372 583 468 582 q 250 574 282 583 q 213 524 218 564 q 226 472 208 489 q 293 433 244 456 l 478 350 q 592 270 561 311 q 613 154 622 229 q 589 77 607 108 q 547 28 571 46 q 480 0 522 10 q 397 -12 438 -10 q 292 -15 356 -15 q 187 -13 225 -15 q 102 -5 149 -11 q 29 4 56 1 l 44 104 q 256 97 121 97 q 429 111 385 97 q 481 167 474 125 q 482 181 482 174 q 481 192 482 188 q 477 202 481 197 q 472 210 474 207 q 464 218 469 214 q 454 225 458 222 q 442 232 450 228 q 428 238 433 236 q 413 245 424 240 q 396 253 403 250 z "},"і":{"ha":354,"x_min":54,"x_max":321,"o":"m 221 967 l 285 967 q 314 956 304 967 q 321 925 324 944 l 311 847 q 269 810 306 810 l 206 810 q 176 822 186 810 q 168 853 165 833 l 179 931 q 221 967 183 967 m 188 0 l 54 0 l 149 678 l 282 678 l 188 0 z "},"ї":{"ha":350,"x_min":50,"x_max":425,"o":"m 350 963 l 390 963 q 420 954 413 963 q 425 925 428 946 l 413 850 q 372 814 408 814 l 328 814 q 294 849 290 814 l 307 925 q 350 963 313 963 m 118 963 l 158 963 q 188 954 181 963 q 192 925 194 946 l 179 850 q 140 814 178 814 l 96 814 q 63 849 58 814 l 75 925 q 118 963 79 963 m 185 0 l 50 0 l 146 678 l 281 678 l 185 0 z "},"ј":{"ha":354,"x_min":-58,"x_max":321,"o":"m 221 967 l 285 967 q 314 956 304 967 q 321 925 324 944 l 311 847 q 269 810 306 810 l 206 810 q 176 822 186 810 q 168 853 165 833 l 179 931 q 221 967 183 967 m 282 678 l 185 -11 q 128 -166 174 -94 q 14 -282 83 -237 l -58 -219 q 51 -4 35 -122 l 149 678 l 282 678 z "},"љ":{"ha":1119,"x_min":-19,"x_max":1036,"o":"m 674 678 l 633 393 q 808 422 715 422 q 1003 370 954 422 q 1036 201 1051 318 q 957 35 1018 76 q 760 -10 896 -7 q 544 28 618 -12 q 482 186 471 68 l 538 576 l 433 576 q 342 506 360 576 q 282 269 304 340 q 221 135 260 199 q -14 -4 139 -4 l -19 101 q 106 179 54 111 q 160 285 140 225 q 214 492 179 344 q 225 540 221 524 q 393 678 258 678 l 674 678 m 619 300 l 603 185 q 628 114 596 132 q 733 96 661 96 q 857 120 822 96 q 901 217 892 144 q 887 302 911 279 q 788 325 863 325 q 619 300 713 325 z "},"њ":{"ha":1132,"x_min":47,"x_max":1047,"o":"m 690 678 l 650 394 q 799 422 726 422 q 1011 374 957 422 q 1047 201 1065 326 q 969 35 1031 79 q 772 -10 908 -10 q 721 -9 739 -10 q 667 -5 703 -8 q 609 6 631 -1 q 560 26 588 13 q 519 60 533 40 q 497 113 506 81 q 493 186 489 146 l 514 325 l 217 325 l 171 0 l 47 0 l 143 678 l 267 678 l 231 422 l 528 422 l 564 678 l 690 678 m 636 301 l 619 185 q 645 113 613 131 q 750 96 678 96 q 869 120 833 96 q 914 217 904 144 q 898 302 922 279 q 793 325 874 325 q 636 301 726 325 z "},"ћ":{"ha":806,"x_min":72,"x_max":732,"o":"m 304 686 l 289 568 q 263 433 278 488 q 565 561 426 561 q 702 513 660 561 q 732 372 744 464 l 678 -11 q 620 -166 665 -94 q 507 -282 575 -237 l 435 -219 q 544 -4 528 -122 l 593 339 q 581 419 600 397 q 504 442 563 442 q 394 415 450 442 q 250 325 338 388 l 208 0 l 72 0 l 169 686 l 74 686 l 83 761 l 181 761 l 210 972 l 344 972 l 315 761 l 572 761 l 561 686 l 304 686 z "},"ќ":{"ha":744,"x_min":47,"x_max":722,"o":"m 388 760 l 347 822 l 619 1025 l 683 922 l 388 760 m 424 353 l 422 350 q 556 281 519 340 q 635 46 592 222 q 646 0 642 15 l 513 0 q 449 218 465 181 q 350 297 417 286 q 314 300 335 300 l 217 300 q 214 233 219 265 l 181 0 l 47 0 l 143 678 l 276 678 l 249 479 q 231 404 242 436 l 313 404 q 451 463 401 404 q 579 678 501 521 l 722 678 q 578 431 632 496 q 424 353 524 365 z "},"ѝ":{"ha":796,"x_min":67,"x_max":729,"o":"m 476 760 l 206 929 l 278 1024 l 524 819 l 476 760 m 729 678 l 635 0 l 531 0 l 539 142 q 231 -18 374 -18 q 96 32 138 -18 q 67 171 54 82 l 138 678 l 274 678 l 206 206 q 213 122 197 146 q 276 97 229 97 q 388 131 333 97 q 536 247 443 164 l 596 678 l 729 678 z "},"ў":{"ha":760,"x_min":6,"x_max":739,"o":"m 544 978 l 647 978 q 578 838 640 892 q 417 783 515 783 q 259 838 313 783 q 224 978 206 892 l 324 978 q 425 857 306 857 q 544 978 532 857 m 600 678 l 739 678 q 547 117 676 382 q 411 -110 482 -19 q 274 -237 340 -200 q 139 -288 208 -275 q 6 -285 69 -301 l 18 -175 q 342 0 199 -210 l 272 0 q 218 17 240 0 q 190 65 196 35 l 60 678 l 201 678 l 304 129 q 332 106 308 106 l 403 106 l 429 157 q 600 678 554 408 z "},"џ":{"ha":796,"x_min":67,"x_max":729,"o":"m 729 678 l 635 0 l 531 0 l 539 142 q 231 -18 374 -18 q 96 32 138 -18 q 67 171 54 82 l 138 678 l 274 678 l 206 206 q 213 122 197 146 q 276 97 229 97 q 388 131 333 97 q 536 247 443 164 l 596 678 l 729 678 m 321 -57 l 410 -57 l 385 -321 l 269 -321 l 321 -57 z "},"Ґ":{"ha":725,"x_min":56,"x_max":807,"o":"m 771 938 l 754 842 l 406 842 q 330 822 353 842 q 299 743 307 803 l 194 0 l 56 0 l 164 775 q 229 913 176 865 q 364 961 282 961 q 667 951 571 961 l 713 1168 l 807 1168 l 771 938 z "},"ґ":{"ha":635,"x_min":44,"x_max":672,"o":"m 625 575 l 339 575 q 246 492 258 575 l 178 0 l 44 0 l 119 533 q 286 682 140 682 q 539 678 454 682 l 581 879 l 672 879 l 640 669 l 625 575 z "},"Ұ":{"ha":808,"x_min":97,"x_max":868,"o":"m 499 386 l 675 386 l 663 303 l 460 303 l 417 0 l 278 0 l 321 303 l 114 303 l 126 386 l 307 386 l 97 958 l 242 958 l 378 563 q 403 451 393 515 l 415 457 q 471 567 454 539 l 719 958 l 868 958 l 499 386 z "},"ұ":{"ha":811,"x_min":56,"x_max":826,"o":"m 458 108 l 636 108 l 625 24 l 417 24 l 375 -281 l 235 -281 l 278 24 l 76 24 l 88 108 l 264 108 l 56 678 l 197 678 l 335 282 q 360 171 354 222 l 372 171 q 428 286 390 228 l 675 678 l 826 678 l 458 108 z "},"Ҷ":{"ha":925,"x_min":100,"x_max":846,"o":"m 844 96 l 832 0 l 801 -210 l 694 -210 l 713 0 l 572 0 l 635 443 q 294 344 461 344 q 134 400 185 344 q 100 568 83 456 l 156 958 l 294 958 l 244 590 q 257 494 233 522 q 356 465 281 465 q 494 488 426 465 q 651 563 561 511 l 707 958 l 846 958 l 725 96 l 844 96 z "},"ҷ":{"ha":786,"x_min":68,"x_max":699,"o":"m 685 7 l 656 -200 l 531 -200 l 579 0 l 454 0 l 496 297 q 240 231 354 231 q 100 268 143 229 q 68 383 57 307 l 110 678 l 244 678 l 210 424 q 217 357 201 374 q 285 340 232 340 q 513 413 388 340 l 550 678 l 685 678 l 601 108 l 699 108 l 685 7 z "},"Һ":{"ha":883,"x_min":58,"x_max":804,"o":"m 333 958 l 271 515 q 610 614 444 614 q 771 558 719 614 q 804 390 822 501 l 750 0 l 610 0 l 663 368 q 649 465 672 436 q 550 493 625 493 q 254 394 425 493 l 199 0 l 58 0 l 193 958 l 333 958 z "},"Ӏ":{"ha":372,"x_min":60,"x_max":335,"o":"m 200 0 l 60 0 l 194 958 l 335 958 l 200 0 z "},"Ẁ":{"ha":1314,"x_min":115,"x_max":1351,"o":"m 817 1068 l 769 1008 l 499 1176 l 571 1272 l 817 1068 m 1351 958 l 1038 38 q 981 0 1022 0 l 829 0 q 796 13 810 0 q 781 44 782 25 l 738 749 q 733 802 736 767 q 731 856 731 838 l 701 856 l 667 743 l 431 39 q 375 0 418 0 l 225 0 q 190 13 204 0 q 174 43 175 25 l 115 958 l 257 958 l 290 225 q 292 165 292 206 q 293 103 293 124 l 325 103 q 365 231 331 122 l 596 915 q 653 958 610 958 l 799 958 q 831 944 818 958 q 846 910 844 931 l 896 224 q 900 103 901 143 l 933 103 q 971 228 949 156 l 1206 958 l 1351 958 z "},"ẁ":{"ha":1190,"x_min":58,"x_max":1172,"o":"m 715 819 l 668 760 l 397 929 l 469 1024 l 715 819 m 289 106 l 308 106 q 376 158 349 106 q 444 343 408 218 q 504 644 476 460 q 542 678 508 678 l 689 678 q 722 647 718 678 l 785 106 l 801 106 q 858 150 831 106 q 951 343 914 236 q 1032 678 1004 488 l 1172 678 q 1054 289 1128 467 q 939 74 990 139 q 811 0 883 0 l 722 0 q 694 10 706 0 q 681 36 683 21 l 622 590 l 604 590 q 553 310 593 465 q 468 99 515 185 q 303 0 414 0 l 226 0 q 183 36 190 0 l 58 678 l 199 678 l 289 106 z "},"Ẃ":{"ha":1314,"x_min":115,"x_max":1351,"o":"m 988 1169 l 692 1008 l 651 1069 l 924 1274 l 988 1169 m 1351 958 l 1038 38 q 981 0 1022 0 l 829 0 q 796 13 810 0 q 781 44 782 25 l 738 749 q 733 802 736 767 q 731 856 731 838 l 701 856 l 667 743 l 431 39 q 375 0 418 0 l 225 0 q 190 13 204 0 q 174 43 175 25 l 115 958 l 257 958 l 290 225 q 292 165 292 206 q 293 103 293 124 l 325 103 q 365 231 331 122 l 596 915 q 653 958 610 958 l 799 958 q 831 944 818 958 q 846 910 844 931 l 896 224 q 900 103 901 143 l 933 103 q 971 228 949 156 l 1206 958 l 1351 958 z "},"ẃ":{"ha":1190,"x_min":58,"x_max":1172,"o":"m 885 922 l 589 760 l 549 822 l 821 1025 l 885 922 m 289 106 l 308 106 q 376 158 349 106 q 444 343 408 218 q 504 644 476 460 q 542 678 508 678 l 689 678 q 722 647 718 678 l 785 106 l 801 106 q 858 150 831 106 q 951 343 914 236 q 1032 678 1004 488 l 1172 678 q 1054 289 1128 467 q 939 74 990 139 q 811 0 883 0 l 722 0 q 694 10 706 0 q 681 36 683 21 l 622 590 l 604 590 q 553 310 593 465 q 468 99 515 185 q 303 0 414 0 l 226 0 q 183 36 190 0 l 58 678 l 199 678 l 289 106 z "},"Ẅ":{"ha":1314,"x_min":115,"x_max":1351,"o":"m 864 1211 l 904 1211 q 939 1174 944 1211 l 926 1097 q 888 1061 922 1061 l 842 1061 q 808 1096 804 1061 l 821 1174 q 864 1211 828 1211 m 632 1211 l 672 1211 q 707 1174 711 1211 l 694 1097 q 654 1061 690 1061 l 610 1061 q 576 1096 572 1061 l 589 1174 q 632 1211 594 1211 m 1351 958 l 1038 38 q 981 0 1022 0 l 829 0 q 796 13 810 0 q 781 44 782 25 l 738 749 q 733 802 736 767 q 731 856 731 838 l 701 856 l 667 743 l 431 39 q 375 0 418 0 l 225 0 q 190 13 204 0 q 174 43 175 25 l 115 958 l 257 958 l 290 225 q 292 165 292 206 q 293 103 293 124 l 325 103 q 365 231 331 122 l 596 915 q 653 958 610 958 l 799 958 q 831 944 818 958 q 846 910 844 931 l 896 224 q 900 103 901 143 l 933 103 q 971 228 949 156 l 1206 958 l 1351 958 z "},"ẅ":{"ha":1190,"x_min":58,"x_max":1172,"o":"m 529 963 l 569 963 q 599 954 592 963 q 604 925 607 946 l 592 850 q 551 814 588 814 l 507 814 q 474 849 469 814 l 486 925 q 529 963 492 963 m 763 963 l 803 963 q 832 954 825 963 q 836 925 839 946 l 824 850 q 785 814 822 814 l 740 814 q 707 849 703 814 l 718 925 q 763 963 724 963 m 289 106 l 308 106 q 376 158 349 106 q 444 343 408 218 q 504 644 476 460 q 542 678 508 678 l 689 678 q 722 647 718 678 l 785 106 l 801 106 q 858 150 831 106 q 951 343 914 236 q 1032 678 1004 488 l 1172 678 q 1054 289 1128 467 q 939 74 990 139 q 811 0 883 0 l 722 0 q 694 10 706 0 q 681 36 683 21 l 622 590 l 604 590 q 553 310 593 465 q 468 99 515 185 q 303 0 414 0 l 226 0 q 183 36 190 0 l 58 678 l 199 678 l 289 106 z "},"Ỳ":{"ha":793,"x_min":88,"x_max":857,"o":"m 506 1008 l 236 1178 l 308 1274 l 553 1069 l 506 1008 m 451 331 l 406 0 l 265 0 l 314 338 l 88 958 l 228 958 l 365 563 q 390 451 385 501 l 403 451 q 458 567 421 508 l 706 958 l 857 958 l 451 331 z "},"ỳ":{"ha":757,"x_min":49,"x_max":738,"o":"m 435 760 l 164 929 l 236 1024 l 482 819 l 435 760 m 597 678 l 738 678 q 542 118 663 347 q 327 -174 433 -87 q 74 -285 221 -260 l 49 -189 q 204 -126 138 -168 q 332 0 271 -85 l 269 0 q 215 17 238 0 q 188 65 193 35 l 57 678 l 199 678 l 301 129 q 329 106 306 106 l 397 106 q 413 134 403 115 q 425 158 422 153 q 597 678 547 413 z "},"–":{"ha":813,"x_min":81,"x_max":715,"o":"m 701 300 l 81 300 l 94 403 l 715 403 l 701 300 z "},"—":{"ha":1233,"x_min":81,"x_max":1136,"o":"m 1122 300 l 81 300 l 94 403 l 1136 403 l 1122 300 z "},"‘":{"ha":307,"x_min":128,"x_max":288,"o":"m 210 672 l 171 672 q 128 719 118 672 l 139 801 q 222 1006 151 893 l 288 985 q 240 829 249 872 q 282 789 286 832 l 269 715 q 252 681 264 690 q 210 672 240 672 z "},"’":{"ha":304,"x_min":138,"x_max":297,"o":"m 215 993 l 256 993 q 297 944 307 993 l 286 863 q 203 660 272 768 l 138 681 q 185 836 176 793 q 153 846 164 835 q 143 875 142 857 l 156 950 q 173 984 161 975 q 215 993 185 993 z "},"‚":{"ha":322,"x_min":32,"x_max":192,"o":"m 110 158 l 150 158 q 192 110 201 158 l 181 28 q 97 -175 167 -67 l 32 -154 q 79 1 71 -42 q 46 11 57 0 q 38 40 35 22 l 49 115 q 67 149 56 140 q 110 158 79 158 z "},"“":{"ha":529,"x_min":128,"x_max":510,"o":"m 210 672 l 171 672 q 128 719 118 672 l 139 801 q 222 1006 151 893 l 288 985 q 240 829 249 872 q 282 789 286 832 l 269 715 q 252 681 264 690 q 210 672 240 672 m 432 672 l 393 672 q 350 719 342 672 l 361 801 q 444 1006 374 893 l 510 985 q 463 829 471 872 q 504 789 508 832 l 493 715 q 474 681 486 690 q 432 672 463 672 z "},"”":{"ha":526,"x_min":138,"x_max":519,"o":"m 215 993 l 256 993 q 297 944 307 993 l 286 863 q 203 660 272 768 l 138 681 q 185 836 176 793 q 153 846 164 835 q 143 875 142 857 l 156 950 q 173 984 161 975 q 215 993 185 993 m 438 993 l 478 993 q 519 944 529 993 l 508 863 q 426 660 494 769 l 360 681 q 407 836 399 793 q 375 846 386 835 q 367 875 364 857 l 378 950 q 395 984 383 975 q 438 993 407 993 z "},"„":{"ha":544,"x_min":32,"x_max":414,"o":"m 110 157 l 149 157 q 192 110 200 157 l 181 26 q 97 -176 168 -64 l 32 -156 q 79 0 71 -43 q 46 10 57 -1 q 38 39 35 21 l 49 114 q 67 148 56 139 q 110 157 79 157 m 332 157 l 371 157 q 414 110 422 157 l 403 26 q 319 -176 390 -64 l 254 -156 q 301 0 293 -43 q 268 10 279 -1 q 260 39 257 21 l 271 114 q 290 148 278 139 q 332 157 301 157 z "},"†":{"ha":629,"x_min":75,"x_max":614,"o":"m 296 -153 l 175 -153 l 286 594 l 297 672 l 331 960 l 453 960 l 407 672 l 396 594 l 296 -153 m 75 561 l 90 678 l 271 678 l 257 576 l 75 561 m 614 678 l 599 561 l 419 576 l 433 678 l 614 678 z "},"‡":{"ha":683,"x_min":42,"x_max":642,"o":"m 435 675 l 357 129 l 324 -153 l 203 -153 l 247 129 l 325 675 l 358 960 l 481 960 l 435 675 m 283 576 l 101 561 l 118 678 l 299 678 l 283 576 m 625 561 l 446 576 l 461 678 l 642 678 l 625 561 m 236 231 l 222 129 l 42 129 l 57 246 l 236 231 m 565 129 l 385 129 l 399 231 l 581 246 l 565 129 z "},"•":{"ha":504,"x_min":115,"x_max":379,"o":"m 256 503 l 274 503 q 365 475 340 503 q 379 381 389 447 l 376 361 q 339 265 367 290 q 243 240 311 240 l 225 240 q 130 269 154 240 q 115 368 106 297 l 118 386 q 156 478 128 454 q 256 503 185 503 z "},"…":{"ha":1188,"x_min":31,"x_max":1053,"o":"m 93 172 l 138 172 q 183 121 189 172 l 172 47 q 121 0 168 0 l 76 0 q 31 51 22 0 l 42 126 q 93 172 46 172 m 964 172 l 1008 172 q 1053 121 1061 172 l 1043 47 q 992 0 1038 0 l 947 0 q 900 51 894 0 l 911 126 q 964 172 917 172 m 528 172 l 572 172 q 618 121 626 172 l 608 47 q 556 0 603 0 l 513 0 q 465 51 457 0 l 476 126 q 528 172 482 172 z "},"‰":{"ha":1767,"x_min":99,"x_max":1685,"o":"m 354 976 q 527 910 483 976 q 549 686 571 843 q 469 469 526 532 q 290 407 413 407 q 121 474 164 407 q 99 697 78 540 q 177 914 121 851 q 354 976 233 976 m 310 0 l 206 0 l 953 958 l 1057 958 l 310 0 m 358 893 q 248 849 279 893 q 200 686 217 806 q 202 532 185 574 q 286 490 219 490 q 399 534 368 490 q 447 697 431 578 q 446 851 464 808 q 358 893 428 893 m 972 554 q 1145 488 1101 554 q 1167 265 1189 421 q 1088 49 1144 111 q 908 -14 1031 -14 q 739 53 782 -14 q 718 275 696 119 q 795 492 739 429 q 972 554 851 554 m 1492 554 q 1663 488 1619 554 q 1685 265 1707 421 q 1607 49 1664 113 q 1428 -14 1550 -14 q 1257 52 1300 -14 q 1236 275 1214 118 q 1315 492 1258 429 q 1492 554 1371 554 m 976 471 q 866 427 897 471 q 818 265 835 383 q 821 110 803 153 q 906 68 839 68 q 1017 112 986 68 q 1065 275 1049 156 q 1064 428 1082 386 q 976 471 1046 471 m 1496 471 q 1385 428 1415 471 q 1338 265 1354 385 q 1339 110 1321 153 q 1424 68 1357 68 q 1537 112 1506 68 q 1585 275 1568 156 q 1582 428 1600 386 q 1496 471 1564 471 z "},"‹":{"ha":411,"x_min":49,"x_max":364,"o":"m 364 590 l 158 349 l 306 97 l 239 53 l 49 340 l 51 371 l 310 639 l 364 590 z "},"›":{"ha":413,"x_min":31,"x_max":346,"o":"m 346 351 l 343 321 l 85 53 l 31 103 l 238 344 l 90 594 l 156 639 l 346 351 z "},"⁄":{"ha":222,"x_min":-301,"x_max":543,"o":"m -196 0 l -301 0 l 436 958 l 543 958 l -196 0 z "},"€":{"ha":879,"x_min":60,"x_max":869,"o":"m 869 946 l 847 838 q 631 850 749 857 q 457 792 519 846 q 361 619 394 738 l 707 619 l 683 539 l 342 539 q 335 505 339 528 q 331 472 332 482 l 326 440 l 633 440 l 610 358 l 321 358 q 361 171 317 231 q 511 108 406 111 q 757 124 639 101 l 763 15 q 517 -17 653 -17 q 253 76 335 -17 q 178 358 171 168 l 60 358 l 72 440 l 183 440 l 189 485 l 197 539 l 86 539 l 97 619 l 214 619 q 360 888 260 801 q 640 975 461 975 q 869 946 765 975 z "},"™":{"ha":1335,"x_min":153,"x_max":1289,"o":"m 1156 967 l 1256 967 q 1281 956 1272 967 q 1289 926 1290 944 l 1242 439 l 1154 439 l 1196 893 l 1181 893 l 1014 532 q 974 504 1000 504 l 903 504 q 867 538 869 504 l 797 893 l 781 893 l 699 439 l 610 439 l 699 933 q 735 967 704 967 l 832 967 q 868 933 864 967 l 925 640 q 931 603 928 629 q 935 565 933 578 l 950 565 q 978 639 963 610 l 1115 939 q 1156 967 1128 967 m 607 888 l 428 888 l 365 439 l 269 439 l 332 888 l 153 888 l 164 967 l 618 967 l 607 888 z "},"∂":{"ha":792,"x_min":50,"x_max":736,"o":"m 243 874 l 250 976 q 399 972 335 978 q 520 953 463 967 q 617 913 578 939 q 685 849 656 888 q 726 756 714 810 q 736 628 738 701 q 718 463 735 556 q 580 101 675 219 q 313 -17 485 -17 q 171 13 229 -17 q 86 89 113 42 q 50 197 60 136 q 57 322 40 258 q 165 543 82 458 q 381 626 247 628 q 592 522 522 624 q 606 666 610 606 q 585 767 601 726 q 524 831 569 807 q 412 864 478 854 q 243 874 346 874 m 317 104 q 485 191 426 104 q 578 447 543 278 q 411 513 506 513 q 188 311 228 513 q 317 104 149 104 z "},"∅":{"ha":951,"x_min":79,"x_max":892,"o":"m 199 760 q 258 820 199 760 q 486 879 318 879 q 773 760 654 879 q 892 474 892 642 q 773 186 892 306 q 486 67 654 67 q 198 186 317 67 q 79 474 79 306 q 199 760 79 642 m 443 335 l 518 335 q 538 424 518 383 q 583 489 558 465 q 628 549 608 513 q 649 628 649 586 q 486 757 649 757 q 317 742 417 757 l 321 679 q 486 692 404 692 q 578 628 578 692 q 557 566 578 599 q 510 507 536 533 q 464 435 485 481 q 443 335 443 389 m 508 238 l 454 238 q 444 226 444 238 l 444 175 q 454 165 444 165 l 508 165 q 519 175 519 165 l 519 226 q 508 238 519 238 z "},"∏":{"ha":996,"x_min":108,"x_max":1022,"o":"m 1006 844 l 865 844 l 728 -142 l 593 -142 l 732 844 l 383 844 l 244 -142 l 111 -142 l 249 844 l 108 844 l 125 958 l 1022 958 l 1006 844 z "},"∑":{"ha":818,"x_min":-14,"x_max":815,"o":"m 799 846 l 288 846 l 463 476 l 153 -46 l 688 -46 l 671 -158 l -14 -158 l 1 -46 l 318 479 l 144 846 l 160 958 l 815 958 l 799 846 z "},"−":{"ha":813,"x_min":92,"x_max":721,"o":"m 706 360 l 92 360 l 107 460 l 721 460 l 706 360 z "},"√":{"ha":785,"x_min":78,"x_max":869,"o":"m 869 1217 l 349 8 q 335 0 346 0 l 179 0 q 165 4 172 0 q 160 14 158 8 l 78 678 l 186 678 l 257 90 l 275 90 l 756 1217 l 869 1217 z "},"∞":{"ha":1076,"x_min":82,"x_max":1000,"o":"m 828 622 q 963 572 914 622 q 1000 426 1013 522 q 922 278 986 331 q 768 225 857 225 q 539 353 639 225 q 267 225 383 225 q 122 281 175 225 q 82 436 68 338 q 156 576 94 529 q 303 622 217 622 q 433 587 379 622 q 540 488 486 551 q 828 622 700 622 m 194 422 q 286 324 181 324 q 361 342 324 324 q 417 376 399 360 q 481 433 436 393 q 413 502 446 481 q 324 524 379 524 q 194 422 208 524 m 885 433 q 801 524 899 524 q 758 518 779 524 q 722 506 736 513 q 688 484 707 499 q 658 461 668 469 q 628 433 649 453 q 601 407 608 414 q 663 345 631 367 q 750 324 694 324 q 842 352 806 324 q 885 433 879 381 z "},"∫":{"ha":507,"x_min":-53,"x_max":543,"o":"m 156 -94 l 221 810 q 397 992 235 992 q 543 986 493 992 l 525 890 l 439 890 q 335 782 344 890 l 271 -126 q 221 -265 264 -221 q 86 -308 178 -308 q -53 -303 -14 -308 l -35 -207 l 49 -207 q 124 -181 99 -207 q 156 -94 150 -154 z "},"≈":{"ha":811,"x_min":71,"x_max":739,"o":"m 197 447 l 110 453 q 151 586 110 544 q 264 625 193 628 q 420 585 313 622 q 574 546 528 547 q 626 560 610 544 q 650 619 643 576 l 739 615 q 701 485 740 528 q 581 444 661 443 q 419 485 526 446 q 274 525 313 524 q 220 509 238 526 q 197 447 203 492 m 160 181 l 71 186 q 113 321 71 279 q 226 360 154 363 q 383 319 275 357 q 536 279 490 281 q 589 294 572 278 q 613 354 606 311 l 701 349 q 664 220 703 263 q 544 179 625 178 q 382 219 489 181 q 236 258 275 257 q 183 242 200 260 q 160 181 165 225 z "},"≠":{"ha":851,"x_min":90,"x_max":758,"o":"m 514 504 l 369 311 l 718 311 l 704 211 l 296 211 l 168 40 l 129 60 l 243 211 l 90 211 l 104 311 l 317 311 l 461 504 l 131 504 l 144 604 l 536 604 l 649 756 l 686 735 l 589 604 l 758 604 l 744 504 l 514 504 z "},"≤":{"ha":779,"x_min":47,"x_max":725,"o":"m 710 643 l 235 506 l 672 376 l 658 272 l 111 451 l 125 558 l 725 750 l 710 643 m 646 103 l 47 103 l 61 201 l 660 201 l 646 103 z "},"≥":{"ha":776,"x_min":47,"x_max":696,"o":"m 696 558 l 681 451 l 82 272 l 100 383 l 571 515 l 138 650 l 150 750 l 696 558 m 646 103 l 47 103 l 61 201 l 660 201 l 646 103 z "},"◊":{"ha":792,"x_min":54,"x_max":758,"o":"m 54 496 l 461 961 q 482 958 474 975 l 757 490 q 758 465 764 475 l 353 -4 q 331 0 340 -19 l 54 471 q 54 496 47 485 m 163 479 l 356 136 l 656 485 l 458 825 l 163 479 z "},"ﬁ":{"ha":853,"x_min":-164,"x_max":822,"o":"m 786 678 l 690 0 l 556 0 l 636 574 l 317 574 l 225 -78 q 4 -276 197 -276 q -164 -265 -71 -276 l -143 -165 l -39 -165 q 54 -144 26 -165 q 92 -57 82 -122 l 181 574 l 60 574 l 72 671 l 196 678 l 210 782 q 278 943 226 890 q 435 996 331 996 q 603 986 546 996 l 593 886 l 478 886 q 383 858 414 886 q 343 761 353 829 l 331 678 l 786 678 m 722 967 l 786 967 q 815 956 806 967 q 822 925 825 944 l 813 847 q 771 810 807 810 l 707 810 q 677 822 688 810 q 669 853 667 833 l 681 931 q 722 967 685 967 z "},"ﬂ":{"ha":936,"x_min":-164,"x_max":875,"o":"m 869 92 l 875 4 q 747 -12 838 -12 q 624 31 665 -12 q 593 151 583 75 l 696 888 l 478 888 q 383 860 414 889 q 343 761 353 831 l 331 678 l 526 678 l 513 574 l 317 574 l 225 -78 q 4 -276 197 -276 q -164 -265 -71 -276 l -143 -165 l -39 -165 q 54 -144 26 -165 q 92 -57 82 -122 l 181 574 l 60 574 l 72 671 l 196 678 l 210 782 q 278 944 226 890 q 435 996 331 997 q 840 979 731 996 l 731 176 q 803 92 721 92 l 869 92 z "}}}
